<?xml version="1.0" encoding="UTF-8" standalone="no"?>
<svg
   id="a139742c-031f-4297-9910-0b661ecf4262"
   data-name="Layer 1"
   width="888.07971"
   height="534.96981"
   viewBox="0 0 888.07971 534.96981"
   version="1.1"
   sodipodi:docname="bill.svg"
   inkscape:version="1.1.1 (3bf5ae0d25, 2021-09-20)"
   xmlns:inkscape="http://www.inkscape.org/namespaces/inkscape"
   xmlns:sodipodi="http://sodipodi.sourceforge.net/DTD/sodipodi-0.dtd"
   xmlns="http://www.w3.org/2000/svg"
   xmlns:svg="http://www.w3.org/2000/svg">
  <defs
     id="defs79" />
  <sodipodi:namedview
     id="namedview77"
     pagecolor="#ffffff"
     bordercolor="#666666"
     borderopacity="1.0"
     inkscape:pageshadow="2"
     inkscape:pageopacity="0.0"
     inkscape:pagecheckerboard="0"
     showgrid="false"
     inkscape:zoom="0.35516024"
     inkscape:cx="406.8586"
     inkscape:cy="387.14919"
     inkscape:window-width="1366"
     inkscape:window-height="704"
     inkscape:window-x="0"
     inkscape:window-y="0"
     inkscape:window-maximized="1"
     inkscape:current-layer="a139742c-031f-4297-9910-0b661ecf4262" />
  <title
     id="title2">online_payments</title>
  <path
     d="m 176.97337,365.68118 -3.72342,-14.39837 a 190.69853,186.96608 0 0 0 -20.23191,-7.11653 l -0.47013,6.69151 -1.90635,-7.37199 c -8.52622,-2.38704 -14.32662,-3.43848 -14.32662,-3.43848 0,0 7.83499,29.21092 24.26832,51.54304 l 19.14841,3.29771 -14.8759,2.10284 a 77.151059,75.641018 0 0 0 6.6542,6.91372 c 23.90583,21.75543 50.53248,31.73695 59.47224,22.29431 8.93974,-9.44265 -3.19267,-34.73366 -27.09853,-56.48909 -7.41104,-6.7444 -16.7209,-12.15672 -26.04,-16.41634 z"
     fill="#e6e6e6"
     id="path4"
     style="stroke-width:0.691318" />
  <path
     d="m 212.38583,350.04488 4.40371,-14.21262 a 190.69734,186.96491 0 0 0 -13.56747,-16.34528 l -3.93035,5.48998 2.25474,-7.27687 c -6.04035,-6.36438 -10.45141,-10.20403 -10.45141,-10.20403 0,0 -8.69349,28.97652 -6.39977,56.42197 l 14.65329,12.52711 -13.84308,-5.73872 a 77.152435,75.642367 0 0 0 2.05126,9.29069 c 8.99457,30.73874 26.52569,52.77731 39.15689,49.22452 12.63119,-3.55279 15.57923,-31.35157 6.58465,-62.09031 -2.7884,-9.52931 -7.90457,-18.88058 -13.63639,-27.24978 z"
     fill="#e6e6e6"
     id="path6"
     style="stroke-width:0.691318" />
  <rect
     x="136.37057"
     y="431.36038"
     width="619.98755"
     height="1.5338153"
     fill="#3f3d56"
     id="rect8"
     style="stroke-width:0.691318" />
  <path
     d="m 234.32452,272.52673 c 0,0 -4.82814,56.9167 -5.86479,69.11293 a 88.46705,86.735527 0 0 1 -5.1832,22.35975 c 0,0 -2.07329,4.06541 -2.07329,8.13082 v 51.83396 c 0,0 -4.14656,0 -3.10992,4.06541 1.03664,4.06542 2.07328,11.17987 2.07328,11.17987 h 15.54963 c 0,0 -1.03664,-3.04905 2.07328,-4.0654 3.10993,-1.01636 0,-9.14718 0,-9.14718 l 16.58628,-60.98113 24.8794,-50.81761 c 0,0 14.51299,45.73585 17.62292,50.81761 0,0 11.40306,56.91573 13.47635,61.99749 2.0733,5.08176 3.10992,5.08176 2.07328,7.11446 -1.03664,2.03271 -1.03664,4.06541 0,5.08176 1.03663,1.01636 20.73285,0 20.73285,0 l -5.18322,-72.161 -9.32977,-86.38997 -47.68554,-14.22893 z"
     fill="#2f2e41"
     id="path10"
     style="stroke-width:0.691318" />
  <path
     d="m 231.56967,431.07863 c 0,0 -5.1832,-18.29434 -13.47635,-4.06541 -8.29315,14.22893 -8.29314,19.31069 -8.29314,19.31069 0,0 -13.47635,19.31069 5.18321,17.27799 18.65956,-2.03271 14.51299,-11.17987 14.51299,-11.17987 0,0 7.25649,-4.06541 7.25649,-7.11447 0,-3.04905 -5.1832,-14.22893 -5.1832,-14.22893 z"
     fill="#2f2e41"
     id="path12"
     style="stroke-width:0.691318" />
  <path
     d="m 315.53767,429.04593 c 0,0 5.18321,-18.29435 13.47635,-4.06541 8.29314,14.22893 8.29313,19.31069 8.29313,19.31069 0,0 13.47635,19.31069 -5.18321,17.27798 -18.65955,-2.0327 -14.51298,-11.17987 -14.51298,-11.17987 0,0 -7.25649,-4.06541 -7.25649,-7.11446 0,-3.04906 5.1832,-14.22893 5.1832,-14.22893 z"
     fill="#2f2e41"
     id="path14"
     style="stroke-width:0.691318" />
  <path
     d="m 266.8155,135.32013 c 0,0 2.07328,13.21259 -4.14657,16.26163 -6.21986,3.04904 13.47635,14.22894 18.65956,14.22894 5.1832,0 14.51298,-10.16353 14.51298,-10.16353 0,0 -5.18321,-15.24528 -4.14657,-18.29434 z"
     fill="#a0616a"
     id="path16"
     style="stroke-width:0.691318" />
  <ellipse
     cx="278.21857"
     cy="124.14026"
     fill="#a0616a"
     id="circle18"
     style="stroke-width:0.691318"
     rx="21.769478"
     ry="21.343395" />
  <path
     d="m 320.72088,167.8434 -25.91521,-15.39388 c 0,0 -14.74502,16.41023 -30.69738,-1.8841 l -27.35542,7.11446 4.14657,69.11194 c 0,0 -6.21985,27.44152 -4.14657,32.52328 2.07328,5.08176 -5.18321,7.11447 -3.10992,8.13082 2.07329,1.01635 0,8.13081 0,8.13081 0,0 40.42905,20.32705 85.00462,5.08177 L 314.501,267.44591 a 10.877827,10.664921 0 0 0 -2.07329,-10.16352 c 0,0 4.14658,-6.09812 -1.03663,-11.17987 0,0 2.07328,-9.14718 -3.10993,-13.21259 l -1.03665,-14.22893 3.10993,-7.11446 z"
     fill="#cfcce0"
     id="path20"
     style="stroke-width:0.691318" />
  <path
     d="m 267.07757,114.22992 c 0,0 -2.59537,5.50674 7.78609,3.30404 0,0 3.89308,2.2027 3.89308,-1.10134 0,0 5.19072,5.50674 6.4884,2.20269 1.29768,-3.30405 3.89307,1.10135 3.89307,1.10135 l 2.59536,-5.50674 2.59537,3.30404 h 9.08369 c 0,0 2.59536,-22.026963 -28.549,-19.824263 -31.14436,2.2027 -15.82295,37.102253 -15.82295,37.102253 0,0 0.2508,-6.26451 2.84615,-2.96045 2.59537,3.30404 5.19074,-17.62158 5.19074,-17.62158 z"
     fill="#2f2e41"
     id="path22"
     style="stroke-width:0.691318" />
  <path
     d="m 330.05066,208.49751 1.03664,21.34339 c 0,0 4.14657,39.63776 -4.14657,56.9157 v 9.14717 c 0,0 -2.07328,23.37609 -12.43971,22.35974 -10.36642,-1.01634 3.10993,-33.53961 3.10993,-33.53961 l -2.07328,-44.71951 -2.07328,-25.40879 z"
     fill="#a0616a"
     id="path24"
     style="stroke-width:0.691318" />
  <path
     d="m 309.31782,168.85976 10.34102,-1.64722 a 50.488049,49.49987 0 0 1 14.53839,26.03967 c 3.10992,16.26164 4.14656,19.31069 4.14656,19.31069 l -24.8794,6.09811 -13.47635,-25.40881 z"
     fill="#cfcce0"
     id="path26"
     style="stroke-width:0.691318" />
  <rect
     x="264.79242"
     y="157.26079"
     width="163.59192"
     height="79.674255"
     fill="#ffffff"
     id="rect28"
     style="stroke-width:0.691318" />
  <path
     d="m 282.65566,162.05209 c -4.20284,-2.47795 -9.27049,-2.28869 -11.19699,-2.09942 0.73366,1.75613 2.93496,6.23541 7.1378,8.71461 4.2131,2.48423 9.27403,2.28932 11.19764,2.10132 -0.73335,-1.75551 -2.93496,-6.23668 -7.13845,-8.71651 z"
     fill="#f450a9"
     id="path30"
     style="stroke-width:0.691318" />
  <path
     d="m 302.40519,211.22304 h -26.26815 a 5.9103383,5.7946581 0 1 0 0,11.58931 h 26.26815 a 5.9103383,5.7946581 0 1 0 0,-11.58931 z"
     fill="#f450a9"
     id="path32"
     style="stroke-width:0.691318" />
  <path
     d="M 421.3565,150.05723 H 274.07903 a 13.04615,12.790804 0 0 0 -13.04618,12.79084 v 70.35207 a 13.046178,12.790831 0 0 0 13.04618,12.79083 H 421.3565 a 13.046178,12.790831 0 0 0 13.04618,-12.79083 V 162.84807 A 13.04615,12.790804 0 0 0 421.3565,150.05723 Z m -150.92137,8.72531 c 0.29083,-0.0515 7.18719,-1.20219 12.89775,2.16671 5.71025,3.36826 7.90418,9.8816 7.99461,10.157 l 0.23087,0.70231 -0.74104,0.1289 a 19.67108,19.286067 0 0 1 -3.19598,0.23013 19.029931,18.657467 0 0 1 -9.70209,-2.39747 c -5.71025,-3.36764 -7.90386,-9.88097 -7.99428,-10.15637 l -0.23087,-0.70231 z m 31.97006,65.31748 h -26.26815 a 7.2237419,7.082355 0 0 1 0,-14.16471 h 26.26815 a 7.2237419,7.082355 0 1 1 0,14.16471 z m 119.52012,-1.2877 a 7.9036331,7.748939 0 0 1 -7.88045,7.72621 h -19.70111 a 7.9036331,7.748939 0 0 1 -7.88045,-7.72621 v -11.58928 a 7.9036051,7.7489116 0 0 1 7.88045,-7.72621 h 19.70111 a 7.9036051,7.7489116 0 0 1 7.88045,7.72621 z"
     fill="#f450a9"
     id="path34"
     style="stroke-width:0.691318" />
  <path
     d="m 400.58241,220.55887 h -8.53713 a 2.2984641,2.2534774 0 0 0 0,4.50695 h 8.53713 a 2.2984641,2.2534774 0 0 0 0,-4.50695 z m 0,3.21925 h -8.53713 a 0.98506101,0.96578088 0 1 1 0,-1.93155 h 8.53713 a 0.98506101,0.96578088 0 0 1 0,1.93155 z"
     fill="#f450a9"
     id="path36"
     style="stroke-width:0.691318" />
  <path
     d="m 416.34332,220.55887 h -8.53715 a 2.2984641,2.2534774 0 0 0 0,4.50695 h 8.53715 a 2.2984641,2.2534774 0 0 0 0,-4.50695 z m 0,3.21925 h -8.53715 a 0.98506101,0.96578088 0 1 1 0,-1.93155 h 8.53715 a 0.98506101,0.96578088 0 0 1 0,1.93155 z"
     fill="#f450a9"
     id="path38"
     style="stroke-width:0.691318" />
  <path
     d="m 400.58241,214.76421 h -8.53713 a 2.2984668,2.25348 0 0 0 0,4.50696 h 8.53713 a 2.2984668,2.25348 0 0 0 0,-4.50696 z m 0,3.21925 h -8.53713 a 0.98505509,0.96577508 0 1 1 0,-1.93155 h 8.53713 a 0.98505509,0.96577508 0 1 1 0,1.93155 z"
     fill="#f450a9"
     id="path40"
     style="stroke-width:0.691318" />
  <path
     d="m 416.34332,214.76421 h -8.53715 a 2.2984668,2.25348 0 0 0 0,4.50696 h 8.53715 a 2.2984668,2.25348 0 0 0 0,-4.50696 z m 0,3.21925 h -8.53715 a 0.98505509,0.96577508 0 1 1 0,-1.93155 h 8.53715 a 0.98505509,0.96577508 0 1 1 0,1.93155 z"
     fill="#f450a9"
     id="path42"
     style="stroke-width:0.691318" />
  <path
     d="m 400.58241,208.96956 h -8.53713 a 2.2984668,2.25348 0 0 0 0,4.50696 h 8.53713 a 2.2984668,2.25348 0 0 0 0,-4.50696 z m 0,3.21925 h -8.53713 a 0.98506101,0.96578088 0 1 1 0,-1.93155 h 8.53713 a 0.98506101,0.96578088 0 0 1 0,1.93155 z"
     fill="#f450a9"
     id="path44"
     style="stroke-width:0.691318" />
  <path
     d="m 416.34332,208.96956 h -8.53715 a 2.2984668,2.25348 0 0 0 0,4.50696 h 8.53715 a 2.2984668,2.25348 0 0 0 0,-4.50696 z m 0,3.21925 h -8.53715 a 0.98506101,0.96578088 0 1 1 0,-1.93155 h 8.53715 a 0.98506101,0.96578088 0 0 1 0,1.93155 z"
     fill="#f450a9"
     id="path46"
     style="stroke-width:0.691318" />
  <path
     d="m 221.20325,196.30126 c 0,0 -9.32977,38.62138 2.07329,38.62138 11.40305,0 38.35574,-43.70314 38.35574,-43.70314 0,0 27.98933,-14.22893 16.58628,-19.31069 -11.40306,-5.08176 -25.91605,8.13081 -25.91605,8.13081 l -16.74595,22.79442 -0.87699,-11.61454 z"
     fill="#a0616a"
     id="path48"
     style="stroke-width:0.691318" />
  <path
     d="m 242.97274,163.77799 -6.21986,-6.09811 c 0,0 -12.4397,7.11447 -13.47635,14.22893 -1.03666,7.11446 -6.21985,29.47421 -6.21985,29.47421 l 19.17787,1.52453 6.21985,-9.14718 z"
     fill="#cfcce0"
     id="path50"
     style="stroke-width:0.691318" />
  <path
     d="m 537.6191,149.32009 c -0.78095,-2.26081 -10.57424,-9.94592 -4.57316,-11.23764 l 4.92126,6.4335 22.62578,-22.18252 2.27558,2.23105 z"
     fill="#f450a9"
     id="path52"
     style="stroke-width:0.691318" />
  <path
     d="m 537.6191,224.74996 c -0.78095,-2.26082 -10.57424,-9.94593 -4.57316,-11.23765 l 4.92126,6.4335 22.62578,-22.18251 2.27558,2.23104 z"
     fill="#f450a9"
     id="path54"
     style="stroke-width:0.691318" />
  <path
     d="m 537.6191,301.25739 c -0.78095,-2.26082 -10.57424,-9.94592 -4.57316,-11.23765 l 4.92126,6.43351 22.62578,-22.18252 2.27558,2.23103 z"
     fill="#f450a9"
     id="path56"
     style="stroke-width:0.691318" />
  <ellipse
     cx="606.15198"
     cy="140.14786"
     fill="#3f3d56"
     id="circle58"
     style="stroke-width:0.691318"
     rx="6.9818416"
     ry="6.8451891" />
  <rect
     x="632.33368"
     y="139.46329"
     width="112.40765"
     height="1.3690379"
     fill="#3f3d56"
     id="rect60"
     style="stroke-width:0.691318" />
  <ellipse
     cx="606.15198"
     cy="215.57771"
     fill="#3f3d56"
     id="circle62"
     style="stroke-width:0.691318"
     rx="6.9818416"
     ry="6.8451891" />
  <rect
     x="632.33368"
     y="214.89305"
     width="112.40765"
     height="1.3690379"
     fill="#3f3d56"
     id="rect64"
     style="stroke-width:0.691318" />
  <ellipse
     cx="606.15198"
     cy="292.08514"
     fill="#3f3d56"
     id="circle66"
     style="stroke-width:0.691318"
     rx="6.9818416"
     ry="6.8451891" />
  <rect
     x="632.33368"
     y="291.40042"
     width="112.40765"
     height="1.3690379"
     fill="#3f3d56"
     id="rect68"
     style="stroke-width:0.691318" />
  <polygon
     points="600.04,312.485 550.04,312.485 550.04,261.485 584.04,261.485 584.04,263.485 552.04,263.485 552.04,310.485 598.04,310.485 598.04,287.485 600.04,287.485 "
     fill="#3f3d56"
     id="polygon70"
     transform="matrix(0.69818415,0,0,0.68451892,136.31493,97.554859)" />
  <polygon
     points="600.04,200.485 550.04,200.485 550.04,149.485 584.04,149.485 584.04,151.485 552.04,151.485 552.04,198.485 598.04,198.485 598.04,175.485 600.04,175.485 "
     fill="#3f3d56"
     id="polygon72"
     transform="matrix(0.69818415,0,0,0.68451892,136.31493,97.554859)" />
  <polygon
     points="600.04,86.485 550.04,86.485 550.04,35.485 584.04,35.485 584.04,37.485 552.04,37.485 552.04,84.485 598.04,84.485 598.04,61.485 600.04,61.485 "
     fill="#3f3d56"
     id="polygon74"
     transform="matrix(0.69818415,0,0,0.68451892,136.31493,97.554859)" />
</svg>
