<?xml version="1.0" encoding="UTF-8" standalone="no"?>
<svg
   id="cbb92aef-a4c8-4910-9d60-405154a20c92"
   data-name="Layer 1"
   width="1116.21"
   height="857.08"
   viewBox="0 0 1116.21 857.08"
   version="1.1"
   sodipodi:docname="cart.svg"
   inkscape:version="1.1.1 (3bf5ae0d25, 2021-09-20)"
   xmlns:inkscape="http://www.inkscape.org/namespaces/inkscape"
   xmlns:sodipodi="http://sodipodi.sourceforge.net/DTD/sodipodi-0.dtd"
   xmlns:xlink="http://www.w3.org/1999/xlink"
   xmlns="http://www.w3.org/2000/svg"
   xmlns:svg="http://www.w3.org/2000/svg">
  <sodipodi:namedview
     id="namedview242"
     pagecolor="#ffffff"
     bordercolor="#666666"
     borderopacity="1.0"
     inkscape:pageshadow="2"
     inkscape:pageopacity="0.0"
     inkscape:pagecheckerboard="0"
     showgrid="false"
     inkscape:zoom="0.44336584"
     inkscape:cx="835.65302"
     inkscape:cy="30.448895"
     inkscape:window-width="1366"
     inkscape:window-height="704"
     inkscape:window-x="0"
     inkscape:window-y="0"
     inkscape:window-maximized="1"
     inkscape:current-layer="cbb92aef-a4c8-4910-9d60-405154a20c92" />
  <defs
     id="defs10">
    <linearGradient
       id="6af09e6e-7617-4e7d-96c6-87d8d61cc5fb"
       x1="654.32"
       y1="613.24"
       x2="654.32"
       y2="117"
       gradientUnits="userSpaceOnUse">
      <stop
         offset="0"
         stop-color="gray"
         stop-opacity="0.25"
         id="stop2" />
      <stop
         offset="0.54"
         stop-color="gray"
         stop-opacity="0.12"
         id="stop4" />
      <stop
         offset="1"
         stop-color="gray"
         stop-opacity="0.1"
         id="stop6" />
    </linearGradient>
    <linearGradient
       id="f366e0cb-9767-4f71-a21d-568f9afb6f3a"
       x1="475.65"
       y1="861.71"
       x2="475.65"
       y2="223.28"
       xlink:href="#6af09e6e-7617-4e7d-96c6-87d8d61cc5fb" />
    <linearGradient
       inkscape:collect="always"
       xlink:href="#6af09e6e-7617-4e7d-96c6-87d8d61cc5fb"
       id="linearGradient1059"
       gradientUnits="userSpaceOnUse"
       x1="654.32"
       y1="613.24"
       x2="654.32"
       y2="117" />
  </defs>
  <title
     id="title12">add to cart</title>
  <path
     d="m 1022.9804,564.26654 c -0.8754,0.64255 -1.6807,1.2675 -2.5385,1.87484 a 85.601716,86.07509 0 0 1 -9.9179,6.0822 c -18.01496,9.55021 -40.22291,14.21529 -61.85313,17.38402 -48.51259,7.11204 -98.04062,8.49396 -147.35855,9.84947 -133.25646,3.67926 -266.8368,7.3497 -399.76938,-1.12666 -52.52176,-3.34477 -106.199,-8.94286 -153.79247,-26.10683 q -10.23299,-3.67925 -20.06331,-8.11547 c -13.26175,-5.99419 -25.99827,-13.29108 -36.59016,-22.00509 -9.95287,-8.16829 -18.02372,-17.55125 -22.84697,-28.21932 -10.05791,-22.21633 -4.73571,-47.1701 6.74905,-68.94633 A 213.08078,214.25911 0 0 1 191.097,419.61392 c 8.86742,-12.26124 18.64522,-24.17039 27.56517,-36.42282 31.74065,-43.55246 52.45173,-98.6532 23.15334,-143.32352 -8.42099,-12.83337 -20.58853,-24.09997 -27.45137,-37.49667 -8.75363,-17.13756 -8.0796,-36.16755 -5.29594,-54.65182 q 0.54272,-3.52082 1.14672,-6.97122 c 4.75322,-27.40953 13.69943,-56.940353 41.2821,-74.051507 28.65062,-17.780109 69.33748,-16.882301 104.89471,-10.562441 55.29666,9.928694 106.30405,30.59587 157.85416,49.256178 51.5501,18.66032 105.4812,35.70986 162.13467,37.54068 50.02698,1.61957 108.37865,-10.50083 141.58116,-42.00331 32.24836,-30.595867 92.86723,-32.928406 136.55658,-14.444135 29.98992,12.683731 52.3642,35.533815 61.8006,61.235755 a 79.491685,79.931271 0 0 1 4.1055,15.94928 73.145305,73.549796 0 0 1 0.7353,15.04268 c -0.1313,2.48217 -0.3852,4.93794 -0.7353,7.3673 -7.3006,50.71732 -59.84859,90.72256 -91.79058,136.02663 -15.60771,22.12832 -26.62853,48.71046 -15.89658,72.57277 16.36928,36.36121 73.29411,49.29139 107.66956,76.34885 a 80.883511,81.330794 0 0 1 16.8945,17.42802 c 16.6757,24.08237 10.5219,56.60588 -14.3209,75.81192 z"
     fill="#f450a9"
     opacity="0.1"
     id="path14"
     style="stroke-width:0.87778" />
  <g
     id="d00831fc-a64a-413c-b5dd-d7bd6eafa01d"
     data-name="flowers"
     transform="matrix(0.87536268,0,0,0.8802034,69.570399,51.336813)">
    <path
       d="m 299.89,346.32 c 0,0 -46,-81.52 -115.32,-105 -29.09,-9.86 -54.48,-28.4 -71.84,-53.74 a 238,238 0 0 1 -21.2,-38.12"
       transform="translate(-41.9,-21.46)"
       fill="none"
       stroke="#535461"
       stroke-miterlimit="10"
       stroke-width="2"
       id="path16" />
    <path
       d="M 47.94,134.37 C 55.84,142 92.62,150 92.62,150 c 0,0 -9,-36.52 -16.92,-44.19 a 19.93,19.93 0 0 0 -27.76,28.6 z"
       transform="translate(-41.9,-21.46)"
       fill="#f450a9"
       id="path18" />
    <path
       d="m 68.75,200.46 c 10.79,2.14 46,-11.19 46,-11.19 0,0 -27.45,-25.76 -38.25,-27.9 a 19.93,19.93 0 0 0 -7.75,39.09 z"
       transform="translate(-41.9,-21.46)"
       fill="#f450a9"
       id="path20" />
    <path
       d="m 144.5,272 c 10.4,-3.6 34,-32.87 34,-32.87 0,0 -36.68,-8.39 -47.07,-4.79 a 19.93,19.93 0 1 0 13,37.66 z"
       transform="translate(-41.9,-21.46)"
       fill="#f450a9"
       id="path22" />
    <path
       d="m 214,313.19 c 10.86,-1.8 39.1,-26.65 39.1,-26.65 0,0 -34.73,-14.47 -45.59,-12.68 a 19.930937,19.930937 0 0 0 6.49,39.33 z"
       transform="translate(-41.9,-21.46)"
       fill="#f450a9"
       id="path24" />
    <path
       d="m 145.39,160.73 c 0,11 -19.9,42.93 -19.9,42.93 0,0 -19.94,-31.91 -19.95,-42.91 a 19.93,19.93 0 1 1 39.85,0 z"
       transform="translate(-41.9,-21.46)"
       fill="#f450a9"
       id="path26" />
    <path
       d="m 226.07,210 c -3.29,10.5 -31.84,35 -31.84,35 0,0 -9.48,-36.45 -6.23,-47 a 19.93,19.93 0 0 1 38,11.91 z"
       transform="translate(-41.9,-21.46)"
       fill="#f450a9"
       id="path28" />
    <path
       d="m 297.91,268.55 c -1.46,10.91 -25.46,39.88 -25.46,39.88 0,0 -15.5,-34.28 -14,-45.19 a 19.93,19.93 0 0 1 39.5,5.31 z"
       transform="translate(-41.9,-21.46)"
       fill="#f450a9"
       id="path30" />
    <path
       d="M 47.94,134.37 C 55.84,142 92.62,150 92.62,150 c 0,0 -9,-36.52 -16.92,-44.19 a 19.93,19.93 0 0 0 -27.76,28.6 z"
       transform="translate(-41.9,-21.46)"
       opacity="0.25"
       id="path32" />
    <path
       d="m 68.75,200.46 c 10.79,2.14 46,-11.19 46,-11.19 0,0 -27.45,-25.76 -38.25,-27.9 a 19.93,19.93 0 0 0 -7.75,39.09 z"
       transform="translate(-41.9,-21.46)"
       opacity="0.25"
       id="path34" />
    <path
       d="m 144.5,272 c 10.4,-3.6 34,-32.87 34,-32.87 0,0 -36.68,-8.39 -47.07,-4.79 a 19.93,19.93 0 1 0 13,37.66 z"
       transform="translate(-41.9,-21.46)"
       opacity="0.25"
       id="path36" />
    <path
       d="m 214,313.19 c 10.86,-1.8 39.1,-26.65 39.1,-26.65 0,0 -34.73,-14.47 -45.59,-12.68 a 19.930937,19.930937 0 0 0 6.49,39.33 z"
       transform="translate(-41.9,-21.46)"
       opacity="0.25"
       id="path38" />
    <path
       d="m 145.39,160.73 c 0,11 -19.9,42.93 -19.9,42.93 0,0 -19.94,-31.91 -19.95,-42.91 a 19.93,19.93 0 1 1 39.85,0 z"
       transform="translate(-41.9,-21.46)"
       opacity="0.25"
       id="path40" />
    <path
       d="m 226.07,210 c -3.29,10.5 -31.84,35 -31.84,35 0,0 -9.48,-36.45 -6.23,-47 a 19.93,19.93 0 0 1 38,11.91 z"
       transform="translate(-41.9,-21.46)"
       opacity="0.25"
       id="path42" />
    <path
       d="m 297.91,268.55 c -1.46,10.91 -25.46,39.88 -25.46,39.88 0,0 -15.5,-34.28 -14,-45.19 a 19.93,19.93 0 0 1 39.5,5.31 z"
       transform="translate(-41.9,-21.46)"
       opacity="0.25"
       id="path44" />
    <path
       d="m 297.24,344.7 c 0,0 -9,-93.18 -62.88,-142.74 -22.59,-20.8 -38.29,-48 -43.9,-78.24 a 238.15,238.15 0 0 1 -3.92,-43.45"
       transform="translate(-41.9,-21.46)"
       fill="none"
       stroke="#535461"
       stroke-miterlimit="10"
       stroke-width="2"
       id="path46" />
    <path
       d="m 152.79,48.84 c 4.12,10.21 34.53,32.36 34.53,32.36 0,0 6.55,-37.05 2.44,-47.26 a 19.943733,19.943733 0 0 0 -37,14.9 z"
       transform="translate(-41.9,-21.46)"
       fill="#f450a9"
       id="path48" />
    <path
       d="m 145,117.69 c 9,6.33 46.57,8.4 46.57,8.4 0,0 -14.57,-34.66 -23.57,-40.99 a 19.944348,19.944348 0 1 0 -23,32.59 z"
       transform="translate(-41.9,-21.46)"
       fill="#f450a9"
       id="path50" />
    <path
       d="m 185.31,213.77 c 11,0.93 44.44,-16.26 44.44,-16.26 0,0 -30.13,-22.53 -41.1,-23.45 a 19.93,19.93 0 1 0 -3.34,39.71 z"
       transform="translate(-41.9,-21.46)"
       fill="#f450a9"
       id="path52" />
    <path
       d="m 232.15,279.61 c 10.66,2.76 46.55,-8.52 46.55,-8.52 0,0 -25.89,-27.3 -36.54,-30.06 a 19.93,19.93 0 0 0 -10,38.58 z"
       transform="translate(-41.9,-21.46)"
       fill="#f450a9"
       id="path54" />
    <path
       d="m 231.2,112.43 c -4.45,10.06 -35.59,31.17 -35.59,31.17 0,0 -5.3,-37.24 -0.85,-47.31 a 19.93,19.93 0 1 1 36.44,16.14 z"
       transform="translate(-41.9,-21.46)"
       fill="#f450a9"
       id="path56" />
    <path
       d="m 285,190.11 c -7.26,8.27 -43.29,19.1 -43.29,19.1 0,0 6.08,-37.12 13.35,-45.39 A 19.922147,19.922147 0 1 1 285,190.11 Z"
       transform="translate(-41.9,-21.46)"
       fill="#f450a9"
       id="path58" />
    <path
       d="m 327,272.8 c -5.76,9.38 -39.44,26.14 -39.44,26.14 0,0 -0.28,-37.62 5.48,-47 a 19.944546,19.944546 0 0 1 34,20.86 z"
       transform="translate(-41.9,-21.46)"
       fill="#f450a9"
       id="path60" />
  </g>
  <ellipse
     cx="426.85843"
     cy="788.22546"
     rx="97.629196"
     ry="12.780554"
     fill="#f450a9"
     opacity="0.1"
     id="ellipse63"
     style="stroke-width:0.87778" />
  <g
     id="5cfdbbb0-8197-4f02-a5fd-2740d54b5dec"
     data-name="floor flowers"
     transform="matrix(0.87536268,0,0,0.8802034,69.570399,51.336813)">
    <ellipse
       cx="182.88"
       cy="836.06"
       rx="33.880001"
       ry="5.8000002"
       fill="#f450a9"
       opacity="0.1"
       id="ellipse65" />
    <path
       d="m 232.14,792.94 c 0,0 5.49,7.19 -2.54,18 -8.03,10.81 -14.65,20 -12,26.77 0,0 12.11,-20.15 22,-20.43 9.89,-0.28 3.4,-12.22 -7.46,-24.34 z"
       transform="translate(-41.9,-21.46)"
       fill="#f450a9"
       id="path67" />
    <path
       d="m 232.14,792.94 a 8.83,8.83 0 0 1 1.12,2.26 c 9.62,11.3 14.75,21.85 5.5,22.11 -8.61,0.25 -18.95,15.65 -21.42,19.54 a 9.24,9.24 0 0 0 0.29,0.89 c 0,0 12.11,-20.15 22,-20.43 9.89,-0.28 3.37,-12.25 -7.49,-24.37 z"
       transform="translate(-41.9,-21.46)"
       opacity="0.1"
       id="path69" />
    <path
       d="m 242.35,802.1 c 0,2.53 -0.28,4.58 -0.63,4.58 -0.35,0 -0.64,-2 -0.64,-4.58 0,-2.58 0.36,-1.34 0.71,-1.34 0.35,0 0.56,-1.19 0.56,1.34 z"
       transform="translate(-41.9,-21.46)"
       fill="#ffd037"
       id="path71" />
    <path
       d="m 245.86,805.12 c -2.22,1.21 -4.16,1.94 -4.33,1.63 -0.17,-0.31 1.5,-1.54 3.72,-2.75 2.22,-1.21 1.34,-0.33 1.51,0 0.17,0.33 1.32,-0.09 -0.9,1.12 z"
       transform="translate(-41.9,-21.46)"
       fill="#ffd037"
       id="path73" />
    <path
       d="m 203.12,792.94 c 0,0 -5.49,7.19 2.54,18 8.03,10.81 14.65,20 12,26.77 0,0 -12.11,-20.15 -22,-20.43 -9.89,-0.28 -3.38,-12.22 7.46,-24.34 z"
       transform="translate(-41.9,-21.46)"
       fill="#f450a9"
       id="path75" />
    <path
       d="M 203.12,792.94 A 8.83,8.83 0 0 0 202,795.2 c -9.62,11.3 -14.75,21.85 -5.5,22.11 8.62,0.25 18.95,15.65 21.42,19.54 a 7.11,7.11 0 0 1 -0.29,0.89 c 0,0 -12.11,-20.15 -22,-20.43 -9.89,-0.28 -3.35,-12.25 7.49,-24.37 z"
       transform="translate(-41.9,-21.46)"
       opacity="0.1"
       id="path77" />
    <path
       d="m 192.91,802.1 c 0,2.53 0.28,4.58 0.63,4.58 0.35,0 0.64,-2 0.64,-4.58 0,-2.58 -0.36,-1.34 -0.71,-1.34 -0.35,0 -0.56,-1.19 -0.56,1.34 z"
       transform="translate(-41.9,-21.46)"
       fill="#ffd037"
       id="path79" />
    <path
       d="m 189.41,805.12 c 2.22,1.21 4.15,1.94 4.32,1.63 0.17,-0.31 -1.5,-1.54 -3.72,-2.75 -2.22,-1.21 -1.34,-0.33 -1.51,0 -0.17,0.33 -1.31,-0.09 0.91,1.12 z"
       transform="translate(-41.9,-21.46)"
       fill="#ffd037"
       id="path81" />
    <path
       d="m 194.66,836.8 c 0,0 15.36,-0.48 20,-3.77 4.64,-3.29 23.62,-7.24 24.77,-1.95 1.15,5.29 23.08,26.29 5.74,26.43 -17.34,0.14 -40.29,-2.7 -44.91,-5.51 -4.62,-2.81 -5.6,-15.2 -5.6,-15.2 z"
       transform="translate(-41.9,-21.46)"
       fill="#a8a8a8"
       id="path83" />
    <path
       d="m 245.47,855.67 c -17.34,0.14 -40.29,-2.7 -44.91,-5.51 -3.52,-2.15 -4.92,-9.84 -5.39,-13.38 h -0.51 c 0,0 1,12.38 5.59,15.2 4.59,2.82 27.57,5.65 44.91,5.51 5,0 6.74,-1.82 6.64,-4.46 -0.69,1.62 -2.6,2.61 -6.33,2.64 z"
       transform="translate(-41.9,-21.46)"
       opacity="0.2"
       id="path85" />
    <path
       d="m 707.6,836.21 c 0,0 -42.28,-2.55 -37.29,27.08 0,0 -1,5.23 3.75,7.61 0,0 0.08,-2.19 4.34,-1.45 a 19.36,19.36 0 0 0 4.59,0.22 9.5,9.5 0 0 0 5.62,-2.32 v 0 c 0,0 11.88,-4.9 16.5,-24.33 0,0 3.42,-4.24 3.29,-5.33 l -7.14,3 c 0,0 2.44,5.15 0.52,9.43 0,0 -0.23,-9.24 -1.6,-9 -0.28,0 -3.71,1.78 -3.71,1.78 0,0 4.2,9 1,15.48 0,0 1.2,-11 -2.34,-14.83 l -5,2.93 c 0,0 4.9,9.26 1.58,16.82 0,0 0.85,-11.59 -2.63,-16.11 l -4.55,3.55 c 0,0 4.6,9.13 1.79,15.4 0,0 -0.36,-13.49 -2.78,-14.51 0,0 -4,3.51 -4.59,5 0,0 3.15,6.62 1.2,10.12 0,0 -1.2,-9 -2.19,-9 0,0 -4,6 -4.38,10 0,0 0.18,-6.07 3.42,-10.61 a 11.94,11.94 0 0 0 -6.07,3.15 c 0,0 0.62,-4.21 7,-4.58 0,0 3.28,-4.52 4.16,-4.79 0,0 -6.4,-0.54 -10.28,1.18 0,0 3.41,-4 11.45,-2.17 l 4.49,-3.66 c 0,0 -8.42,-1.16 -12,0.12 0,0 4.12,-3.52 13.21,-1 l 4.9,-2.92 c 0,0 -7.19,-1.55 -11.47,-1 0,0 4.52,-2.44 12.9,0.2 l 3.5,-1.57 c 0,0 -5.27,-1 -6.81,-1.19 -1.54,-0.19 -1.62,-0.59 -1.62,-0.59 a 18.26,18.26 0 0 1 9.89,1.1 c 0,0 7.48,-2.74 7.35,-3.21 z"
       transform="translate(-41.9,-21.46)"
       fill="#f450a9"
       id="path87" />
    <ellipse
       cx="636.58002"
       cy="852.02002"
       rx="29.92"
       ry="5.0599999"
       fill="#f450a9"
       opacity="0.1"
       id="ellipse89" />
    <path
       d="m 633.53,837.79 c 0,0 -23.84,-1.44 -21,15.27 a 4.08,4.08 0 0 0 2.12,4.29 c 0,0 0,-1.24 2.45,-0.82 a 11.67,11.67 0 0 0 2.58,0.13 5.47,5.47 0 0 0 3.17,-1.31 v 0 c 0,0 6.7,-2.77 9.31,-13.72 0,0 1.92,-2.39 1.85,-3 l -4,1.71 c 0,0 1.37,2.91 0.29,5.32 0,0 -0.13,-5.21 -0.9,-5.09 -0.16,0 -2.09,1 -2.09,1 0,0 2.36,5 0.58,8.73 0,0 0.67,-6.23 -1.32,-8.37 l -2.83,1.66 c 0,0 2.76,5.22 0.89,9.48 0,0 0.48,-6.54 -1.49,-9.08 l -2.56,2 c 0,0 2.59,5.15 1,8.68 0,0 -0.21,-7.61 -1.57,-8.18 a 15.64,15.64 0 0 0 -2.59,2.79 c 0,0 1.78,3.74 0.68,5.71 0,0 -0.68,-5.07 -1.23,-5.09 0,0 -2.24,3.36 -2.47,5.66 a 12.15,12.15 0 0 1 1.92,-6 6.72,6.72 0 0 0 -3.42,1.77 c 0,0 0.35,-2.38 4,-2.58 0,0 1.84,-2.55 2.34,-2.7 0,0 -3.61,-0.31 -5.8,0.66 0,0 1.93,-2.24 6.46,-1.22 l 2.53,-2.07 c 0,0 -4.75,-0.65 -6.76,0.07 0,0 2.32,-2 7.45,-0.54 l 2.75,-1.64 a 24.71,24.71 0 0 0 -6.46,-0.56 c 0,0 2.55,-1.37 7.27,0.11 l 2,-0.88 c 0,0 -3,-0.59 -3.83,-0.68 -0.83,-0.09 -0.92,-0.33 -0.92,-0.33 a 10.32,10.32 0 0 1 5.58,0.62 c 0,0 4.09,-1.53 4.02,-1.8 z"
       transform="translate(-41.9,-21.46)"
       fill="#f450a9"
       id="path91" />
    <ellipse
       cx="575.21002"
       cy="837.34998"
       rx="16.870001"
       ry="2.8499999"
       fill="#f450a9"
       opacity="0.1"
       id="ellipse93" />
    <path
       d="m 678.9,802.38 c 0,0 -28.77,-1.74 -25.38,18.43 a 4.92,4.92 0 0 0 2.56,5.18 c 0,0 0,-1.49 2.95,-1 a 14.19,14.19 0 0 0 3.12,0.15 6.59,6.59 0 0 0 3.83,-1.58 v 0 c 0,0 8.09,-3.34 11.23,-16.57 0,0 2.33,-2.88 2.24,-3.62 l -4.86,2.07 c 0,0 1.66,3.51 0.36,6.42 0,0 -0.16,-6.29 -1.1,-6.14 -0.18,0 -2.52,1.21 -2.52,1.21 0,0 2.86,6.11 0.7,10.54 0,0 0.82,-7.52 -1.59,-10.1 l -3.42,2 c 0,0 3.34,6.3 1.08,11.45 0,0 0.58,-7.89 -1.8,-11 l -3.1,2.41 c 0,0 3.14,6.21 1.23,10.48 0,0 -0.25,-9.18 -1.9,-9.88 0,0 -2.71,2.39 -3.12,3.37 0,0 2.15,4.51 0.81,6.89 0,0 -0.81,-6.11 -1.48,-6.14 0,0 -2.7,4 -3,6.83 a 14.71,14.71 0 0 1 2.32,-7.22 8.13,8.13 0 0 0 -4.13,2.14 c 0,0 0.42,-2.87 4.8,-3.12 0,0 2.23,-3.07 2.83,-3.26 0,0 -4.36,-0.36 -7,0.81 0,0 2.32,-2.71 7.8,-1.48 l 3.06,-2.49 c 0,0 -5.74,-0.79 -8.17,0.08 0,0 2.8,-2.39 9,-0.65 l 3.33,-2 c 0,0 -4.89,-1 -7.8,-0.67 0,0 3.07,-1.66 8.78,0.13 l 2.38,-1.06 c 0,0 -3.59,-0.71 -4.64,-0.82 -1.05,-0.11 -1.1,-0.4 -1.1,-0.4 a 12.43,12.43 0 0 1 6.73,0.75 c 0,0 5.07,-1.82 4.97,-2.14 z"
       transform="translate(-41.9,-21.46)"
       fill="#f450a9"
       id="path95" />
    <ellipse
       cx="617.19"
       cy="806.28998"
       rx="20.370001"
       ry="3.4400001"
       fill="#f450a9"
       opacity="0.1"
       id="ellipse97" />
  </g>
  <g
     id="1cf578eb-5ffb-4cd7-95b8-45aaaddab7e0"
     data-name="browser"
     transform="matrix(0.87536268,0,0,0.8802034,69.570399,51.336813)">
    <path
       d="M 1130,606.13 V 117 H 178.65 v 461.07 c 12.15,10.14 26.76,18.67 42,25.68 q 11.26,5.19 23,9.49 h 875 z"
       transform="translate(-41.9,-21.46)"
       fill="url(#6af09e6e-7617-4e7d-96c6-87d8d61cc5fb)"
       id="path100"
       style="fill:url(#linearGradient1059)" />
    <path
       d="M 1128.16,606.33 V 131 H 180.73 v 448.1 c 12.1,9.86 26.65,18.15 41.8,25 q 11.22,5 22.92,9.22 h 871.38 z"
       transform="translate(-41.9,-21.46)"
       fill="#ffffff"
       id="path102" />
    <rect
       x="138.84"
       y="96.93"
       width="947.41998"
       height="25.139999"
       fill="#5a5773"
       id="rect104" />
  </g>
  <g
     id="6703b009-63cb-4af0-a0d7-9948e224c180"
     data-name="buttons"
     transform="matrix(0.87536268,0,0,0.8802034,69.570399,51.336813)">
    <circle
       cx="157.75999"
       cy="109.5"
       r="6.5"
       fill="#ffffff"
       id="circle107" />
    <circle
       cx="175.25999"
       cy="109.5"
       r="6.5"
       fill="#ffffff"
       id="circle109" />
    <circle
       cx="192.75999"
       cy="109.5"
       r="6.5"
       fill="#ffffff"
       id="circle111" />
  </g>
  <g
     id="8c4e1fb4-b9ff-4530-b767-610e84618ea6"
     data-name="boxes"
     transform="matrix(0.87536268,0,0,0.8802034,69.570399,51.336813)">
    <rect
       x="380.95001"
       y="177.32001"
       width="156.5"
       height="98.339996"
       fill="#f450a9"
       id="rect114" />
    <rect
       x="164.25999"
       y="177.32001"
       width="156.5"
       height="98.339996"
       fill="#5a5773"
       opacity="0.2"
       id="rect116" />
    <rect
       x="597.64001"
       y="177.32001"
       width="156.5"
       height="98.339996"
       fill="#5a5773"
       opacity="0.2"
       id="rect118" />
    <rect
       x="164.25999"
       y="317.91"
       width="156.5"
       height="98.339996"
       fill="#5a5773"
       opacity="0.2"
       id="rect120" />
    <rect
       x="380.95001"
       y="317.91"
       width="156.5"
       height="98.339996"
       fill="#5a5773"
       opacity="0.2"
       id="rect122" />
    <rect
       x="597.64001"
       y="317.91"
       width="156.5"
       height="98.339996"
       fill="#5a5773"
       opacity="0.2"
       id="rect124" />
    <rect
       x="164.25999"
       y="458.48999"
       width="156.5"
       height="98.339996"
       fill="#5a5773"
       opacity="0.2"
       id="rect126" />
    <rect
       x="380.95001"
       y="458.48999"
       width="156.5"
       height="98.339996"
       fill="#5a5773"
       opacity="0.2"
       id="rect128" />
    <rect
       x="597.64001"
       y="458.48999"
       width="156.5"
       height="98.339996"
       fill="#5a5773"
       opacity="0.2"
       id="rect130" />
  </g>
  <g
     id="2796dd85-6618-42ad-b8a0-d6b4cc80ab2d"
     data-name="woman"
     transform="matrix(0.87536268,0,0,0.8802034,69.570399,51.336813)">
    <path
       d="m 551.37,445.2 c 0,0 -28.11,-51.38 -23.37,-59.74 4.74,-8.36 8.23,-20.46 8.23,-20.46 0,0 10.38,-7.1 10.38,-10 0,-2.9 8.22,-9.61 12.55,-12.53 4.33,-2.92 2.16,-16.71 0,-18.38 -2.16,-1.67 -5.59,-7.52 -5.59,-7.52 0,0 3,-8.35 0,-10.86 -3,-2.51 0.44,-5 0,-7.52 -0.44,-2.52 0,-11.69 0,-11.69 -3.51,-4.88 -7.4,-7.16 -11.06,-8 l -0.32,-1.32 -1.85,-7.79 c 0,0 9,-17.25 -5.6,-26.28 a 24.4,24.4 0 0 0 -3.23,-1.7 c 0,0 0,-0.42 -0.08,-1.13 -0.2,-2.58 -0.81,-9 -2.12,-13.21 -0.76,-2.42 -1.75,-4.05 -3,-3.68 a 2,2 0 0 0 -0.82,0.47 9.12,9.12 0 0 0 -1.55,1.83 c 0,0 0,0 0,0 a 0.41,0.41 0 0 1 -0.07,0.11 31.36,31.36 0 0 0 -3.44,9.55 55.16,55.16 0 0 0 -1,6 33,33 0 0 0 -1.67,3.71 c -1.77,4.59 -3.84,12.54 -0.07,18.42 3.2,5 7.51,11.87 10.64,16.87 l 0.1,0.16 0.19,0.31 -0.33,0.21 v 0.77 l 0.29,4.21 2.42,36.38 a 15.45,15.45 0 0 0 -2.22,-0.47 20.17,20.17 0 0 0 -3.23,-0.21 c -2.11,-8.29 -7.9,-16 -9,-24.66 a 22.87,22.87 0 0 1 -0.17,-2.61 c 0.09,-5.45 1.45,-10.92 1.34,-16.36 0,-1 0,-2 -0.1,-3 v 0 c 0,-0.27 -0.05,-0.55 -0.08,-0.83 a 24.59,24.59 0 0 0 -13.37,-18.63 c -2.51,-1.25 -5.23,-2.08 -7.67,-3.45 -5.64,-3.16 -9.25,-8.86 -14.37,-12.77 -3.81,-2.91 -9.5,-4.47 -13.75,-3 a 63.49,63.49 0 0 0 -6.69,1.38 v 0 a 60.35,60.35 0 0 0 -15.31,6.36 c -0.65,0.39 -1.3,0.79 -1.92,1.25 a 8.46,8.46 0 0 0 -3.09,3.61 9.46,9.46 0 0 0 -0.48,3.89 c 0,0.95 0,1.92 0.06,2.87 -0.28,16 -17.52,28.38 -18.94,44 0,0.37 -0.06,0.74 -0.08,1.11 0,0.11 0,0.22 0,0.34 0,0.45 0,0.91 0,1.37 v 0 c 0,0.21 0,0.41 0,0.62 0,0.21 0,0.42 0,0.63 0.25,6.85 3.81,13.23 4.46,20.05 0.06,0.61 0.09,1.21 0.1,1.82 a 30.24,30.24 0 0 1 -1.77,9.18 26.87,26.87 0 0 0 -6.21,2.52 c -5.24,3.37 -14.7,9.19 -18.15,20.32 a 29.76,29.76 0 0 0 -1.31,8.92 186.26,186.26 0 0 1 -2.92,31.85 59.53,59.53 0 0 1 -1.84,7.83 1.84,1.84 0 0 0 -0.06,0.77 l -2.08,27 -0.37,4.75 -0.52,6.76 c 0,0 0.15,0.41 0.37,1.1 a 31.8,31.8 0 0 1 0.82,3.12 16.78,16.78 0 0 1 0.27,7 4.82,4.82 0 0 1 -1.46,2.57 1.08,1.08 0 0 0 -0.17,0.19 c -0.59,0.83 -1.12,3.3 -1.58,6.88 -0.18,1.4 -0.35,3 -0.52,4.66 -1,10.65 -1.62,26.59 -2,39.77 -0.36,13 -0.49,23.27 -0.49,23.27 a 26.54,26.54 0 0 0 5.37,2.66 c -0.14,0.35 -0.29,0.71 -0.43,1.09 a 52.53,52.53 0 0 0 -3.26,13.74 c -0.84,9.83 1.91,20.75 15.62,26.37 a 22.06,22.06 0 0 0 2.69,0.92 c 3,0.8 5.21,0.58 6.84,-0.42 0,0.59 0.07,1.16 0.1,1.73 0.14,2.44 0.26,4.67 0.32,6.54 0.43,11.7 3.33,32.16 3.33,32.16 0,0 1,8.36 0.13,10.86 -0.87,2.5 0,12.53 0,12.53 0,0 3,5 0,7.52 -3,2.52 -3.89,15 -3,16.71 a 0.56,0.56 0 0 1 0.05,0.19 c 0.66,4.15 -3.07,65.81 -3.07,65.81 0,0 -3.53,9.44 -6.34,19.24 -2.74,9.54 -4.8,19.42 -2.26,21.27 1.26,0.92 4.19,1.61 7.91,2.14 0,0.41 -0.06,0.82 -0.1,1.24 -0.36,4.41 -0.93,9.16 -1.75,10.36 -1.19,1.7 -2.44,14.88 -3.05,22 l -0.06,0.79 a 73.7,73.7 0 0 0 -3.22,9.34 c 0,0 -9.57,24 -6.33,30.23 a 5.11,5.11 0 0 0 1.19,1.47 v 0 a 2.7,2.7 0 0 0 0.31,0.28 c 4.61,3.69 16.16,4.46 20.35,4.63 l -0.16,5.94 v 0.22 h 5.45 v -0.15 c 0,-0.75 0.12,-4.19 0.3,-8.79 0,-0.82 0.06,-1.68 0.1,-2.56 0,-0.69 0.07,-1.39 0.1,-2.11 a 37,37 0 0 0 2.37,-13.35 58.58,58.58 0 0 1 2.1,-15.48 43,43 0 0 1 2.77,-7.55 c 0,0 1.7,-9 -0.67,-15.37 a 11.1,11.1 0 0 0 -2,-3.46 c 0,-0.21 0,-0.42 0,-0.64 0,-0.22 0,-0.48 0,-0.73 0,-0.25 0,-0.41 0,-0.63 a 57.69,57.69 0 0 1 1.28,-12.82 1.42,1.42 0 0 1 0,-0.2 c 0.08,-0.35 0.17,-0.68 0.26,-1 l 0.06,-0.22 1.77,0.06 c 5.43,0.15 9.42,0.15 9.42,0.15 0,0 4.33,-22.14 3.9,-31.74 0,-0.42 0,-0.86 0,-1.3 -0.15,-9.54 2.62,-22.51 2.62,-22.51 L 451,687.47 c 0,0 -1.73,-5.86 0,-10 1.07,-2.58 3.28,-7.37 4.82,-10.67 0.72,-1.53 1.29,-2.73 1.53,-3.25 l 0.14,-0.28 a 6.47,6.47 0 0 1 -1.54,-0.77 v 0 c -1.41,-0.94 -2.67,-2.78 1.55,-5.49 6.49,-4.18 4.33,-14.62 4.33,-14.62 0,0 -1.91,-3.76 0.34,-7.1 2.25,-3.34 0,-15.87 0,-15.87 a 52.47,52.47 0 0 0 4.44,-10.45 c 1.61,-5 5.68,-29.45 7.6,-41.24 0.63,-3.87 1,-6.37 1,-6.37 l 0.06,0.61 0.06,0.66 v 0 l 0.54,5.57 0.07,0.74 1,10.53 c 0,0 2,27.68 0.75,38.53 0,0.07 0,0.14 0,0.2 a 12.82,12.82 0 0 1 -0.73,3.29 c -2.3,5.2 -1.88,25.86 -1.76,30.43 0,0.37 0,0.67 0,0.92 0,0.25 -1.63,4.08 -1.22,7.06 v 0 a 4.53,4.53 0 0 0 0.79,2.1 5.32,5.32 0 0 1 0.77,3.25 v 0.1 a 11.81,11.81 0 0 1 -0.12,1.44 27.46,27.46 0 0 1 -1.52,5.66 c 0,0 -2.32,6.1 -1.44,9.29 0,0 0,0 0,0 a 2.94,2.94 0 0 0 0.57,1.13 2.67,2.67 0 0 1 0.33,1.2 0.43,0.43 0 0 0 0,0.11 c 0.81,6.73 -1.28,36.44 -2.52,52.7 -0.5,6.42 -0.86,10.74 -0.86,10.74 l -3.43,35.5 0.34,0.24 c 0.39,0.28 1.12,0.76 2.1,1.34 0,0 0,0 0,0.08 l -0.15,1.07 c -0.49,3.42 -1.15,7.4 -1.87,10.44 -0.06,0.23 -0.11,0.45 -0.17,0.66 a 9.57,9.57 0 0 0 -3.67,1.47 c -7.28,12.93 -4.06,23.18 0,26.16 1.15,0.84 1.93,3.19 2.45,6.11 l 1,12.89 c 0,0.52 0,1 0,1.48 a 3.84,3.84 0 0 0 0.19,1.18 l 0.31,3.91 0.42,5.44 h 3.32 V 849 H 471 c 5.24,0.18 13.69,0.4 17.37,0.11 h 0.1 c 0.39,0 0.72,-0.07 1,-0.11 a 2.51,2.51 0 0 0 0.58,-0.16 c 1.95,-0.94 6.81,-14.72 2.43,-17.85 -4.38,-3.13 -5.35,-12 -5.35,-12 -0.38,-1.16 -0.76,-2.26 -1.15,-3.31 0,-0.23 0,-0.45 0,-0.68 -0.12,-4.29 -0.07,-8.94 0.52,-11.46 0.66,-2.77 1,-8.59 1.14,-13.69 0,-0.39 0,-0.77 0,-1.15 v -0.12 a 17.07,17.07 0 0 0 2.23,-0.73 l 0.16,-0.07 a 15.71,15.71 0 0 0 3.73,-2.21 l 12.24,-54.24 1.29,-6.31 7.35,-35.89 c 0,0 -2.59,-12.53 0,-14.61 0.95,-0.76 1.21,-4 1.15,-7.75 -0.1,-6.56 -1.15,-14.81 -1.15,-14.81 0,0 3.46,-5.43 5.2,-8.77 1.74,-3.34 0,-12.11 0,-12.11 L 523.25,611 c 0,0 3.9,-23.81 13.41,-43.86 7,-14.75 2.54,-54.58 -2,-75.78 -0.12,-0.55 -0.24,-1.09 -0.36,-1.61 v -0.08 c 2.14,-1.06 4.76,-2.34 7.56,-3.68 l 1.06,-0.5 c 3.55,-1.67 7.31,-3.39 10.68,-4.82 l 0.22,-0.09 a 74.58,74.58 0 0 1 7.43,-2.78 12.47,12.47 0 0 1 2.28,-0.47 c 6.01,-0.39 -12.16,-32.13 -12.16,-32.13 z m -135.31,67.95 h 1.8 c -0.21,0.39 -0.41,0.79 -0.61,1.19 -0.12,0.24 -0.24,0.47 -0.35,0.71 -0.66,1.37 -1.27,2.77 -1.77,4.14 0.2,-1.48 0.45,-3.09 0.73,-4.81 0.07,-0.38 0.14,-0.83 0.2,-1.23 z m -4.86,26.07 a 0.74,0.74 0 0 0 0,-0.14 l -0.15,-0.47 c -0.11,-0.32 -0.21,-0.64 -0.31,-1 q 0.93,-0.28 1.89,-0.63 h 0.13 c 0,0.11 0,0.22 0,0.33 -0.05,0.47 -0.11,0.94 -0.17,1.4 v 0 a 1,1 0 0 1 0,0.18 c 0,0.38 -0.09,0.74 -0.13,1.1 -0.09,0.72 -0.18,1.42 -0.26,2.09 -0.19,-0.63 -0.38,-1.25 -0.58,-1.86 -0.2,-0.33 -0.31,-0.67 -0.42,-1 z"
       transform="translate(-41.9,-21.46)"
       fill="url(#f366e0cb-9767-4f71-a21d-568f9afb6f3a)"
       id="path133"
       style="fill:url(#f366e0cb-9767-4f71-a21d-568f9afb6f3a)" />
    <path
       d="m 541,284.92 -10.8,3.82 -3.92,-6.5 c -3,-5 -7.16,-11.84 -10.23,-16.81 -5.42,-8.74 1.67,-22.06 1.67,-22.06 0,0 1.28,-13.37 5.84,-17.49 4.56,-4.12 5.83,17.49 5.83,17.49 18.31,8.32 8.5,27.89 8.5,27.89 l 1.78,7.76 z"
       transform="translate(-41.9,-21.46)"
       fill="#efb7b9"
       id="path135" />
    <path
       d="m 541,284.92 -10.8,3.82 -3.92,-6.5 v -0.57 c 0,0 6.19,-4.25 13.41,-2.65 z"
       transform="translate(-41.9,-21.46)"
       opacity="0.1"
       id="path137" />
    <path
       d="m 523.56,328.72 5.41,-4.58 -2.71,-41.22 c 0,0 14,-9.58 24.36,5.41 0,0 -0.42,9.16 0,11.66 0.42,2.5 -2.91,5 0,7.49 2.91,2.49 0,10.83 0,10.83 0,0 3.29,5.83 5.37,7.49 2.08,1.66 4.17,15.41 0,18.32 -4.17,2.91 -11.99,9.58 -11.99,12.49 0,2.91 -10,10 -10,10 L 525.22,355 Z"
       transform="translate(-41.9,-21.46)"
       fill="#ff6484"
       id="path139" />
    <path
       d="m 406.56,578.94 c -20.18,-8.56 -15.7,-29.47 -11.9,-40 a 54.46,54.46 0 0 1 2.67,-6.24 l 11.32,-6.87 c 0,0 2.31,5.89 4.78,13.79 5.73,18.38 12.32,47.47 -6.87,39.32 z"
       transform="translate(-41.9,-21.46)"
       fill="#efb7b9"
       id="path141" />
    <path
       d="m 434.3,769.73 a 34,34 0 0 0 -3,8.42 60.81,60.81 0 0 0 -1.3,14.33 c 0.08,3.33 0.36,5.51 0.36,5.51 l -22.48,15.46 c 0,0 0.13,-1.81 0.35,-4.47 0.58,-7.08 1.79,-20.22 2.93,-21.92 0.79,-1.18 1.34,-5.92 1.69,-10.32 0.35,-4.4 0.49,-8.26 0.49,-8.26 0,0 27.05,-10.14 20.96,1.25 z"
       transform="translate(-41.9,-21.46)"
       fill="#efb7b9"
       id="path143" />
    <path
       d="m 487.39,780.82 c 0,0 0,4.3 -0.16,9.3 -0.16,5 -0.46,10.9 -1.09,13.65 -0.58,2.52 -0.62,7.15 -0.51,11.42 0.15,5 0.51,9.5 0.51,9.5 0,0 -22.95,-21.7 -20.61,-23.42 0.63,-0.46 1.25,-2.31 1.82,-4.77 0.7,-3 1.33,-7 1.8,-10.4 0.56,-4.05 0.91,-7.31 0.91,-7.31 z"
       transform="translate(-41.9,-21.46)"
       fill="#efb7b9"
       id="path145" />
    <path
       d="m 434.3,769.73 a 34,34 0 0 0 -3,8.42 183.72,183.72 0 0 1 -18.4,-1.41 c 0.34,-4.3 0.49,-8.26 0.49,-8.26 0,0 27,-10.14 20.91,1.25 z"
       transform="translate(-41.9,-21.46)"
       opacity="0.1"
       id="path147" />
    <path
       d="m 487.39,780.82 c 0,0 0,4.3 -0.16,9.3 -7.16,1.83 -14.52,-1.83 -18.08,-4 0.56,-4.05 0.91,-7.31 0.91,-7.31 z"
       transform="translate(-41.9,-21.46)"
       opacity="0.1"
       id="path149" />
    <path
       d="m 534.38,568.12 c -9.16,20 -12.91,43.72 -12.91,43.72 l -3.33,20 c 0,0 1.67,8.74 0,12.07 -1.67,3.33 -5,8.75 -5,8.75 0,0 2.5,20.4 0,22.48 -2.5,2.08 0,14.57 0,14.57 l -8.33,42 -11.66,54.12 c -11.24,9.17 -26.2,-2.49 -26.2,-2.49 l 3.3,-35.39 c 0,0 5,-62 2.92,-64.54 C 471.09,680.87 474,673 474,673 c 0,0 2.92,-7.5 0.84,-10.41 -2.08,-2.91 0.41,-9.16 0.41,-9.16 0,0 -0.83,-25.4 1.67,-31.23 2.5,-5.83 0,-41.89 0,-41.89 l -1,-11.23 -0.58,-6.22 -0.05,-0.61 c 0,0 -0.38,2.49 -1,6.35 -1.84,11.75 -5.76,36.1 -7.31,41.11 a 53.53,53.53 0 0 1 -4.27,10.41 c 0,0 2.16,12.49 0,15.82 -2.16,3.33 -0.33,7.08 -0.33,7.08 0,0 2.08,10.41 -4.17,14.57 -6.25,4.16 0,6.25 0,6.25 0,0 -4.58,10 -6.24,14.15 -1.66,4.15 0,10 0,10 l -3.33,33.72 c 0,0 -2.92,14.15 -2.5,23.73 0.42,9.58 -3.75,31.64 -3.75,31.64 0,0 -32.06,0 -37,-3.75 -4.94,-3.75 8.25,-40.33 8.25,-40.33 0,0 3.75,-64.12 2.91,-65.78 -0.84,-1.66 0,-14.16 2.92,-16.65 2.92,-2.49 0,-7.5 0,-7.5 0,0 -0.83,-10 0,-12.49 0.83,-2.49 -0.13,-10.83 -0.13,-10.83 0,0 -2.79,-20.4 -3.2,-32.06 -0.41,-11.66 -2.5,-37.88 -2.5,-37.88 0,0 2.18,-16.22 2.51,-23.94 0.12,-2.84 1.39,-6.39 3,-9.73 a 86.81,86.81 0 0 1 6.2,-10.88 c 0,0 98.65,-29.16 102.79,-26.26 1.1,0.77 2.7,6 4.28,13.57 4.4,21.15 8.7,60.85 1.96,75.55 z"
       transform="translate(-41.9,-21.46)"
       fill="#444053"
       id="path151" />
    <circle
       cx="431.70001"
       cy="263.45999"
       r="28.73"
       fill="#a1616a"
       id="circle153" />
    <path
       d="m 532.42,492.59 c -3.31,1.7 -5.53,2.87 -5.53,2.87 0,0 -46.63,22.07 -59.89,20.82 -10.26,-1 -36.45,-0.43 -47.86,-0.15 a 86.81,86.81 0 0 1 6.2,-10.88 c 0,0 98.66,-29.15 102.8,-26.25 1.1,0.79 2.7,6 4.28,13.59 z"
       transform="translate(-41.9,-21.46)"
       opacity="0.1"
       id="path155" />
    <path
       d="m 453.61,330.8 c 0,0 -26.61,4.2 -32.89,8.32 -6.28,4.12 -18.72,12.08 -18.72,29.15 0,17.07 -2.91,34.56 -4.58,39.55 -1.67,4.99 26.23,45.38 26.23,45.38 l -10,61.21 c 0,0 40,-1.25 53.32,0 13.32,1.25 59.93,-20.82 59.93,-20.82 0,0 27.48,-14.57 33.31,-15 5.83,-0.43 -11.66,-32.06 -11.66,-32.06 0,0 -27.07,-51.2 -22.49,-59.53 4.58,-8.33 7.94,-20.4 7.94,-20.4 l -5,-42.46 c 0,0 -7.49,-2.5 -13.74,2.08 -6.25,4.58 -27.48,2.08 -27.48,2.08 z"
       transform="translate(-41.9,-21.46)"
       fill="#ff6484"
       id="path157" />
    <path
       d="M 408.44,404.91 398,407.82 395.11,447 c 0,0 3.75,10.41 0,13.74 -3.75,3.33 -4.58,74.53 -4.58,74.53 0,0 12.08,8.74 26.23,2.08 0,0 -2.08,-7.91 4.17,-36.64 6.25,-28.73 6.24,-43.3 6.24,-43.3 0,0 0,-35.81 2.92,-41.64 2.92,-5.83 0,-20.4 0,-20.4 0,0 -5.83,-7.91 -5.42,-10.82 0.41,-2.91 -16.23,20.36 -16.23,20.36 z"
       transform="translate(-41.9,-21.46)"
       opacity="0.1"
       id="path159" />
    <path
       d="m 413.43,539.65 a 26.59,26.59 0 0 1 -18.77,-0.68 54.46,54.46 0 0 1 2.67,-6.24 l 11.32,-6.87 c 0,0 2.35,5.89 4.78,13.79 z"
       transform="translate(-41.9,-21.46)"
       opacity="0.1"
       id="path161" />
    <path
       d="m 407.81,404.91 -10.41,2.91 -2.91,39.18 c 0,0 3.75,10.41 0,13.74 -3.75,3.33 -4.58,74.53 -4.58,74.53 0,0 12.09,8.73 26.23,2.04 0,0 -2.08,-7.91 4.16,-36.64 6.24,-28.73 6.25,-43.3 6.25,-43.3 0,0 0,-35.81 2.91,-41.64 2.91,-5.83 0,-20.4 0,-20.4 0,0 -5.83,-7.91 -5.41,-10.82 0.42,-2.91 -16.24,20.4 -16.24,20.4 z"
       transform="translate(-41.9,-21.46)"
       fill="#ff6484"
       id="path163" />
    <path
       d="m 514.4,411.15 c 0,0 -5.41,46.63 -21.24,55.38 0,0 35.39,-9.99 21.24,-55.38 z"
       transform="translate(-41.9,-21.46)"
       opacity="0.1"
       id="path165" />
    <path
       d="m 434.88,415.32 c 0,0 19.56,9.57 15,16.23 -4.56,6.66 -15,-16.23 -15,-16.23 z"
       transform="translate(-41.9,-21.46)"
       opacity="0.1"
       id="path167" />
    <path
       d="m 434.88,434.47 c 0,0 12.49,12.91 10,17.49 -2.49,4.58 -10,-17.49 -10,-17.49 z"
       transform="translate(-41.9,-21.46)"
       opacity="0.1"
       id="path169" />
    <path
       d="m 535.63,327.47 c 0,0 4.9,8.32 5.37,13.74 0.47,5.42 -5.37,-13.74 -5.37,-13.74 z"
       transform="translate(-41.9,-21.46)"
       opacity="0.1"
       id="path171" />
    <path
       d="m 535.63,316.23 c 0,0 2.46,-2.09 8.74,0 6.28,2.09 -8.74,0 -8.74,0 z"
       transform="translate(-41.9,-21.46)"
       opacity="0.1"
       id="path173" />
    <path
       d="m 511.59,559.58 a 57.9,57.9 0 0 1 -30.45,-3.9 l -5.25,13.44 -0.58,-6.22 c 0.86,-5.22 2.53,-10.81 5.83,-12.22 0,0 11.56,9.21 30.45,8.9 z"
       transform="translate(-41.9,-21.46)"
       opacity="0.1"
       id="path175" />
    <path
       d="m 426.18,577.07 c 0,0 25.61,5.31 32.79,4.37 z"
       transform="translate(-41.9,-21.46)"
       opacity="0.1"
       id="path177" />
    <path
       d="m 428.84,583.78 c 0,0 10.93,-0.47 16.39,1.72 z"
       transform="translate(-41.9,-21.46)"
       opacity="0.1"
       id="path179" />
    <path
       d="m 430.09,588.31 a 98,98 0 0 0 15.14,2 z"
       transform="translate(-41.9,-21.46)"
       opacity="0.1"
       id="path181" />
    <path
       d="m 429.46,645.61 c 0.47,-0.31 21.86,-5.31 24.52,-1.72 z"
       transform="translate(-41.9,-21.46)"
       opacity="0.1"
       id="path183" />
    <path
       d="m 429.46,652.17 c 0,0 18.58,-2.19 19.05,0 0.47,2.19 -19.05,0 -19.05,0 z"
       transform="translate(-41.9,-21.46)"
       opacity="0.1"
       id="path185" />
    <path
       d="m 429.46,658.1 c 0,0 19.83,-4.1 22.17,-3.1 2.34,1 -22.17,3.1 -22.17,3.1 z"
       transform="translate(-41.9,-21.46)"
       opacity="0.1"
       id="path187" />
    <path
       d="m 430.4,798 -22.48,15.46 c 0,0 0.13,-1.81 0.35,-4.47 5,-12.3 11.51,-18.79 11.51,-18.79 5.07,-1.32 8.27,-0.1 10.26,2.29 0.08,3.32 0.36,5.51 0.36,5.51 z"
       transform="translate(-41.9,-21.46)"
       opacity="0.1"
       id="path189" />
    <path
       d="m 432.59,811.89 a 55.79,55.79 0 0 0 -4.69,23 35.67,35.67 0 0 1 -4.76,18.51 18.24,18.24 0 0 1 -1.58,2.26 c 0,0 -15.62,-0.13 -21.09,-4.66 A 5.41,5.41 0 0 1 399,849.2 c -3.13,-6.24 6.09,-30.13 6.09,-30.13 4.84,-18.42 14.67,-28.26 14.67,-28.26 17.51,-4.53 12.83,21.08 12.83,21.08 z"
       transform="translate(-41.9,-21.46)"
       fill="#444053"
       id="path191" />
    <path
       d="m 423.14,853.35 a 18.24,18.24 0 0 1 -1.58,2.26 c 0,0 -15.62,-0.13 -21.09,-4.66 2.69,-8.9 11.27,-35.83 15.29,-31.25 3.78,4.3 6.41,24.99 7.38,33.65 z"
       transform="translate(-41.9,-21.46)"
       opacity="0.1"
       id="path193" />
    <path
       d="m 421,821.37 -1.09,40.34 h 5.24 c 0,0 0.85,-35.39 3.19,-40.34 2.34,-4.95 -7.34,0 -7.34,0 z"
       transform="translate(-41.9,-21.46)"
       fill="#444053"
       id="path195" />
    <path
       d="m 486.14,824.69 c 0,0 -22.95,-21.7 -20.61,-23.42 0.63,-0.46 1.25,-2.31 1.82,-4.77 4.41,-0.77 12,1.07 18.28,18.69 0.15,5 0.51,9.5 0.51,9.5 z"
       transform="translate(-41.9,-21.46)"
       opacity="0.1"
       id="path197" />
    <path
       d="m 489.57,848.89 a 2.33,2.33 0 0 1 -0.55,0.16 c -2.7,0.47 -12.65,0.2 -18.22,0 a 3.94,3.94 0 0 1 -3.81,-3.93 c 0,-1.5 0,-3.33 -0.12,-5.28 -0.26,-6.16 -1,-13.49 -3.21,-15.14 -3.91,-3 -7,-13.18 0,-26.07 0,0 13.42,-10.25 23.1,20.56 0,0 0.94,8.79 5.15,11.91 4.21,3.12 -0.46,16.9 -2.34,17.79 z"
       transform="translate(-41.9,-21.46)"
       fill="#444053"
       id="path199" />
    <path
       d="m 489,849.05 c -2.7,0.47 -12.65,0.2 -18.22,0 a 3.94,3.94 0 0 1 -3.81,-3.93 c 0,-1.5 0,-3.33 -0.12,-5.28 1.69,-7.46 4.12,-15.14 7.25,-16.89 0.02,-0.01 9.49,-1.08 14.9,26.1 z"
       transform="translate(-41.9,-21.46)"
       opacity="0.1"
       id="path201" />
    <polygon
       points="425.98,834.15 429.18,834.15 429.18,797.72 423.46,800.58 "
       fill="#444053"
       id="polygon203" />
    <path
       d="m 473.18,239.14 a 57.42,57.42 0 0 0 -25.62,8.23 c -2,1.21 -4,2.68 -4.83,4.85 -0.72,1.88 -0.42,4 -0.39,6 0.27,17.22 -18.93,30.25 -18.33,47.46 0.24,6.83 3.67,13.19 4.3,20 1.05,11.36 -5.67,21.81 -12.11,31.22 a 25.86,25.86 0 0 0 18.25,-6.05 138.39,138.39 0 0 1 2.55,69.75 h 9.21 a 7,7 0 0 1 2.69,0.33 6.76,6.76 0 0 1 2.13,1.59 c 8.61,8.57 14.38,21.24 11.09,32.94 l 19.6,-7.35 c 4.69,-1.76 9.45,-3.55 13.53,-6.45 4.08,-2.9 7.5,-7.11 8.36,-12.05 0.53,-3 0.36,-6.58 2.83,-8.32 a 15.4,15.4 0 0 1 3.86,-1.43 c 5.38,-1.9 7.76,-8.12 8.86,-13.72 a 79,79 0 0 0 1.25,-20.87 c -0.87,-11.7 -4.33,-23.58 -1.48,-35 1.61,-6.41 5.19,-12.38 5.48,-19 0.47,-10.91 -8.06,-20.31 -9.33,-31.16 -0.89,-7.56 1.84,-15.21 0.95,-22.77 a 24.46,24.46 0 0 0 -12.87,-18.57 c -2.41,-1.24 -5,-2.07 -7.38,-3.44 -5.43,-3.15 -8.9,-8.82 -13.83,-12.72 -4.93,-3.9 -13.14,-5.37 -16.85,-0.3 z"
       transform="translate(-41.9,-21.46)"
       opacity="0.1"
       id="path205" />
    <path
       d="m 473.18,237.89 a 57.42,57.42 0 0 0 -25.62,8.23 c -2,1.21 -4,2.68 -4.83,4.85 -0.72,1.88 -0.42,4 -0.39,6 0.27,17.22 -18.93,30.25 -18.33,47.47 0.24,6.82 3.67,13.18 4.3,20 1.05,11.36 -5.67,21.81 -12.11,31.23 a 26,26 0 0 0 18.25,-6.05 138.34,138.34 0 0 1 2.55,69.73 h 9.21 a 7,7 0 0 1 2.69,0.34 6.58,6.58 0 0 1 2.13,1.58 c 8.61,8.58 14.38,21.24 11.09,32.94 l 19.6,-7.35 c 4.69,-1.76 9.45,-3.55 13.53,-6.45 4.08,-2.9 7.5,-7.11 8.36,-12.05 0.53,-3 0.36,-6.58 2.83,-8.32 a 15.4,15.4 0 0 1 3.86,-1.43 c 5.38,-1.9 7.76,-8.12 8.86,-13.72 A 79,79 0 0 0 520.44,384 c -0.87,-11.7 -4.33,-23.58 -1.48,-35 1.61,-6.41 5.19,-12.38 5.48,-19 0.47,-10.91 -8.06,-20.31 -9.33,-31.16 -0.89,-7.56 1.84,-15.2 0.95,-22.77 A 24.48,24.48 0 0 0 503.19,257.5 c -2.41,-1.24 -5,-2.07 -7.38,-3.43 -5.43,-3.16 -8.9,-8.83 -13.83,-12.73 -4.93,-3.9 -13.14,-5.37 -16.85,-0.3 z"
       transform="translate(-41.9,-21.46)"
       fill="#925978"
       id="path207" />
    <g
       opacity="0.1"
       id="g223">
      <path
         d="m 442.32,252.81 a 11.12,11.12 0 0 0 -0.06,1.16 c 0.03,-0.38 0.05,-0.77 0.06,-1.16 z"
         transform="translate(-41.9,-21.46)"
         id="path209" />
      <path
         d="m 515,292.84 c 0.36,-5.3 1.54,-10.62 1.1,-15.9 -0.33,5.3 -1.51,10.62 -1.1,15.9 z"
         transform="translate(-41.9,-21.46)"
         id="path211" />
      <path
         d="m 428.31,319.19 c -0.58,-6.2 -3.47,-12 -4.15,-18.19 a 22.8,22.8 0 0 0 -0.15,3.42 c 0.24,6.75 3.59,13.06 4.27,19.78 a 27,27 0 0 0 0.03,-5.01 z"
         transform="translate(-41.9,-21.46)"
         id="path213" />
      <path
         d="m 519,343.82 a 42.88,42.88 0 0 0 -1,12.42 37.65,37.65 0 0 1 1,-7.21 c 1.61,-6.41 5.19,-12.38 5.48,-19 a 20.61,20.61 0 0 0 -0.16,-3.52 c -0.78,5.95 -3.89,11.49 -5.32,17.31 z"
         transform="translate(-41.9,-21.46)"
         id="path215" />
      <path
         d="m 434.45,344.36 a 26,26 0 0 1 -14.76,6 c -1.14,1.78 -2.32,3.52 -3.49,5.24 a 26,26 0 0 0 18.25,-6.05 138,138 0 0 1 5.82,37.45 138.31,138.31 0 0 0 -5.82,-42.64 z"
         transform="translate(-41.9,-21.46)"
         id="path217" />
      <path
         d="m 519.19,399.65 c -1.1,5.6 -3.48,11.82 -8.86,13.71 a 15,15 0 0 0 -3.86,1.44 c -2.47,1.74 -2.3,5.34 -2.83,8.32 -0.86,4.94 -4.27,9.14 -8.36,12 -4.09,2.86 -8.84,4.7 -13.53,6.46 l -18.7,7 a 25.81,25.81 0 0 1 -0.9,5.55 l 19.6,-7.35 c 4.69,-1.76 9.45,-3.55 13.53,-6.45 4.08,-2.9 7.5,-7.11 8.36,-12.05 0.53,-3 0.36,-6.58 2.83,-8.32 a 15.4,15.4 0 0 1 3.86,-1.43 c 5.38,-1.9 7.76,-8.12 8.86,-13.72 a 78.42,78.42 0 0 0 1.41,-17.7 78.3,78.3 0 0 1 -1.41,12.54 z"
         transform="translate(-41.9,-21.46)"
         id="path219" />
      <path
         d="m 451.06,416 a 6.61,6.61 0 0 0 -2.13,-1.59 7.15,7.15 0 0 0 -2.69,-0.34 h -8.17 c -0.32,1.74 -0.66,3.48 -1,5.21 h 9.21 a 7,7 0 0 1 2.69,0.34 6.58,6.58 0 0 1 2.13,1.58 c 6.3,6.28 11.07,14.74 11.89,23.42 C 464,434.24 458.62,423.56 451.06,416 Z"
         transform="translate(-41.9,-21.46)"
         id="path221" />
    </g>
    <path
       d="m 405.37,450.08 c 0,0 7.44,-3.12 9.1,0 1.66,3.12 -9.1,0 -9.1,0 z"
       transform="translate(-41.9,-21.46)"
       opacity="0.1"
       id="path225" />
    <path
       d="m 408,455.43 c 0,0 7.44,-3.12 9.11,0 1.67,3.12 -9.11,0 -9.11,0 z"
       transform="translate(-41.9,-21.46)"
       opacity="0.1"
       id="path227" />
  </g>
  <g
     id="5f43f84a-a268-4bb5-a31a-6b0c09aee323"
     data-name="leaves"
     transform="matrix(0.87536268,0,0,0.8802034,69.570399,51.336813)">
    <path
       d="m 869.11,51.68 c 0,0 -38.05,-2.29 -33.56,24.37 0,0 -0.89,4.71 3.38,6.85 0,0 0.07,-2 3.9,-1.31 a 17.51,17.51 0 0 0 4.13,0.2 8.57,8.57 0 0 0 5.04,-2.09 v 0 c 0,0 10.69,-4.41 14.85,-21.89 0,0 3.08,-3.82 3,-4.8 l -6.42,2.75 c 0,0 2.19,4.63 0.46,8.48 0,0 -0.2,-8.32 -1.44,-8.12 -0.25,0 -3.33,1.6 -3.33,1.6 0,0 3.77,8.07 0.92,13.94 0,0 1.08,-9.94 -2.1,-13.35 L 853.4,61 c 0,0 4.41,8.33 1.42,15.13 0,0 0.77,-10.43 -2.37,-14.49 l -4.1,3.19 c 0,0 4.15,8.17 1.65,13.81 0,0 -0.33,-12.15 -2.51,-13.06 0,0 -3.58,3.16 -4.12,4.46 0,0 2.83,6 1.07,9.1 0,0 -1.08,-8.08 -2,-8.12 0,0 -3.57,5.36 -3.94,9 a 19.51,19.51 0 0 1 3.07,-9.55 10.67,10.67 0 0 0 -5.46,2.84 c 0,0 0.55,-3.79 6.34,-4.13 0,0 2.95,-4.06 3.74,-4.31 0,0 -5.76,-0.48 -9.25,1.07 0,0 3.07,-3.58 10.31,-2 l 4,-3.3 c 0,0 -7.58,-1 -10.8,0.11 0,0 3.7,-3.16 11.89,-0.86 l 4.4,-2.63 c 0,0 -6.46,-1.4 -10.31,-0.89 0,0 4.06,-2.19 11.6,0.18 l 3.15,-1.41 c 0,0 -4.74,-0.93 -6.12,-1.08 -1.38,-0.15 -1.46,-0.53 -1.46,-0.53 a 16.36,16.36 0 0 1 8.89,1 c 0,0 6.73,-2.43 6.62,-2.85 z"
       transform="translate(-41.9,-21.46)"
       fill="#f450a9"
       opacity="0.1"
       id="path230" />
    <path
       d="m 814.88,30.06 c 0,0 -32,20.71 -12.59,39.52 0,0 2.07,4.32 6.78,3.52 0,0 -1.12,-1.64 2.37,-3.37 a 17.36,17.36 0 0 0 3.45,-2.29 8.61,8.61 0 0 0 2.83,-4.67 v 0 c 0,0 6,-9.9 -1,-26.44 0,0 0.22,-4.9 -0.46,-5.62 l -3.54,6 c 0,0 4.51,2.43 5.4,6.55 0,0 -5.09,-6.57 -6,-5.68 -0.18,0.18 -1.74,3.27 -1.74,3.27 0,0 7.83,4.26 9,10.67 0,0 -5,-8.65 -9.61,-9.5 l -2.08,4.8 c 0,0 8.5,4.1 10.12,11.35 0,0 -5.57,-8.86 -10.5,-10.27 l -1.4,5 c 0,0 8.2,4.16 9.51,10.2 0,0 -7.46,-9.58 -9.76,-9 0,0 -1,4.66 -0.68,6 0,0 5.82,3.12 6.26,6.7 0,0 -5.66,-5.87 -6.39,-5.38 0,0 0.3,6.43 2.17,9.61 a 19.53,19.53 0 0 1 -3.18,-9.51 10.7,10.7 0 0 0 -2.72,5.52 c 0,0 -1.8,-3.38 2.67,-7.08 0,0 0,-5 0.45,-5.69 0,0 -4.92,3 -6.82,6.34 0,0 0.36,-4.7 7.15,-7.68 l 1.3,-5.05 c 0,0 -6.72,3.66 -8.63,6.49 0,0 1.11,-4.74 9.06,-7.74 l 2,-4.73 c 0,0 -6,2.71 -8.84,5.4 0,0 2,-4.18 9.46,-6.73 l 1.7,-3 c 0,0 -4.37,2.06 -5.57,2.76 -1.2,0.7 -1.49,0.44 -1.49,0.44 a 16.39,16.39 0 0 1 7.75,-4.47 c 0,0 3.91,-5.96 3.57,-6.24 z"
       transform="translate(-41.9,-21.46)"
       fill="#f450a9"
       opacity="0.1"
       id="path232" />
    <path
       d="m 766.18,54.19 c 0,0 -19.13,33 6.7,40.93 0,0 3.81,2.91 7.64,0 0,0 -1.73,-0.94 0.59,-4.07 a 17.51,17.51 0 0 0 2,-3.6 8.64,8.64 0 0 0 0.41,-5.45 v 0 c 0,0 0.85,-11.54 -12.9,-23.11 0,0 -2,-4.46 -3,-4.79 l -0.43,7 c 0,0 5.12,0.12 7.79,3.39 0,0 -7.52,-3.55 -7.9,-2.36 -0.08,0.24 -0.07,3.7 -0.07,3.7 0,0 8.99,0.27 12.99,5.45 0,0 -8.4,-5.43 -12.87,-4.11 l 0.32,5.22 c 0,0 9.43,-0.2 14.16,5.53 0,0 -9,-5.37 -14,-4.39 l 1,5.09 c 0,0 9.2,0 13.1,4.78 0,0 -11,-5.16 -12.79,-3.63 0,0 1.21,4.62 2.13,5.69 0,0 6.6,0.14 8.62,3.13 0,0 -7.71,-2.67 -8.14,-1.89 0,0 3.19,5.59 6.3,7.57 a 19.53,19.53 0 0 1 -7.15,-7 10.71,10.71 0 0 0 0.08,6.15 c 0,0 -3.14,-2.19 -0.84,-7.52 0,0 -2.3,-4.46 -2.17,-5.27 0,0 -3,4.93 -3.2,8.74 0,0 -1.82,-4.35 2.88,-10.08 l -1.13,-5.1 c 0,0 -4.33,6.31 -4.75,9.7 0,0 -1.16,-4.73 4.57,-11 l -0.38,-5.11 c 0,0 -4.14,5.15 -5.42,8.82 0,0 -0.14,-4.62 5.37,-10.29 l 0.15,-3.45 c 0,0 -3,3.81 -3.71,5 -0.71,1.19 -1.13,1.02 -1.13,1.02 a 16.46,16.46 0 0 1 4.88,-7.51 c 0,0 0.72,-7.09 0.3,-7.18 z"
       transform="translate(-41.9,-21.46)"
       fill="#f450a9"
       opacity="0.1"
       id="path234" />
  </g>
  <path
     d="m 847.3564,411.26079 a 12.52644,12.595711 0 1 0 12.52644,12.59571 12.561454,12.630919 0 0 0 -12.52644,-12.59571 z m -36.62518,-98.83804 v 12.59571 h 12.52644 l 22.54935,45.92901 -9.42766,15.42997 a 12.04499,12.111599 0 0 0 -1.5669,5.98538 c 0,8.43235 5.73363,12.59571 13.50685,12.59571 h 73.24159 v -12.1116 h -71.70971 a 1.4793629,1.4875437 0 0 1 -1.5669,-1.57556 7.8782641,7.9218306 0 0 1 0.66528,-1.56677 l 6.25884,-9.93749 h 46.66559 a 12.255077,12.322848 0 0 0 10.95954,-6.61033 l 22.55809,-39.00181 a 7.2742638,7.3144903 0 0 0 0.63026,-3.15113 6.0224952,6.0557994 0 0 0 -6.26759,-5.98538 h -92.70966 l -5.95247,-12.59571 z m 98.29448,98.83804 a 12.52644,12.595711 0 1 0 12.53519,12.59571 12.561454,12.630919 0 0 0 -12.53519,-12.59571 z"
     fill="#f450a9"
     id="path237"
     style="stroke-width:0.87778" />
  <polygon
     points="928.67,336.21 928.67,324.21 919.67,324.21 919.67,336.21 907.67,336.21 907.67,345.21 919.67,345.21 919.67,357.21 928.67,357.21 928.67,345.21 940.67,345.21 940.67,336.21 "
     fill="#ffffff"
     id="polygon239"
     transform="matrix(0.87536268,0,0,0.8802034,69.570399,51.336813)" />
</svg>
