<?xml version="1.0" encoding="UTF-8" standalone="no"?>
<svg
   id="a6249f6b-4bee-49cf-a42b-14ab87a0b78f"
   data-name="Layer 1"
   width="945"
   height="583.2243"
   viewBox="0 0 945 583.2243"
   version="1.1"
   sodipodi:docname="maintenance.svg"
   inkscape:version="1.1.1 (3bf5ae0d25, 2021-09-20)"
   xmlns:inkscape="http://www.inkscape.org/namespaces/inkscape"
   xmlns:sodipodi="http://sodipodi.sourceforge.net/DTD/sodipodi-0.dtd"
   xmlns="http://www.w3.org/2000/svg"
   xmlns:svg="http://www.w3.org/2000/svg"
   xmlns:rdf="http://www.w3.org/1999/02/22-rdf-syntax-ns#"
   xmlns:cc="http://creativecommons.org/ns#"
   xmlns:dc="http://purl.org/dc/elements/1.1/">
  <metadata
     id="metadata71">
    <rdf:RDF>
      <cc:Work
         rdf:about="">
        <dc:format>image/svg+xml</dc:format>
        <dc:type
           rdf:resource="http://purl.org/dc/dcmitype/StillImage" />
        <dc:title />
      </cc:Work>
    </rdf:RDF>
  </metadata>
  <defs
     id="defs69" />
  <sodipodi:namedview
     pagecolor="#ffffff"
     bordercolor="#666666"
     borderopacity="1"
     objecttolerance="10"
     gridtolerance="10"
     guidetolerance="10"
     inkscape:pageopacity="0"
     inkscape:pageshadow="2"
     inkscape:window-width="1366"
     inkscape:window-height="704"
     id="namedview67"
     showgrid="false"
     inkscape:zoom="0.40464706"
     inkscape:cx="263.19232"
     inkscape:cy="280.49135"
     inkscape:window-x="0"
     inkscape:window-y="0"
     inkscape:window-maximized="1"
     inkscape:current-layer="a6249f6b-4bee-49cf-a42b-14ab87a0b78f"
     inkscape:pagecheckerboard="0" />
  <path
     id="b0cf38c7-358d-48dc-a444-e9782686dfa5"
     data-name="Path 438"
     d="m 169.77766,472.3552 a 19.744833,19.744833 0 0 0 19.06646,-3.35848 c 6.67802,-5.60547 8.77218,-14.83719 10.47533,-23.3875 l 5.039,-25.2912 -10.54951,7.26396 c -7.5871,5.22385 -15.34459,10.61554 -20.59734,18.18188 -5.25274,7.56633 -7.54434,17.89585 -3.32517,26.08331"
     fill="#e6e6e6"
     style="stroke-width:0.815409" />
  <path
     id="acbbaa8b-0bc2-4bc9-96d7-93dd88f90f19"
     data-name="Path 439"
     d="m 171.40662,504.73556 c -1.32781,-9.67377 -2.69396,-19.47262 -1.76034,-29.25009 0.82737,-8.68357 3.47669,-17.1634 8.87027,-24.1193 a 40.122961,40.122961 0 0 1 10.29426,-9.3286 c 1.02918,-0.64946 1.97664,0.98137 0.95186,1.62837 a 38.144338,38.144338 0 0 0 -15.0887,18.20448 c -3.28495,8.35474 -3.81242,17.46266 -3.24659,26.33796 0.34201,5.36717 1.06879,10.69915 1.79869,16.02484 a 0.97699887,0.97699887 0 0 1 -0.65885,1.15992 0.94871233,0.94871233 0 0 1 -1.15995,-0.65885 z"
     fill="#f2f2f2"
     style="stroke-width:0.815409" />
  <path
     id="bed63620-84ae-4c66-a7c8-0d9b30f8c1e7"
     data-name="Path 442"
     d="m 180.96405,489.21306 a 14.534792,14.534792 0 0 0 12.66448,6.53843 c 6.4127,-0.30429 11.75662,-4.77807 16.56677,-9.02679 l 14.23053,-12.56449 -9.41788,-0.45076 c -6.77295,-0.3244 -13.72067,-0.62868 -20.1717,1.46234 -6.45104,2.09102 -12.4004,7.11558 -13.57983,13.79298"
     fill="#e6e6e6"
     style="stroke-width:0.815409" />
  <path
     id="fc4eb8ca-daad-4589-b224-2c71eec1c546"
     data-name="Path 443"
     d="m 167.6533,510.29639 c 6.39258,-11.31089 13.8068,-23.88166 27.05593,-27.89965 a 30.191252,30.191252 0 0 1 11.3794,-1.17503 c 1.20836,0.10438 0.90658,1.96656 -0.29925,1.86284 a 28.048642,28.048642 0 0 0 -18.1605,4.80451 c -5.12072,3.48549 -9.10792,8.33149 -12.48213,13.4698 -2.06714,3.14789 -3.91866,6.42906 -5.77018,9.70582 -0.59162,1.04739 -2.32178,0.29106 -1.72327,-0.76829 z"
     fill="#f2f2f2"
     style="stroke-width:0.815409" />
  <path
     id="ec83fa9a-7bb4-4b90-a90b-e1cec4444963"
     data-name="Path 442"
     d="m 836.35213,485.82139 a 14.534792,14.534792 0 0 1 -13.91495,3.08455 c -6.12196,-1.93314 -10.145,-7.62413 -13.70948,-12.96111 l -10.54671,-15.78421 9.22029,1.97121 c 6.63091,1.41739 13.42566,2.89888 19.12803,6.56922 5.70237,3.67033 10.16998,10.04852 9.60365,16.80558"
     inkscape:connector-curvature="0"
     style="fill:#f450a9;fill-opacity:1;stroke-width:0.815409" />
  <path
     id="e32935a9-e392-46b4-9a67-68c65f1cc9fa"
     data-name="Path 443"
     d="m 843.83237,509.60644 c -3.28946,-12.56903 -7.24461,-26.61721 -19.02682,-33.88795 a 30.191342,30.191342 0 0 0 -10.70116,-4.04435 c -1.1949,-0.20792 -1.37907,1.66955 -0.18677,1.87746 a 28.048626,28.048626 0 0 1 16.32943,9.28637 c 4.05984,4.67848 6.67609,10.38261 8.625,16.21261 1.19396,3.57166 2.14539,7.21706 3.09795,10.85818 0.30426,1.16384 2.17026,0.8748 1.86237,-0.30232 z"
     inkscape:connector-curvature="0"
     style="fill:#000000;stroke-width:0.815409" />
  <path
     d="M 505.54218,325.54588 H 290.00985 a 6.499472,6.499472 0 0 1 -6.49194,-6.49194 v -72.7097 a 6.499472,6.499472 0 0 1 6.49194,-6.49193 h 215.53233 a 6.4993823,6.4993823 0 0 1 6.49193,6.49193 v 72.7097 a 6.4993823,6.4993823 0 0 1 -6.49193,6.49194 z"
     id="path8"
     inkscape:connector-curvature="0"
     style="fill:#f1f1f1;stroke-width:0.815409" />
  <rect
     x="317.276"
     y="259.32812"
     width="57.129047"
     height="6.4919376"
     id="rect10"
     style="fill:#f450a9;stroke-width:0.815409" />
  <circle
     cx="449.71152"
     cy="263.22327"
     r="3.8951609"
     id="circle12"
     style="fill:#f450a9;stroke-width:0.815409" />
  <circle
     cx="462.69537"
     cy="263.22327"
     r="3.8951609"
     id="circle14"
     style="fill:#f450a9;stroke-width:0.815409" />
  <circle
     cx="475.67926"
     cy="263.22327"
     r="3.8951609"
     id="circle16"
     style="fill:#f450a9;stroke-width:0.815409" />
  <path
     d="M 505.54218,417.73139 H 290.00985 a 6.499472,6.499472 0 0 1 -6.49194,-6.49194 v -72.70969 a 6.499472,6.499472 0 0 1 6.49194,-6.49194 h 215.53233 a 6.4993823,6.4993823 0 0 1 6.49193,6.49194 v 72.70969 a 6.4993823,6.4993823 0 0 1 -6.49193,6.49194 z"
     id="path18"
     inkscape:connector-curvature="0"
     style="fill:#f1f1f1;stroke-width:0.815409" />
  <rect
     x="317.276"
     y="351.51364"
     width="57.129047"
     height="6.4919376"
     id="rect20"
     style="fill:#f450a9;stroke-width:0.815409" />
  <circle
     cx="449.71152"
     cy="355.40878"
     r="3.8951609"
     id="circle22"
     style="fill:#f450a9;stroke-width:0.815409" />
  <circle
     cx="462.69537"
     cy="355.40878"
     r="3.8951609"
     id="circle24"
     style="fill:#f450a9;stroke-width:0.815409" />
  <circle
     cx="475.67926"
     cy="355.40878"
     r="3.8951609"
     id="circle26"
     style="fill:#f450a9;stroke-width:0.815409" />
  <path
     d="M 505.54218,509.9169 H 290.00985 a 6.499472,6.499472 0 0 1 -6.49194,-6.49193 v -72.7097 a 6.499472,6.499472 0 0 1 6.49194,-6.49194 h 215.53233 a 6.4993823,6.4993823 0 0 1 6.49193,6.49194 v 72.7097 a 6.4993742,6.4993742 0 0 1 -6.49193,6.49193 z"
     id="path28"
     inkscape:connector-curvature="0"
     style="fill:#f1f1f1;stroke-width:0.815409" />
  <rect
     x="317.276"
     y="443.69913"
     width="57.129047"
     height="6.4919376"
     id="rect30"
     style="fill:#f450a9;stroke-width:0.815409" />
  <circle
     cx="449.71152"
     cy="447.5943"
     r="3.8951609"
     id="circle32"
     style="fill:#f450a9;stroke-width:0.815409" />
  <circle
     cx="462.69537"
     cy="447.5943"
     r="3.8951609"
     id="circle34"
     style="fill:#f450a9;stroke-width:0.815409" />
  <circle
     cx="475.67926"
     cy="447.5943"
     r="3.8951609"
     id="circle36"
     style="fill:#f450a9;stroke-width:0.815409" />
  <path
     d="m 424.28887,168.85192 -0.23836,-0.17613 -0.006,-0.004 a 2.9161154,2.9161154 0 0 0 -4.07977,0.60249 l -48.51354,65.31899 h -5.33736 v -1.25396 a 1.1664918,1.1664918 0 0 0 -1.16646,-1.16646 h -3.18443 a 1.1664918,1.1664918 0 0 0 -1.16646,1.16646 v 1.25396 h -1.8431 v -1.25396 a 1.1664918,1.1664918 0 0 0 -1.16646,-1.16646 h -3.18441 a 1.1665,1.1665 0 0 0 -1.16647,1.16646 v 1.25396 h -1.83712 v -1.25396 a 1.1665,1.1665 0 0 0 -1.16647,-1.16669 h -3.18441 a 1.1664918,1.1664918 0 0 0 -1.16646,1.16646 v 1.25396 h -1.84311 V 233.339 a 1.1664918,1.1664918 0 0 0 -1.16645,-1.16646 h -3.18444 a 1.1665,1.1665 0 0 0 -1.16647,1.16646 v 1.25396 h -1.83711 V 233.339 a 1.1665,1.1665 0 0 0 -1.16647,-1.16646 h -3.18442 a 1.1663124,1.1663124 0 0 0 -1.16646,1.16646 v 1.25396 h -1.84308 V 233.339 a 1.1664918,1.1664918 0 0 0 -1.16646,-1.16646 h -3.1844 a 1.1665,1.1665 0 0 0 -1.16647,1.16646 v 1.25396 h -1.8431 V 233.339 a 1.1664918,1.1664918 0 0 0 -1.16646,-1.16646 h -3.18442 a 1.1665,1.1665 0 0 0 -1.16647,1.16646 v 1.25396 h -1.83711 V 233.339 a 1.1664918,1.1664918 0 0 0 -1.16646,-1.16646 h -3.18442 a 1.1665,1.1665 0 0 0 -1.16647,1.16646 v 1.25396 h -1.8431 V 233.339 a 1.1664918,1.1664918 0 0 0 -1.16646,-1.16646 h -3.18442 a 1.1665,1.1665 0 0 0 -1.16646,1.16646 v 1.25396 h -1.83712 V 233.339 a 1.1664918,1.1664918 0 0 0 -1.16646,-1.16646 h -3.18443 a 1.1664918,1.1664918 0 0 0 -1.16646,1.16646 v 1.25396 h -2.30955 a 2.9160502,2.9160502 0 0 0 -2.91616,2.91615 v 2.78201 a 2.9160502,2.9160502 0 0 0 2.91616,2.91616 h 78.90023 a 4.3456745,4.3456745 0 0 0 4.25462,-3.46341 l 0.0302,0.0224 49.63471,-66.82881 0.005,-0.006 a 2.9164823,2.9164823 0 0 0 -0.60259,-4.07982 z"
     id="path38"
     inkscape:connector-curvature="0"
     style="fill:#3f3d56;stroke-width:0.815409" />
  <polygon
     points="267.523,556.976 296.966,513.544 279.228,504.466 255.504,550.825 "
     id="polygon40"
     transform="matrix(0.81540923,0,0,0.81540923,-90.65167,36)"
     style="fill:#ffb7b7" />
  <path
     d="m 116.82605,480.66904 19.30059,9.87705 8.2e-4,4e-4 a 13.817623,13.817623 0 0 1 6.00476,18.59435 l -0.20457,0.39969 -31.60059,-16.17173 z"
     id="path42"
     inkscape:connector-curvature="0"
     style="fill:#2f2e41;stroke-width:0.815409" />
  <polygon
     points="407.819,567.652 414.242,515.575 394.315,515.575 394.317,567.652 "
     id="polygon44"
     transform="matrix(0.81540923,0,0,0.81540923,-90.65167,36)"
     style="fill:#ffb7b7" />
  <path
     d="m 228.06997,495.27448 21.6811,-8.2e-4 h 8.1e-4 a 13.817623,13.817623 0 0 1 13.81689,13.81667 v 0.44899 l -35.4982,0.002 z"
     id="path46"
     inkscape:connector-curvature="0"
     style="fill:#2f2e41;stroke-width:0.815409" />
  <path
     d="m 179.38158,152.49974 c 0,0 -7.37228,-5.64817 -7.37228,8.14831 l -1.16405,45.59174 12.9985,43.06964 7.56629,-13.96853 -3.10412,-30.26515 z"
     id="path48"
     inkscape:connector-curvature="0"
     style="fill:#2f2e41;stroke-width:0.815409" />
  <path
     d="m 258.24346,277.20115 c 0,0 8.5489,41.63316 -2.27971,75.80024 l -5.98422,131.3681 -21.94218,-1.70979 -7.69401,-97.45745 -7.40905,-48.44377 -15.38802,44.16932 -50.72347,93.46797 -23.367,-18.23765 c 0,0 25.89438,-70.65452 45.02421,-85.489 l 9.59423,-109.27381 z"
     id="path50"
     inkscape:connector-curvature="0"
     style="fill:#2f2e41;stroke-width:0.815409" />
  <circle
     cx="48.376541"
     cy="238.22284"
     r="25.018803"
     transform="rotate(-61.33685)"
     id="circle52"
     style="fill:#ffb7b7;stroke-width:0.815409" />
  <path
     d="m 230.46369,77.124121 c 2.99913,0.390222 5.26146,-2.678351 6.31075,-5.514907 1.04929,-2.836555 1.84878,-6.138889 4.45633,-7.671141 3.56245,-2.09336 8.12043,0.424404 12.19427,-0.266272 4.60063,-0.779972 7.59189,-5.655736 7.8263,-10.316117 0.2344,-4.660382 -1.62022,-9.142687 -3.4399,-13.439518 l -0.6353,5.339985 A 10.589548,10.589548 0 0 0 252.5486,36 l 0.81882,7.835602 a 8.3163587,8.3163587 0 0 0 -9.5675,-6.881451 l 0.12895,4.66874 c -5.31372,-0.631853 -10.67387,-1.264594 -16.00334,-0.783217 -5.32947,0.481377 -10.69614,2.167586 -14.73542,5.677442 -6.04214,5.250208 -8.24885,13.89529 -7.50801,21.865434 0.74085,7.970145 4.03091,15.457509 7.4599,22.690393 0.8627,1.819806 2.05602,3.873324 4.05658,4.105137 1.79753,0.208288 3.4423,-1.294315 4.00108,-3.015383 a 10.929925,10.929925 0 0 0 -0.0485,-5.369258 c -0.50555,-2.686447 -1.14283,-5.432338 -0.66752,-8.124297 0.47532,-2.69196 2.4119,-5.352118 5.12552,-5.682025 2.71362,-0.329906 5.49033,2.771903 4.18567,5.174074 z"
     id="path54"
     inkscape:connector-curvature="0"
     style="fill:#2f2e41;stroke-width:0.815409" />
  <polygon
     points="327.357,302.85 335.066,270.913 428.674,291.838 429.776,309.458 "
     id="polygon56"
     transform="matrix(0.81540923,0,0,0.81540923,-90.65167,36)"
     style="fill:#cbcbcb" />
  <path
     d="m 208.28868,105.93797 5.23819,-7.272458 c 0,0 5.85487,1.989718 21.53482,9.794558 l 1.10779,6.81368 27.21731,167.40495 -49.4719,-2.13409 -13.47211,-0.28664 -4.40875,-9.88276 -5.43654,9.67331 -13.15598,-0.27992 -13.38652,-7.7603 13.19251,-40.35353 4.26816,-36.86139 -6.59626,-34.72733 c 0,0 -8.30035,-31.88941 23.66889,-49.08386 z"
     id="path58"
     inkscape:connector-curvature="0"
     style="fill:#2f2e41;stroke-width:0.815409" />
  <path
     d="m 319.79493,232.66464 a 8.5504219,8.5504219 0 0 1 -10.63382,-7.66955 l -29.35072,-7.86159 11.80716,-10.48378 26.06179,9.07281 a 8.5967698,8.5967698 0 0 1 2.11559,16.94214 z"
     id="path60"
     inkscape:connector-curvature="0"
     style="fill:#ffb7b7;stroke-width:0.815409" />
  <path
     d="m 306.64924,228.2264 a 5.0084147,5.0084147 0 0 1 -4.06645,0.3226 l -48.28296,-18.32537 a 51.556124,51.556124 0 0 1 -27.75012,-23.3896 l -20.13482,-35.9179 a 16.116637,16.116637 0 1 1 24.04738,-21.46402 l 34.85029,55.23707 43.85833,25.71351 a 5.019227,5.019227 0 0 1 2.13431,5.33773 l -2.18093,9.24206 a 5.0091404,5.0091404 0 0 1 -1.52176,2.5688 4.9525021,4.9525021 0 0 1 -0.95327,0.67512 z"
     id="path62"
     inkscape:connector-curvature="0"
     style="fill:#2f2e41;stroke-width:0.815409" />
  <path
     d="M 861.74631,511.38358 H 92.815409 a 0.81541,0.81541 0 0 1 0,-1.63082 H 861.74631 a 0.81541,0.81541 0 0 1 0,1.63082 z"
     fill="#cbcbcb"
     id="path64"
     style="stroke-width:0.815409" />
  <g
     aria-label="Nos encontramos en mantenimiento"
     style="font-style:normal;font-weight:normal;font-size:71.1237px;line-height:1.25;font-family:sans-serif;letter-spacing:0px;word-spacing:0px;fill:#f450a9;fill-opacity:1;stroke:none;stroke-width:1.77809"
     id="text880"
     transform="matrix(0.81540923,0,0,0.81540923,92,36)">
    <path
       d="m 336.5075,83.176342 q -0.71123,-0.782361 -0.9246,-1.351351 -0.21338,-0.497866 -0.0711,-1.280227 0.21337,-0.711238 0.56899,-2.062589 0.56899,-2.275959 1.20911,-3.769558 0.71123,-1.564722 1.35135,-3.200568 0.71123,-1.706969 1.2091,-4.338547 1.13798,-2.631578 1.99146,-4.978662 0.92461,-2.347083 1.42248,-3.840681 0.49787,-1.493599 0.49787,-1.493599 0.0711,-0.284495 0.64011,-1.493598 0.56899,-1.209104 1.42247,-2.916073 0.92461,-1.778094 1.70697,-3.556187 1.20911,-3.413939 1.92034,-5.832146 0.78237,-2.489331 1.56473,-4.480795 0.78236,-1.991465 2.06258,-3.911806 0.85349,-1.493598 1.99147,-1.92034 1.13798,-0.426743 2.13371,0.07112 1.06686,0.426743 1.4936,1.849217 0.35562,0.711238 0.56899,1.70697 0.28449,0.995732 0.49787,2.916073 0.21337,1.849217 0.28449,5.263156 0.14225,4.054053 0.0711,8.036982 -0.0711,3.911806 0,7.254621 0.14225,3.342816 0.78237,5.689899 0.21337,1.280227 0.56899,3.129444 0.42674,1.778093 0.85348,3.556187 0.49787,1.778093 0.92461,2.987197 0.49786,1.209103 0.78236,1.209103 0.35562,0 0.92461,-0.924609 0.64011,-0.924608 1.56472,-3.342815 0.99573,-2.418207 2.34708,-6.827878 1.35135,-4.480796 3.05832,-11.450922 0.35562,-1.209103 0.92461,-3.911805 0.64012,-2.702702 0.92461,-5.476527 0.49787,-1.778094 0.99573,-3.911806 0.49787,-2.133712 0.85349,-3.769558 0.42674,-1.635845 0.42674,-1.849217 0,-0.497866 0,-0.853484 0.0711,-0.355619 0,-0.711238 0.35562,0 0.64011,-0.924608 0.2845,-0.995733 0.2845,-1.70697 0,-1.209103 0.28449,-1.920341 0.35562,-0.782361 0.71124,-1.137979 0.21337,-0.56899 1.06686,-0.497867 0.85348,0 1.70697,0.426743 0.85348,0.426742 1.06685,1.13798 0.14225,0.782361 -0.42674,3.556186 -0.49787,2.702702 -1.56472,7.325745 0,0.782361 -0.42674,2.560454 -0.42675,1.778094 -0.92461,3.769558 -0.42675,1.991465 -0.64012,3.413939 -0.28449,1.849217 -0.64011,3.485063 -0.35562,1.564722 -0.71124,1.493599 -1.84921,8.036982 -3.9118,13.72688 -1.99147,5.618775 -3.55619,9.174962 -1.70697,3.911805 -3.76956,4.694166 -1.99146,0.853485 -4.26742,-2.062588 -1.35135,-1.849217 -2.13371,-3.62731 -0.78236,-1.849218 -1.28023,-4.267424 -0.49787,-2.489331 -1.2091,-6.116642 -1.06686,-2.916073 -1.20911,-5.903269 -0.0711,-2.987197 0.21337,-6.116642 0.2845,-3.200568 0.42675,-6.614507 -0.0711,-3.413939 -0.2845,-4.551919 -0.21337,-1.137979 -0.85348,0.142248 -0.56899,1.209103 -1.92034,4.978661 -0.49787,1.351351 -1.35136,3.271692 -0.78236,1.920341 -1.56472,3.840681 -0.78236,1.849218 -1.35135,3.271692 -0.56899,1.351351 -0.71124,1.70697 -0.42674,0.853485 -0.99573,2.275959 -0.56899,1.351351 -0.92461,2.916073 -2.56045,6.685631 -3.84068,10.66856 -1.2091,3.982929 -1.77809,5.547652 -0.71124,1.991464 -1.4936,2.631578 -0.78236,0.711237 -2.20484,-0.782361 z"
       style="font-style:normal;font-variant:normal;font-weight:normal;font-stretch:normal;font-size:71.1237px;font-family:Caveat;-inkscape-font-specification:'Caveat, Normal';font-variant-ligatures:normal;font-variant-caps:normal;font-variant-numeric:normal;font-feature-settings:normal;text-align:end;writing-mode:lr-tb;text-anchor:end;fill:#f450a9;fill-opacity:1;stroke-width:1.77809"
       id="path884" />
    <path
       d="m 384.23146,77.699814 q -0.92461,0 -1.4936,-0.355618 -0.49786,-0.355619 -1.28023,-0.995733 -1.35135,-1.422474 -1.92034,-2.702702 -0.56899,-1.351351 -0.35562,-2.560454 0.21338,-0.56899 0.14225,-1.066856 0,-0.56899 0,-0.56899 -0.35562,-0.355619 -0.21337,-0.426742 0.14225,-0.142248 0.2845,-0.426743 0.42674,0 0.28449,-0.782361 -0.14225,-0.56899 0.56899,-2.48933 0.71124,-1.920341 1.77809,-3.627311 0.42675,-0.711237 1.28023,-1.849217 0.85349,-1.209103 1.84922,-2.347083 1.06685,-1.209104 1.92034,-1.920341 1.77809,-1.493598 3.12944,-2.204836 1.35135,-0.711237 2.91608,-1.066856 1.56472,-0.355618 2.13371,-0.355618 0.64011,0 1.70697,1.137979 1.63584,0.711238 2.34708,1.70697 0.78236,0.995732 0.99573,2.916073 0.21337,2.133712 -0.35562,4.907538 -0.49786,2.702702 -3.34281,6.756754 -1.77809,2.560455 -3.27169,3.840682 -1.4936,1.209103 -3.55619,2.418207 -1.4936,0.995732 -2.7027,1.493598 -1.2091,0.426743 -2.84495,0.56899 z m 6.82788,-7.539116 q 1.70697,-1.92034 2.7027,-3.62731 1.06686,-1.70697 1.99146,-4.338548 0.2845,-0.782361 0.35562,-1.92034 0.0711,-1.209104 -0.0711,-2.204836 -0.0711,-1.066856 -0.49787,-1.209104 -0.85348,-0.497866 -2.06258,-0.284495 -1.20911,0.142248 -2.63158,1.351351 -2.20484,1.849217 -3.84068,4.623043 -1.63585,2.702702 -3.20057,6.187765 -1.06686,2.560454 -0.49787,4.125176 0.64011,1.493599 2.63158,1.066856 2.06259,-0.497866 5.12091,-3.769558 z"
       style="font-style:normal;font-variant:normal;font-weight:normal;font-stretch:normal;font-size:71.1237px;font-family:Caveat;-inkscape-font-specification:'Caveat, Normal';font-variant-ligatures:normal;font-variant-caps:normal;font-variant-numeric:normal;font-feature-settings:normal;text-align:end;writing-mode:lr-tb;text-anchor:end;fill:#f450a9;fill-opacity:1;stroke-width:1.77809"
       id="path886" />
    <path
       d="m 408.76906,79.051165 q -1.35135,-0.56899 -2.56046,-1.493598 -1.2091,-0.995733 -1.56472,-1.635846 0,-0.640114 0.21337,-0.853485 0.21337,-0.284495 1.2091,-0.213371 1.06686,0 3.41394,0.284495 0.85349,0 2.13372,-0.142248 1.28022,-0.142247 2.34708,-0.426742 1.13798,-0.284495 1.28023,-0.711237 0.35561,0 0.14224,-0.213372 -0.21337,-0.284495 -0.49786,-0.568989 -0.2845,0 -0.64012,-0.213372 -0.35561,-0.284495 -0.64011,-0.284495 0,-0.355618 -0.71124,-0.782361 -0.64011,-0.497866 -1.35135,-0.782361 -1.56472,-1.280227 -2.7027,-2.275959 -1.13798,-1.066856 -0.85348,-1.422475 0,-0.284495 0,-0.284495 0,-0.07112 0,-0.07112 -0.49787,0 -1.13798,-1.422474 -0.56899,-1.422475 -0.56899,-2.560455 0,-0.853484 0.49786,-2.133712 0.49787,-1.351351 1.35135,-2.773825 0.85349,-1.422475 1.7781,-2.347083 1.28022,-1.209104 3.20056,-2.560455 1.92034,-1.422475 3.76956,-2.489331 1.92034,-1.137979 3.20057,-1.493598 1.28023,-0.497866 2.34708,-0.497866 1.13798,0 1.99147,0.497866 0.71124,0.355619 1.28022,1.066856 0.64012,0.640114 1.06686,1.351351 0.49787,0.640114 0.64011,1.13798 0,0.853485 -0.14224,1.920341 -0.14225,0.995732 -0.42675,1.778093 -0.21337,0.782361 -0.71123,0.782361 0,0 -0.21337,0.07112 -0.14225,0 -0.14225,0.355618 0,0.711238 -1.06686,1.635846 -1.35135,0.924609 -2.34708,1.13798 -0.99573,0.142247 -1.2091,-0.782361 -0.21338,-0.284495 -0.2845,-0.497866 -0.0711,-0.213371 -0.35562,-0.213371 0,0 -0.21337,-0.213372 -0.21337,-0.213371 -0.21337,-0.711237 0,-0.284495 0.21337,-0.497866 0.21337,-0.284495 0.21337,-0.284495 0.35562,0 0.92461,-0.782361 0.56899,-0.853485 0.99573,-1.778093 0.49787,-0.995733 0.49787,-1.351351 0,-0.426743 -0.14225,-0.497867 -0.0711,-0.07112 -0.64011,-0.07112 -0.99573,0.426742 -2.41821,1.137979 -1.42247,0.711238 -2.7027,1.422475 -1.2091,0.640114 -1.77809,1.209104 -0.2845,0.497866 -0.35562,0.640113 -0.0711,0.07112 -0.35562,0.07112 0,-0.284495 -0.49787,0.284495 -0.42674,0.497866 -1.13798,1.422475 -0.64011,0.924608 -1.28022,1.849217 -0.56899,0.853484 -0.85349,1.280227 -0.14225,0.142247 -0.35562,0.853485 -0.14225,0.640113 -0.14225,1.209103 -0.28449,0.853485 0.0711,1.209104 0.35562,0.284495 1.56472,1.280227 2.48933,1.849217 3.91181,3.05832 1.42247,1.209104 2.13371,1.991465 0.71124,0.782361 0.85348,1.422475 1.28023,2.133712 0.78236,3.271691 -0.49786,1.13798 -2.4182,1.991465 -0.71124,0.355618 -2.34709,0.56899 -1.63584,0.213371 -3.34281,0.213371 -1.70697,0.07112 -2.7027,-0.07112 z"
       style="font-style:normal;font-variant:normal;font-weight:normal;font-stretch:normal;font-size:71.1237px;font-family:Caveat;-inkscape-font-specification:'Caveat, Normal';font-variant-ligatures:normal;font-variant-caps:normal;font-variant-numeric:normal;font-feature-settings:normal;text-align:end;writing-mode:lr-tb;text-anchor:end;fill:#f450a9;fill-opacity:1;stroke-width:1.77809"
       id="path888" />
    <path
       d="m 452.72341,78.980041 q -3.12945,0 -5.12091,-2.347083 -1.99147,-2.418207 -1.92034,-5.974393 0.14224,-2.560455 0.99573,-5.476528 0.92461,-2.987197 2.41821,-5.689899 1.49359,-2.773825 3.27169,-4.836413 1.77809,-2.062589 3.69843,-2.916074 0.71124,-0.355618 1.4936,-0.568989 0.85348,-0.213372 1.70697,-0.213372 0.78236,0 1.63585,0.284495 0.85348,0.213372 1.42247,0.497866 1.2091,0.497867 1.84922,1.209104 0.64011,0.711237 1.13798,2.204836 0.21337,1.351351 0.21337,1.920341 0,0.568989 -0.35562,1.706969 -0.85349,2.560455 -2.20484,4.409672 -1.35135,1.849217 -3.62731,3.129444 -0.56899,0.355619 -1.35135,0.56899 -0.71123,0.142247 -1.4936,0.142247 -1.42247,0 -2.77382,-0.497866 -1.28023,-0.56899 -2.06259,-1.635846 l -0.49787,-0.56899 -0.21337,0.56899 q -0.71123,1.920341 -1.13798,3.556187 -0.35562,1.635846 -0.35562,2.987197 0,0.853484 0.14225,1.635846 0.21337,0.782361 0.56899,1.35135 0.2845,0.426743 0.92461,0.640114 0.71124,0.142248 1.4936,0.142248 0.49786,0 0.99573,0 0.56899,-0.07112 1.06686,-0.284495 1.2091,-0.426743 1.92034,-0.924609 0.78236,-0.497866 1.56472,-1.066856 l 0.28449,-0.142247 h -0.0711 q 0.85349,-0.426743 1.4936,-0.853485 0.71124,-0.426743 0.71124,-0.426743 0.28449,0 0.56899,-0.355618 0.56899,-0.284495 1.42247,0.213371 0.92461,0.497866 0.92461,1.280227 -0.0711,0.355619 -0.64011,1.13798 -0.56899,0.711237 -1.28023,1.351351 -0.64011,0.640113 -1.06686,0.711237 -0.0711,0.07112 -0.49786,0.284495 -0.42675,0.142248 -0.56899,0.284495 h 0.0711 q -0.64011,0.853485 -1.28023,0.853485 h -0.56899 q -0.28449,0.497866 -1.84921,1.13798 -1.56473,0.568989 -3.05832,0.568989 z m 3.20056,-15.647221 q 1.28023,0 2.20484,-0.711237 0.99573,-0.782361 1.70697,-1.70697 1.42247,-1.920341 1.63585,-3.698434 0.28449,-1.849217 -0.42675,-2.560454 -0.42674,-0.213372 -0.78236,-0.213372 -0.28449,-0.07112 -1.2091,0.213372 -0.64012,0.142247 -1.77809,1.066856 -1.13798,0.924608 -2.27596,2.062588 -1.06686,1.13798 -1.63585,1.920341 l -0.92461,1.493598 q 0.56899,-0.213371 1.06686,-0.213371 0.56899,-0.07112 0.64011,0.07112 0,0.640113 0.21337,1.209103 0.2845,0.497866 0.64012,0.782361 0.42674,0.284495 0.9246,0.284495 z"
       style="font-style:normal;font-variant:normal;font-weight:normal;font-stretch:normal;font-size:71.1237px;font-family:Caveat;-inkscape-font-specification:'Caveat, Normal';font-variant-ligatures:normal;font-variant-caps:normal;font-variant-numeric:normal;font-feature-settings:normal;text-align:end;writing-mode:lr-tb;text-anchor:end;fill:#f450a9;fill-opacity:1;stroke-width:1.77809"
       id="path890" />
    <path
       d="m 491.05901,77.913185 q -0.71123,0 -1.4936,-0.782361 -0.71123,-0.782361 -1.28022,-1.92034 -0.49787,-1.209104 -0.49787,-2.27596 0,-1.066856 0.49787,-3.982929 0.56899,-2.916073 1.35135,-5.90327 0.56899,-1.849217 0.35562,-2.133712 -0.21337,-0.284495 -1.92034,0.782361 -0.99574,0.497866 -1.7781,1.066856 -0.78236,0.497866 -1.35135,1.13798 -0.35562,0.284495 -1.06685,0.924608 -0.71124,0.640114 -1.4936,1.209104 -0.92461,0.711237 -2.34709,1.991464 -1.42247,1.280228 -2.84495,2.560455 -1.35135,1.280227 -2.06258,1.991464 -0.14225,0.284495 -0.42675,0.497867 -0.28449,0.213371 -0.64011,0.284494 -0.35562,0 -0.78236,-0.142247 -0.78236,-0.213371 -1.4936,-0.924609 -0.64011,-0.711237 -0.64011,-1.635845 0,-0.711238 0.56899,-2.418207 0.56899,-1.778094 1.4936,-4.267424 0.99573,-2.489331 2.27596,-5.263157 0.21337,-0.355618 0.35561,-0.853484 0.14225,-0.56899 0.21338,-1.209104 0.14224,-0.640113 0.14224,-1.209103 0,-0.355619 0.0711,-0.711238 0.14224,-0.426742 0.28449,-0.782361 0.21337,-0.426742 0.35562,-0.56899 0.28449,-0.56899 0.99573,-0.284495 0.71124,0.213372 1.20911,0.995733 1.06685,0.995732 1.06685,2.48933 0.0711,1.493599 -0.71124,3.698435 -0.28449,0.497866 -0.49786,0.995732 -0.14225,0.426742 -0.2845,0.782361 -0.14224,0.284495 -0.21337,0.497866 -0.0711,0.142247 -0.0711,0.142247 0.28449,0 1.28023,-0.640113 0.99573,-0.640114 2.34708,-1.422475 1.06685,-0.782361 1.84922,-1.422474 0.85348,-0.711238 1.42247,-1.066856 0.56899,-0.426743 0.71124,-0.426743 0.28449,0 0.71124,-0.213371 0.42674,-0.213371 0.71123,-0.497866 0.2845,-0.284495 0.42674,-0.284495 0.21338,-0.07112 0.21338,-0.07112 0,0 0.28449,0 0.2845,-0.07112 0.56899,-0.355619 0.56899,-0.426742 1.4936,-0.213371 0.92461,0.142248 1.70697,0.711238 0.78236,0.568989 0.78236,1.280227 0,0.284495 0.14225,0.497866 0.21337,0.142247 0.21337,0.142247 0.56899,0 0.71124,1.778094 0.21337,1.778093 -0.35562,3.413939 0,1.066856 -0.42675,2.560454 -0.35561,1.493599 -0.64011,2.84495 -0.56899,1.778093 -0.78236,3.129444 -0.21337,1.351351 -0.0711,2.275959 0.14224,0.924609 0.49786,1.493599 0.2845,0.497866 0,1.13798 -0.28449,0.568989 -1.13798,0.568989 z"
       style="font-style:normal;font-variant:normal;font-weight:normal;font-stretch:normal;font-size:71.1237px;font-family:Caveat;-inkscape-font-specification:'Caveat, Normal';font-variant-ligatures:normal;font-variant-caps:normal;font-variant-numeric:normal;font-feature-settings:normal;text-align:end;writing-mode:lr-tb;text-anchor:end;fill:#f450a9;fill-opacity:1;stroke-width:1.77809"
       id="path892" />
    <path
       d="m 511.25807,76.917453 q -0.92461,0.426743 -2.13371,0.355619 -1.2091,-0.07112 -3.27169,-0.782361 -0.14225,0 -0.64011,-0.284495 -0.42675,-0.284495 -0.92461,-0.711238 -0.42675,-0.497866 -0.71124,-1.066856 -1.13798,-1.635845 -0.92461,-4.836413 0.21337,-3.200568 1.99147,-7.681364 0.49786,-1.066856 1.49359,-2.702701 1.06686,-1.635846 2.06259,-2.987197 1.06686,-1.422475 1.4936,-1.635846 0,0 0.78236,-0.284495 0.78236,-0.284495 1.99147,-0.924609 0.35562,-0.142247 0.78236,-0.284495 0.49786,-0.142247 0.99573,-0.213371 0.49787,-0.07112 0.85348,0 1.42248,0.07112 2.91608,1.066856 1.56472,0.924609 2.56045,2.204836 0.99573,1.209103 0.64012,2.133712 0,0.142247 -0.42675,0.56899 -0.35562,0.355619 -0.85348,0.782361 -0.42674,0.355619 -0.71124,0.711237 -0.35562,0.426743 -0.99573,0.355619 -0.56899,-0.07112 -1.06686,-0.56899 -0.42674,-0.56899 -0.49786,-1.422475 -0.14225,-0.568989 -1.06686,-1.066856 -0.85348,-0.497866 -0.85348,-0.497866 -0.56899,0 -1.63585,1.066856 -0.99573,0.995733 -1.99146,2.418207 -1.28023,1.280227 -2.20484,3.058321 -0.92461,1.706969 -1.4936,3.271691 -0.49786,1.493599 -0.71124,2.133712 -0.28449,0.711238 -0.0711,1.991465 0.21337,1.280227 0.49787,1.564722 0.28449,0.142248 1.42247,0.07112 1.2091,-0.07112 2.84495,-0.284495 1.63585,-0.284495 3.20057,-0.640114 1.56472,-0.355618 2.56045,-0.782361 1.35135,-0.853485 2.34709,-0.995732 0.99573,-0.142247 1.49359,0 0.78237,0.284495 0.92461,0.782361 0.14225,0.497866 -0.35562,1.13798 -0.49786,0.56899 -1.70697,1.209103 -1.13797,0.56899 -2.06258,1.280227 -0.85349,0.640114 -0.85349,0.995733 -0.28449,0 -0.64011,0.213371 -0.2845,0.142247 -0.49787,0.07112 -0.14225,0 -1.13798,0.213371 -0.99573,0.213371 -2.06259,0.497866 -0.99573,0.284495 -1.35135,0.497866 z"
       style="font-style:normal;font-variant:normal;font-weight:normal;font-stretch:normal;font-size:71.1237px;font-family:Caveat;-inkscape-font-specification:'Caveat, Normal';font-variant-ligatures:normal;font-variant-caps:normal;font-variant-numeric:normal;font-feature-settings:normal;text-align:end;writing-mode:lr-tb;text-anchor:end;fill:#f450a9;fill-opacity:1;stroke-width:1.77809"
       id="path894" />
    <path
       d="m 534.72885,78.339928 q -0.92461,0.07112 -1.4936,-0.142248 -0.56899,-0.284495 -1.42247,-0.782361 -1.56472,-1.209103 -2.34709,-2.418207 -0.71123,-1.280227 -0.64011,-2.48933 0.14225,-0.640114 0,-1.13798 -0.0711,-0.497866 -0.0711,-0.497866 -0.42675,-0.355619 -0.2845,-0.426743 0.14225,-0.142247 0.21337,-0.426742 0.56899,-0.142247 0.14225,-0.782361 -0.21337,-0.56899 0.21337,-2.560454 0.49787,-2.062589 1.28023,-3.840682 0.35562,-0.782361 0.99573,-2.062588 0.71124,-1.280228 1.56472,-2.560455 0.85349,-1.351351 1.56473,-2.133712 1.56472,-1.778093 2.77382,-2.631578 1.28023,-0.924608 2.84495,-1.493598 1.42248,-0.56899 2.06259,-0.640114 0.64011,-0.07112 1.77809,0.853485 1.70697,0.497866 2.56046,1.422475 0.92461,0.853484 1.42247,2.702701 0.56899,2.062589 0.35562,4.907538 -0.14225,2.773826 -2.41821,7.183497 -1.35135,2.773826 -2.7027,4.1963 -1.28023,1.422475 -3.12944,2.987197 -1.35135,1.13798 -2.48933,1.778094 -1.13798,0.640113 -2.77383,0.995732 z m 5.6899,-8.463724 q 1.42247,-2.133712 2.20484,-3.911806 0.85348,-1.849217 1.35135,-4.623042 0.14224,-0.782362 0.0711,-1.920341 -0.0711,-1.209104 -0.35562,-2.204836 -0.21337,-0.995732 -0.64011,-1.066856 -0.92461,-0.355619 -2.06259,0 -1.13798,0.284495 -2.48933,1.70697 -1.2091,1.422474 -2.20484,3.200568 -0.92461,1.778093 -1.70697,3.911805 -0.78236,2.133712 -1.49359,4.551919 -0.71124,2.702702 0.0711,4.125176 0.85348,1.422475 2.77382,0.711238 1.92035,-0.782361 4.4808,-4.480795 z"
       style="font-style:normal;font-variant:normal;font-weight:normal;font-stretch:normal;font-size:71.1237px;font-family:Caveat;-inkscape-font-specification:'Caveat, Normal';font-variant-ligatures:normal;font-variant-caps:normal;font-variant-numeric:normal;font-feature-settings:normal;text-align:end;writing-mode:lr-tb;text-anchor:end;fill:#f450a9;fill-opacity:1;stroke-width:1.77809"
       id="path896" />
    <path
       d="m 577.82974,75.494978 q -1.42248,0 -2.34709,-0.568989 -0.9246,-0.640114 -1.56472,-2.062589 -0.28449,-0.995732 -0.49786,-2.204835 -0.14225,-1.280228 -0.14225,-2.347084 0,-1.137979 0.21337,-1.493598 0.2845,-0.284495 0.21337,-0.995732 0,-0.782361 0,-1.635846 -0.0711,-1.422475 -0.71124,-1.564722 -0.56899,-0.213371 -1.70697,0.426742 -1.28022,0.782361 -3.34281,2.133712 -2.06259,1.280227 -4.33855,2.844949 -2.20483,1.564723 -4.1963,3.271692 -1.56472,1.70697 -1.92034,2.631578 -0.28449,0.853485 -0.85348,0.853485 -0.56899,0.284495 -0.99574,0.07112 -0.35562,-0.284495 -1.06685,-0.853485 -0.49787,-0.56899 -0.99573,-1.066856 -0.49787,-0.56899 -0.64012,-0.853485 0,-0.355618 0.21337,-1.493598 0.21337,-1.13798 0.49787,-2.27596 0.35562,-1.137979 0.49786,-1.493598 0.35562,0 0.56899,-0.711237 0.2845,-0.711238 0.85349,-1.564722 0.14225,-0.853485 0.71124,-2.27596 0.64011,-1.493598 1.13798,-2.631578 0.99573,-1.70697 1.35135,-2.844949 0.42674,-1.13798 0.56899,-2.84495 -0.0711,-0.284495 0.14224,-0.497866 0.21338,-0.284495 0.49787,-0.284495 v 0 0 q 0.56899,-0.56899 1.35135,-0.284495 0.78236,0.213371 1.42248,1.066856 1.28022,1.70697 0.99573,3.556187 -0.21337,1.778093 -2.27596,5.120909 -0.49787,1.137979 -0.78236,1.778093 -0.21337,0.56899 -0.21337,0.924609 0,0 0.71123,-0.497867 0.78237,-0.497866 1.70697,-1.137979 0.99574,-0.711238 1.56473,-1.066856 0.35561,-0.355619 1.63584,-1.280227 1.28023,-0.924609 2.7027,-1.778094 1.4936,-0.924608 2.20484,-1.066856 0.56899,-0.284495 1.2091,-0.497866 0.64012,-0.284495 0.92461,-0.284495 0.56899,0 1.42248,0.640114 0.9246,0.56899 1.70697,1.422474 0.78236,0.782361 0.9246,1.351351 0,0.284495 0,0.56899 0.0711,0.284495 0.14225,0.56899 0.2845,0.924609 0.2845,2.489331 0.0711,1.564722 -0.0711,2.844949 -0.14224,1.280227 -0.49786,1.493598 0,0 0,0.213372 0.0711,0.142247 0.35562,0.142247 0,0.284495 0,0.355619 0,0 0,0 -0.35562,0 -0.2845,0.640113 0.0711,0.56899 0.42674,1.280228 0.42675,0.711237 0.85349,1.137979 0.85348,0.853485 0.71124,1.635846 -0.14225,0.711238 -1.28023,0.995732 z"
       style="font-style:normal;font-variant:normal;font-weight:normal;font-stretch:normal;font-size:71.1237px;font-family:Caveat;-inkscape-font-specification:'Caveat, Normal';font-variant-ligatures:normal;font-variant-caps:normal;font-variant-numeric:normal;font-feature-settings:normal;text-align:end;writing-mode:lr-tb;text-anchor:end;fill:#f450a9;fill-opacity:1;stroke-width:1.77809"
       id="path898" />
    <path
       d="m 593.548,78.624423 q -0.99573,-0.284495 -1.63584,-0.640114 -0.64012,-0.426742 -1.70697,-1.351351 -0.85349,-1.13798 -1.35135,-2.133712 -0.42675,-0.995732 -0.56899,-2.275959 -0.14225,-1.351351 -0.14225,-3.413939 0,-0.853485 0.28449,-2.560455 0.35562,-1.706969 0.78237,-3.556187 0.49786,-1.92034 0.85348,-3.413939 0.42674,-1.493598 0.49787,-1.920341 0.21337,-0.924608 -0.71124,-1.066856 -0.92461,-0.142247 -2.06259,-0.07112 -1.06686,0 -1.42247,-0.213371 -0.2845,-0.07112 -0.2845,-0.213372 0,-0.213371 0,-0.213371 0,-0.284495 -0.0711,-0.355619 0,-0.142247 -0.21337,-0.497866 -0.14225,-0.284495 0.14224,-0.782361 0.35562,-0.56899 1.13798,-0.711237 0.64012,-0.142248 1.70697,-0.213371 1.13798,-0.142248 2.27596,-0.497866 1.13798,-0.426743 1.84922,-1.280228 0.64011,-1.564722 1.4936,-3.485063 0.85348,-1.92034 1.63584,-3.413939 0.85349,-1.564722 1.13798,-1.920341 1.20911,-0.640113 1.7781,-0.497866 0.56899,0.07112 1.28022,1.209104 0.35562,0.497866 0.49787,0.782361 0.21337,0.284495 0.0711,0.853485 -0.14224,0.568989 -0.78236,1.778093 -0.56899,1.209103 -1.77809,3.485063 -0.35562,0.711237 -0.64011,1.280227 -0.2845,0.497866 -0.2845,0.497866 0.2845,0.07112 0.85349,0.07112 0.56899,0 1.42247,-0.07112 0.78236,-0.142247 1.99147,-0.213371 1.2091,-0.142247 1.92034,0 1.63584,0 2.4182,0.640114 0.78236,0.568989 0.85349,1.991464 0.14225,0.782361 -0.35562,0.924609 -0.42674,0.142247 -2.34708,0.142247 -0.64012,0 -1.99147,0.07112 -1.35135,0.07112 -2.84495,0.142247 -1.42247,0.07112 -2.48933,0.213372 -0.99573,0.07112 -0.99573,0.213371 -0.21337,0.142247 -0.71124,1.351351 -0.42674,1.209103 -0.92461,2.773825 -0.42674,1.493599 -0.78236,2.702702 -0.49786,2.418207 -0.78236,4.836414 -0.21337,2.418207 -0.0711,4.1963 0.14224,1.778094 0.78236,2.489331 0.64011,0.640114 2.48933,0.284495 1.84922,-0.426742 2.9872,-1.351351 1.28022,-1.066856 2.06258,-1.066856 0.85349,0 0.92461,0.782361 0.14225,0.711237 -0.78236,2.062588 -0.85348,1.280228 -2.13371,2.27596 -1.28023,0.924608 -2.7027,1.351351 -1.35135,0.355618 -2.56046,0 z"
       style="font-style:normal;font-variant:normal;font-weight:normal;font-stretch:normal;font-size:71.1237px;font-family:Caveat;-inkscape-font-specification:'Caveat, Normal';font-variant-ligatures:normal;font-variant-caps:normal;font-variant-numeric:normal;font-feature-settings:normal;text-align:end;writing-mode:lr-tb;text-anchor:end;fill:#f450a9;fill-opacity:1;stroke-width:1.77809"
       id="path900" />
    <path
       d="m 611.75564,77.130824 q -0.35562,0.711238 -1.06686,0.426743 -0.64011,-0.284495 -1.06685,-0.56899 -0.49787,0 -0.85349,-0.284495 -0.35562,-0.284495 -0.49786,-0.853485 -0.14225,-0.426742 -0.0711,-0.995732 0.0711,-0.640114 0.2845,-1.422475 0.28449,-0.853485 0.56899,-1.849217 0.56899,-2.347083 0.78236,-3.413939 0.21337,-1.066856 0.42674,-1.849217 0.21337,-0.782361 0.56899,-2.27596 0.56899,-1.422474 0.92461,-2.773825 0.35562,-1.351351 1.06686,-2.702702 0.49786,-1.849217 1.2091,-3.485063 0.78236,-1.70697 1.4936,-2.844949 0.14224,-0.213372 0.49786,-0.56899 0.42675,-0.355619 0.71124,-0.355619 0.56899,-0.56899 0.99573,-0.426742 0.49787,0.07112 1.20911,0.640113 0.85348,0.924609 0.64011,2.133712 -0.14225,1.209104 -1.70697,3.556187 -0.85348,2.204836 -1.56472,3.840682 -0.71124,1.564722 -0.99573,2.987196 0.78236,-1.137979 1.70697,-2.062588 0.99573,-0.995732 1.63584,-1.635846 1.56472,-1.564722 2.56046,-2.275959 1.06685,-0.711238 2.48933,-1.635846 0.85348,-0.56899 1.63584,-0.995732 0.78236,-0.497867 1.70697,-0.711238 0.99573,-0.213371 2.13371,0 0.71124,-0.07112 1.13798,0.426743 0.49787,0.497866 0.78236,1.351351 0.2845,0.853484 0.35562,1.991464 -1.63584,-0.355618 -2.91607,0.142248 -1.28023,0.426742 -2.20484,1.066856 -0.85348,0.640113 -1.35135,0.995732 -1.06685,0.711237 -2.7027,1.920341 -1.63584,1.137979 -3.27169,2.773825 -1.28023,1.422475 -2.20484,2.418207 -0.85348,0.995733 -1.42247,1.778094 -0.49787,0.782361 -0.78236,1.635845 -0.71124,1.635846 -1.4936,3.556187 -0.78236,1.920341 -1.35135,2.347083 z"
       style="font-style:normal;font-variant:normal;font-weight:normal;font-stretch:normal;font-size:71.1237px;font-family:Caveat;-inkscape-font-specification:'Caveat, Normal';font-variant-ligatures:normal;font-variant-caps:normal;font-variant-numeric:normal;font-feature-settings:normal;text-align:end;writing-mode:lr-tb;text-anchor:end;fill:#f450a9;fill-opacity:1;stroke-width:1.77809"
       id="path902" />
    <path
       d="m 634.30178,76.206216 q -0.28449,-0.56899 -0.71124,-0.853485 -0.42674,-0.355619 -0.42674,-0.640114 0,-0.284495 -0.0711,-0.568989 0,-0.355619 -0.2845,-0.640114 -0.35562,-0.426742 0.0711,-1.920341 0.42674,-1.564722 1.42247,-3.769558 0.99573,-2.275959 2.34708,-4.76529 0.56899,-0.56899 1.13798,-1.493598 0.56899,-0.924609 0.85349,-1.209104 0,-0.284495 0.21337,-0.497866 0.21337,-0.284495 0.49787,-0.284495 V 59.13652 q 0,-0.355619 0.64011,-1.209104 0.71124,-0.853484 1.70697,-1.849217 0.99573,-1.066856 2.06259,-1.991464 1.06685,-0.995733 1.77809,-1.422475 1.4936,-0.995732 3.05832,-1.209103 1.63585,-0.213372 2.77383,0.711237 0.21337,0.213371 0.71123,0.711237 0.49787,0.497866 1.13798,1.13798 0.71124,0.56899 1.42248,1.209103 l 2.63158,2.347084 -1.28023,3.556186 q -0.92461,2.84495 -0.49787,4.978662 0.49787,2.133712 1.42248,3.698434 0.35562,0.782361 1.42247,1.493598 1.13798,0.711238 2.13371,0.853485 0.56899,0.07112 1.06686,0.426742 0.49787,0.355619 0.49787,1.13798 0,0.711237 -0.2845,1.13798 -0.28449,0.426742 -0.99573,0.56899 -2.34708,0.284495 -4.40967,-1.13798 -1.99147,-1.422475 -3.69844,-4.694166 -0.28449,-0.426743 -0.78236,-1.564723 -0.42674,-1.209103 -0.49786,-1.564722 -0.2845,0.355619 -1.06686,1.351351 -0.78236,0.924609 -1.2091,1.351351 -5.04979,5.120909 -8.74822,6.899002 -3.62731,1.70697 -6.04552,0.142248 z m 2.56045,-3.982929 q 0,0.497866 1.4936,0 1.56473,-0.56899 3.34282,-1.991465 2.41821,-2.062588 4.83641,-4.551919 2.48933,-2.48933 3.98293,-4.623042 l 1.56472,-2.560455 q -0.71123,-1.635846 -1.56472,-2.204836 -0.78236,-0.640113 -1.35135,-0.640113 -0.92461,0 -2.77383,1.706969 -1.77809,1.70697 -3.84068,4.551919 -2.06258,2.84495 -3.9118,6.258889 -0.71124,1.422475 -1.28023,2.773826 -0.49787,1.280227 -0.49787,1.280227 z"
       style="font-style:normal;font-variant:normal;font-weight:normal;font-stretch:normal;font-size:71.1237px;font-family:Caveat;-inkscape-font-specification:'Caveat, Normal';font-variant-ligatures:normal;font-variant-caps:normal;font-variant-numeric:normal;font-feature-settings:normal;text-align:end;writing-mode:lr-tb;text-anchor:end;fill:#f450a9;fill-opacity:1;stroke-width:1.77809"
       id="path904" />
    <path
       d="m 696.96165,75.779473 q -0.35562,-0.142247 -1.06686,-0.711237 -0.71123,-0.56899 -1.2091,-1.920341 -0.49787,-1.422474 -0.49787,-3.911805 0.0711,-2.133712 0.0711,-3.342816 0.0711,-1.209103 -0.49787,-1.209103 -0.56899,0 -2.20483,1.13798 -1.56473,1.066856 -3.62731,2.916073 -2.06259,1.849217 -4.1963,4.125176 -0.71124,0.782361 -1.42248,1.493599 -0.64011,0.640113 -1.28023,0.853485 -0.64011,0.142247 -1.49359,-0.497867 l -0.78237,-0.640113 q -0.35561,-0.355619 -0.42674,-0.711238 -0.0711,-0.426742 0.0711,-0.924608 l 1.63584,-4.694166 q 1.13798,-2.560455 1.56472,-3.698435 0.42675,-1.209103 0.42675,-1.493598 0,-0.355619 -0.21337,-0.284495 -0.56899,0.07112 -1.70697,0.711237 -1.13798,0.56899 -1.4936,1.13798 -0.2845,0 -0.85349,0.640114 -0.56899,0.640113 -1.42247,1.209103 -0.49787,0.853485 -1.99147,2.204836 -1.42247,1.351351 -2.84495,2.773826 -0.9246,0.782361 -1.84921,1.92034 -0.85349,1.13798 -1.4936,1.991465 -0.56899,0.853485 -0.78236,0.853485 -0.92461,0 -1.70697,-0.497866 -0.71124,-0.497867 -1.06686,-1.635846 -0.56899,-1.209104 0,-3.342816 0.56899,-2.204836 1.28023,-5.689898 0.28449,-1.066856 0.35562,-1.564723 0.0711,-0.497866 0.21337,-0.995732 0.21337,-0.56899 0.64011,-1.706969 0.49787,-1.13798 1.4936,-3.41394 0.49787,-1.351351 0.56899,-1.991464 0.14225,-0.711238 0.14225,-0.995733 0,-0.711237 0.35562,-1.209103 0.42674,-0.497866 0.99573,-0.711237 0.56899,-0.213372 1.06686,-0.07112 0.78236,0.142247 1.35135,0.782361 0.64011,0.640114 0.71123,1.778093 0.0711,0.853485 -0.14224,1.564723 -0.21338,0.640113 -0.42675,1.209103 l -0.78236,1.920341 q -0.35562,0.782361 -0.92461,2.275959 -0.56899,1.493599 -0.99573,2.773826 -0.42674,1.209103 -0.42674,1.422475 0.0711,0.213371 0.49787,-0.07112 0.42674,-0.355619 1.06685,-0.924609 0.71124,-0.640113 1.42248,-1.209103 1.49359,-1.422475 3.34281,-2.702702 1.92034,-1.351351 3.62731,-2.27596 1.70697,-0.924608 2.63158,-1.209103 1.2091,0 1.63585,0.426742 0.49786,0.426743 1.63584,1.564723 0.49787,0.497866 0.56899,1.280227 0.0711,0.782361 -0.0711,1.493598 -0.0711,0.284495 -0.42674,1.422475 -0.35562,1.066856 -0.71124,2.062588 -0.2845,0.995732 -0.2845,0.995732 0,0 0.78236,-0.711237 0.85349,-0.711237 1.84922,-1.493598 0.99573,-0.853485 1.4936,-1.280228 2.77383,-2.133712 4.83641,-2.702701 2.06259,-0.56899 3.34282,1.493598 0.85348,0.782361 0.85348,1.70697 0.0711,0.924608 0.0711,3.200568 0.0711,0.924608 0.14225,2.204835 0.0711,1.280227 0.14224,2.347083 0.14225,0.995733 0.2845,1.209104 0.21337,0.284495 0.78236,0.497866 0.64011,0.142248 1.63584,0.284495 1.06686,0.142247 1.28023,0.924609 0.21337,0.782361 -0.92461,1.493598 -1.06685,0.640114 -2.34708,0.56899 -1.28023,-0.07112 -2.27596,-0.426743 z"
       style="font-style:normal;font-variant:normal;font-weight:normal;font-stretch:normal;font-size:71.1237px;font-family:Caveat;-inkscape-font-specification:'Caveat, Normal';font-variant-ligatures:normal;font-variant-caps:normal;font-variant-numeric:normal;font-feature-settings:normal;text-align:end;writing-mode:lr-tb;text-anchor:end;fill:#f450a9;fill-opacity:1;stroke-width:1.77809"
       id="path906" />
    <path
       d="m 712.18209,76.063968 q -1.4936,0.284495 -1.92034,0.213372 -0.35562,-0.142248 -1.13798,-0.853485 -1.13798,-0.56899 -1.92034,-1.422475 -0.71124,-0.853485 -1.06685,-1.778093 -0.2845,-0.995733 -0.21338,-1.635846 0.21338,-2.489331 1.20911,-5.33428 0.99573,-2.844949 2.4182,-5.476528 1.42248,-2.631578 3.05833,-4.480795 1.70696,-1.920341 3.27169,-2.489331 1.42247,-0.568989 2.7027,-0.426742 1.28023,0.142248 1.84922,1.351351 1.06685,2.062588 -0.49787,2.631578 -0.21337,0 -0.49787,0.213371 -0.28449,0.142248 -0.28449,0.426743 0.28449,0.142247 1.56472,0.07112 1.28023,-0.142248 2.56046,-0.426743 1.35135,-0.355619 1.77809,-0.711237 0.42674,-0.213371 0.64011,-0.213371 0.21337,0 1.06686,0.142247 1.2091,0.355619 1.2091,0.853485 0,0.284495 0.21337,0.56899 0.21337,0.213371 0.49787,0.213371 0.49787,0.07112 -0.14225,0.640114 -0.56899,0.568989 -1.99146,1.564722 -1.35135,0.853484 -1.70697,1.137979 -0.2845,0.213372 -0.0711,0.995733 0.56899,1.351351 0.0711,3.129444 -0.49787,1.778093 -1.7781,3.62731 -1.28022,1.849217 -3.12944,3.485063 -1.77809,1.564722 -3.84068,2.702702 -1.99147,1.066856 -3.91181,1.280227 z m -1.2091,-3.129444 q 0.28449,0 0.99573,-0.284495 0.71124,-0.355619 1.13798,-0.56899 0.2845,-0.284495 0.71124,-0.640113 0.49786,-0.426743 0.78236,-0.497866 0.28449,0 0.71124,-0.213372 0.42674,-0.284495 1.2091,-1.066856 0.78236,-0.853484 2.06259,-2.48933 1.42247,-1.564722 2.20483,-2.84495 0.78237,-1.351351 0.42675,-2.48933 -0.0711,-0.284495 -0.42675,-0.355619 -0.28449,-0.07112 -0.78236,-0.355619 -0.71123,0 -1.35135,-0.355618 -0.56899,-0.426743 -1.35135,-1.066856 l -1.13798,-1.422475 -1.2091,1.209103 q -1.13798,1.13798 -2.41821,3.41394 -1.2091,2.204835 -2.06259,4.551919 -0.85348,2.275959 -0.99573,3.62731 -0.0711,1.066856 0.35562,1.422475 0.42674,0.355618 1.13798,0.426742 z"
       style="font-style:normal;font-variant:normal;font-weight:normal;font-stretch:normal;font-size:71.1237px;font-family:Caveat;-inkscape-font-specification:'Caveat, Normal';font-variant-ligatures:normal;font-variant-caps:normal;font-variant-numeric:normal;font-feature-settings:normal;text-align:end;writing-mode:lr-tb;text-anchor:end;fill:#f450a9;fill-opacity:1;stroke-width:1.77809"
       id="path908" />
    <path
       d="m 736.57745,78.126557 q -1.77809,0.142247 -3.41394,-0.213372 -1.56472,-0.355618 -2.7027,-1.209103 -1.06685,-0.924609 -1.4936,-2.204836 -0.49786,-0.995732 -0.49786,-1.351351 0,-0.426742 0.49786,-0.711237 0.56899,0 0.99574,0.355619 0.49786,0.284495 1.28022,0.640113 1.06686,0.924609 2.56046,0.995732 1.56472,0.07112 2.84495,-0.497866 1.28022,-0.56899 1.42247,-1.422474 0,-0.284495 -0.21337,-0.995733 -0.21337,-0.711237 -0.49787,-1.493598 -1.92034,-2.702702 -2.84494,-5.33428 -0.85349,-2.702702 -0.85349,-4.409671 0,-1.280228 0.78236,-2.702702 0.78236,-1.493599 2.13371,-2.489331 1.28023,-1.351351 2.84495,-2.418207 1.56472,-1.066856 3.12945,-1.849217 1.63584,-0.782361 2.91607,-1.13798 0.78236,0 2.06259,0.213371 1.28023,0.213372 1.77809,0.497867 0.78236,0.284494 1.4936,1.564722 0.71124,1.209103 0.71124,2.418207 0,0.497866 -0.2845,1.280227 -0.28449,0.782361 -0.92461,1.849217 -0.28449,0.782361 -0.64011,1.493598 -0.35562,0.640114 -0.35562,0.924609 -0.35562,0.782361 -0.99573,0.782361 -0.56899,-0.07112 -1.2091,-0.640114 -0.56899,-0.640113 -0.92461,-1.493598 -0.2845,-1.066856 -0.21337,-1.70697 0.0711,-0.711237 0.56899,-1.493598 0.78236,-0.782361 0.78236,-1.066856 0,-0.284495 -0.78236,-0.284495 -0.49787,0 -1.84922,0.640114 -1.28023,0.568989 -2.77383,1.564722 -1.42247,0.924608 -2.48933,1.991464 -1.35135,1.280227 -1.63584,1.849217 -0.21337,0.56899 -0.21337,1.778094 0,0.995732 0.42674,2.48933 0.49786,1.493599 0.99573,1.991465 0,0 0.49787,0.995732 0.49786,0.924609 1.2091,1.991465 2.06259,4.551919 1.06686,6.543383 -0.99574,1.991465 -5.19204,2.27596 z"
       style="font-style:normal;font-variant:normal;font-weight:normal;font-stretch:normal;font-size:71.1237px;font-family:Caveat;-inkscape-font-specification:'Caveat, Normal';font-variant-ligatures:normal;font-variant-caps:normal;font-variant-numeric:normal;font-feature-settings:normal;text-align:end;writing-mode:lr-tb;text-anchor:end;fill:#f450a9;fill-opacity:1;stroke-width:1.77809"
       id="path910" />
    <path
       d="m 776.26439,77.059701 q -2.77383,-1.13798 -3.62731,-3.129445 -0.78236,-2.062588 -0.2845,-6.330012 0.14225,-2.204836 0.14225,-2.916073 0,-0.711237 -0.78236,-1.422475 -0.21337,-0.284495 -0.78236,-0.782361 -0.49787,-0.497866 -0.42675,-0.853485 -0.0711,-0.497866 0.0711,-1.066856 0.14225,-0.640113 0.42674,-0.640113 0.2845,0 0.56899,-0.142248 0.35562,-0.142247 0.64011,0 0.2845,0 0.64012,0.07112 0.35562,0.07112 0.35562,0.355619 0.28449,0.497866 0.9246,0.142247 0.64012,-0.426742 1.35136,-1.849217 0.71123,-1.13798 1.84921,-2.275959 1.20911,-1.13798 2.34709,-2.062589 1.2091,-0.995732 1.99146,-1.422474 0.35562,-0.142248 1.06686,-0.355619 0.71123,-0.213371 1.4936,-0.355619 0.85348,-0.142247 1.42247,-0.07112 1.28023,0.07112 2.13371,0.711237 0.92461,0.640114 1.70697,1.493598 0.92461,0.640114 1.13798,1.70697 0.2845,1.066856 0.14225,2.27596 -0.14225,1.209103 -0.64012,2.204835 -0.21337,0.711238 -1.2091,1.70697 -0.99573,0.995732 -2.27596,1.920341 -1.28023,0.924608 -2.34708,1.351351 -0.92461,0.213371 -2.41821,0.355618 -1.42247,0.142248 -2.7027,0.142248 -1.2091,-0.07112 -1.63585,-0.284495 -0.49786,-0.284495 -0.78236,0.782361 -0.28449,1.066856 -0.42674,3.05832 -0.14225,1.564723 0,2.27596 0.14225,0.711237 0.2845,0.995732 0.49786,0.497866 1.35135,1.280227 0.92461,0.711238 2.56045,0.213372 1.35135,-0.355619 2.63158,-1.849218 1.35135,-1.493598 2.48933,-2.418206 0.28449,-0.497867 0.92461,-0.56899 0.71124,-0.142248 1.4936,0.07112 0.78236,0.497867 0.64011,1.209104 -0.0711,0.640113 -0.71124,1.991464 -0.21337,0.497867 -0.99573,1.280228 -0.71124,0.711237 -1.63585,1.493598 -0.85348,0.711237 -1.56472,1.13798 -2.13371,1.137979 -3.98293,1.209103 -1.84921,0 -3.55618,-0.640113 z m 4.1963,-14.438118 q 1.56472,-0.355619 2.48933,-0.497866 0.92461,-0.142248 1.77809,-0.782361 0.85349,-0.711238 2.13371,-2.631579 0.2845,-0.782361 0.14225,-1.564722 -0.0711,-0.782361 -0.35562,-1.066856 -0.64011,-0.711237 -1.56472,-0.426742 -0.85348,0.213371 -1.63585,0.782361 -0.49786,0.213371 -1.49359,1.066856 -0.92461,0.782361 -1.84922,1.849217 -0.92461,0.995732 -1.4936,1.849217 -0.56899,0.853485 -0.28449,0.995732 -0.14225,0.284495 0.78236,0.355619 0.99573,0.07112 1.35135,0.07112 z"
       style="font-style:normal;font-variant:normal;font-weight:normal;font-stretch:normal;font-size:71.1237px;font-family:Caveat;-inkscape-font-specification:'Caveat, Normal';font-variant-ligatures:normal;font-variant-caps:normal;font-variant-numeric:normal;font-feature-settings:normal;text-align:end;writing-mode:lr-tb;text-anchor:end;fill:#f450a9;fill-opacity:1;stroke-width:1.77809"
       id="path912" />
    <path
       d="m 797.81478,75.637226 q -0.2845,0 -0.85349,-0.355619 -0.49786,-0.426742 -0.78236,-0.711237 -0.49786,-0.56899 -0.64011,-1.13798 -0.0711,-0.56899 -0.0711,-2.560454 0,-2.27596 0.92461,-4.907538 0.92461,-2.702702 3.12945,-7.539116 l 2.34708,-4.978661 q 0.28449,-0.56899 0.49787,-0.853485 0.28449,-0.284495 0.49786,-0.56899 0.2845,0 0.49787,0 0.21337,0 0.21337,0 0.56899,0 1.13798,0.711238 0.56899,0.640113 0.85348,1.422474 0,0.924609 -0.28449,1.920341 -0.21337,0.995733 -1.70697,2.987197 -0.49787,0.782361 -1.35135,2.631578 -0.78236,1.849217 -1.06686,3.200568 -0.0711,0.07112 -0.28449,0.640114 -0.21337,0.497866 -0.49787,1.13798 -0.21337,0.640113 -0.49786,1.209103 l -0.35562,1.564722 4.76529,-4.907537 q 3.34281,-3.342816 5.4054,-4.765291 2.06259,-1.422474 3.27169,-1.209103 1.20911,0.213371 2.06259,1.920341 0.49787,0.782361 0.71124,1.422474 0.28449,0.56899 0.35562,1.564723 0.0711,0.995732 -0.14225,2.987196 v 4.409672 q 1.06686,-0.284495 1.70697,-0.497866 0.64011,-0.284495 1.35135,-0.56899 0.64011,-0.284495 1.4936,-0.497866 0.85348,-0.284495 2.13371,-0.355619 -0.0711,0.924609 -0.64011,1.991465 -0.56899,0.995732 -1.42248,1.92034 -0.85348,0.924609 -1.92034,1.493599 -0.99573,0.56899 -1.99146,0.56899 -0.92461,0 -2.06259,-0.924609 -1.13798,-0.924608 -1.63585,-2.062588 -0.28449,-0.782361 -0.35562,-1.70697 0,-0.924608 0,-3.413939 v -2.631578 q 0,-1.13798 -0.71123,-0.640114 -0.64012,0.426743 -1.06686,0.782361 -1.06686,0.924609 -2.27596,2.133712 -1.13798,1.209104 -2.34708,2.489331 -3.27169,3.413939 -5.47653,5.049785 -2.13371,1.635846 -2.91607,1.635846 z"
       style="font-style:normal;font-variant:normal;font-weight:normal;font-stretch:normal;font-size:71.1237px;font-family:Caveat;-inkscape-font-specification:'Caveat, Normal';font-variant-ligatures:normal;font-variant-caps:normal;font-variant-numeric:normal;font-feature-settings:normal;text-align:end;writing-mode:lr-tb;text-anchor:end;fill:#f450a9;fill-opacity:1;stroke-width:1.77809"
       id="path914" />
    <path
       d="m 503.00783,164.83628 q -0.35562,-0.14224 -1.06685,-0.71123 -0.71124,-0.56899 -1.20911,-1.92034 -0.49786,-1.42248 -0.49786,-3.91181 0.0711,-2.13371 0.0711,-3.34282 0.0711,-1.2091 -0.49787,-1.2091 -0.56899,0 -2.20483,1.13798 -1.56472,1.06686 -3.62731,2.91607 -2.06259,1.84922 -4.1963,4.12518 -0.71124,0.78236 -1.42248,1.4936 -0.64011,0.64011 -1.28022,0.85348 -0.64012,0.14225 -1.4936,-0.49786 l -0.78236,-0.64012 q -0.35562,-0.35561 -0.42675,-0.71123 -0.0711,-0.42675 0.0711,-0.92461 l 1.63584,-4.69417 q 1.13798,-2.56045 1.56473,-3.69843 0.42674,-1.20911 0.42674,-1.4936 0,-0.35562 -0.21337,-0.2845 -0.56899,0.0711 -1.70697,0.71124 -1.13798,0.56899 -1.4936,1.13798 -0.2845,0 -0.85349,0.64012 -0.56899,0.64011 -1.42247,1.2091 -0.49787,0.85348 -1.99147,2.20483 -1.42247,1.35136 -2.84495,2.77383 -0.9246,0.78236 -1.84921,1.92034 -0.85349,1.13798 -1.4936,1.99147 -0.56899,0.85348 -0.78236,0.85348 -0.92461,0 -1.70697,-0.49787 -0.71124,-0.49786 -1.06686,-1.63584 -0.56899,-1.20911 0,-3.34282 0.56899,-2.20483 1.28023,-5.6899 0.28449,-1.06685 0.35562,-1.56472 0.0711,-0.49786 0.21337,-0.99573 0.21337,-0.56899 0.64011,-1.70697 0.49787,-1.13798 1.4936,-3.41394 0.49787,-1.35135 0.56899,-1.99146 0.14225,-0.71124 0.14225,-0.99574 0,-0.71123 0.35562,-1.2091 0.42674,-0.49787 0.99573,-0.71124 0.56899,-0.21337 1.06686,-0.0711 0.78236,0.14225 1.35135,0.78236 0.64011,0.64011 0.71123,1.77809 0.0711,0.85349 -0.14224,1.56473 -0.21337,0.64011 -0.42675,1.2091 l -0.78236,1.92034 q -0.35562,0.78236 -0.92461,2.27596 -0.56898,1.4936 -0.99573,2.77383 -0.42674,1.2091 -0.42674,1.42247 0.0711,0.21337 0.49787,-0.0711 0.42674,-0.35562 1.06685,-0.92461 0.71124,-0.64012 1.42248,-1.20911 1.4936,-1.42247 3.34281,-2.7027 1.92034,-1.35135 3.62731,-2.27596 1.70697,-0.92461 2.63158,-1.2091 1.2091,0 1.63585,0.42674 0.49786,0.42674 1.63584,1.56472 0.49787,0.49787 0.56899,1.28023 0.0711,0.78236 -0.0711,1.4936 -0.0711,0.28449 -0.42674,1.42247 -0.35562,1.06686 -0.71124,2.06259 -0.2845,0.99573 -0.2845,0.99573 0,0 0.78237,-0.71123 0.85348,-0.71124 1.84921,-1.4936 0.99573,-0.85349 1.4936,-1.28023 2.77383,-2.13371 4.83641,-2.7027 2.06259,-0.56899 3.34282,1.4936 0.85349,0.78236 0.85349,1.70697 0.0711,0.92461 0.0711,3.20057 0.0711,0.9246 0.14225,2.20483 0.0711,1.28023 0.14224,2.34708 0.14225,0.99574 0.2845,1.20911 0.21337,0.28449 0.78236,0.49786 0.64011,0.14225 1.63585,0.2845 1.06685,0.14225 1.28022,0.92461 0.21337,0.78236 -0.92461,1.4936 -1.06685,0.64011 -2.34708,0.56899 -1.28023,-0.0711 -2.27596,-0.42675 z"
       style="font-style:normal;font-variant:normal;font-weight:normal;font-stretch:normal;font-size:71.1237px;font-family:Caveat;-inkscape-font-specification:'Caveat, Normal';font-variant-ligatures:normal;font-variant-caps:normal;font-variant-numeric:normal;font-feature-settings:normal;text-align:end;writing-mode:lr-tb;text-anchor:end;fill:#f450a9;fill-opacity:1;stroke-width:1.77809"
       id="path916" />
    <path
       d="m 511.25815,165.26303 q -0.2845,-0.56899 -0.71124,-0.85349 -0.42674,-0.35562 -0.42674,-0.64011 0,-0.2845 -0.0711,-0.56899 0,-0.35562 -0.28449,-0.64012 -0.35562,-0.42674 0.0711,-1.92034 0.42675,-1.56472 1.42248,-3.76955 0.99573,-2.27596 2.34708,-4.76529 0.56899,-0.56899 1.13798,-1.4936 0.56899,-0.92461 0.85349,-1.20911 0,-0.28449 0.21337,-0.49786 0.21337,-0.2845 0.49786,-0.2845 v -0.42674 q 0,-0.35562 0.64012,-1.2091 0.71123,-0.85349 1.70697,-1.84922 0.99573,-1.06686 2.06258,-1.99147 1.06686,-0.99573 1.7781,-1.42247 1.4936,-0.99573 3.05832,-1.2091 1.63584,-0.21337 2.77382,0.71123 0.21338,0.21338 0.71124,0.71124 0.49787,0.49787 1.13798,1.13798 0.71124,0.56899 1.42248,1.2091 l 2.63157,2.34709 -1.28022,3.55618 q -0.92461,2.84495 -0.49787,4.97867 0.49787,2.13371 1.42248,3.69843 0.35561,0.78236 1.42247,1.4936 1.13798,0.71124 2.13371,0.85348 0.56899,0.0711 1.06686,0.42675 0.49786,0.35561 0.49786,1.13798 0,0.71123 -0.28449,1.13798 -0.2845,0.42674 -0.99573,0.56899 -2.34709,0.28449 -4.40967,-1.13798 -1.99147,-1.42248 -3.69844,-4.69417 -0.28449,-0.42674 -0.78236,-1.56472 -0.42674,-1.20911 -0.49787,-1.56473 -0.28449,0.35562 -1.06685,1.35136 -0.78236,0.9246 -1.20911,1.35135 -5.04978,5.12091 -8.74821,6.899 -3.62732,1.70697 -6.04552,0.14225 z m 2.56045,-3.98293 q 0,0.49786 1.4936,0 1.56472,-0.56899 3.34282,-1.99147 2.4182,-2.06259 4.83641,-4.55192 2.48933,-2.48933 3.98293,-4.62304 l 1.56472,-2.56045 q -0.71124,-1.63585 -1.56472,-2.20484 -0.78236,-0.64011 -1.35135,-0.64011 -0.92461,0 -2.77383,1.70697 -1.77809,1.70697 -3.84068,4.55192 -2.06259,2.84495 -3.9118,6.25888 -0.71124,1.42248 -1.28023,2.77383 -0.49787,1.28023 -0.49787,1.28023 z"
       style="font-style:normal;font-variant:normal;font-weight:normal;font-stretch:normal;font-size:71.1237px;font-family:Caveat;-inkscape-font-specification:'Caveat, Normal';font-variant-ligatures:normal;font-variant-caps:normal;font-variant-numeric:normal;font-feature-settings:normal;text-align:end;writing-mode:lr-tb;text-anchor:end;fill:#f450a9;fill-opacity:1;stroke-width:1.77809"
       id="path918" />
    <path
       d="m 563.88959,166.97 q -0.71123,0 -1.49359,-0.78237 -0.71124,-0.78236 -1.28023,-1.92034 -0.49787,-1.2091 -0.49787,-2.27596 0,-1.06685 0.49787,-3.98292 0.56899,-2.91608 1.35135,-5.90327 0.56899,-1.84922 0.35562,-2.13372 -0.21337,-0.28449 -1.92034,0.78236 -0.99573,0.49787 -1.7781,1.06686 -0.78236,0.49787 -1.35135,1.13798 -0.35561,0.2845 -1.06685,0.92461 -0.71124,0.64011 -1.4936,1.2091 -0.92461,0.71124 -2.34708,1.99147 -1.42248,1.28022 -2.84495,2.56045 -1.35135,1.28023 -2.06259,1.99147 -0.14225,0.28449 -0.42674,0.49786 -0.2845,0.21337 -0.64012,0.2845 -0.35562,0 -0.78236,-0.14225 -0.78236,-0.21337 -1.4936,-0.92461 -0.64011,-0.71124 -0.64011,-1.63585 0,-0.71123 0.56899,-2.4182 0.56899,-1.7781 1.4936,-4.26743 0.99573,-2.48933 2.27596,-5.26315 0.21337,-0.35562 0.35562,-0.85349 0.14224,-0.56899 0.21337,-1.2091 0.14224,-0.64011 0.14224,-1.2091 0,-0.35562 0.0711,-0.71124 0.14225,-0.42674 0.28449,-0.78236 0.21337,-0.42674 0.35562,-0.56899 0.2845,-0.56899 0.99573,-0.2845 0.71124,0.21337 1.20911,0.99573 1.06685,0.99574 1.06685,2.48934 0.0711,1.49359 -0.71123,3.69843 -0.2845,0.49787 -0.49787,0.99573 -0.14225,0.42674 -0.28449,0.78236 -0.14225,0.2845 -0.21338,0.49787 -0.0711,0.14225 -0.0711,0.14225 0.2845,0 1.28023,-0.64012 0.99573,-0.64011 2.34708,-1.42247 1.06686,-0.78236 1.84922,-1.42248 0.85348,-0.71123 1.42247,-1.06685 0.56899,-0.42674 0.71124,-0.42674 0.28449,0 0.71124,-0.21338 0.42674,-0.21337 0.71123,-0.49786 0.2845,-0.2845 0.42675,-0.2845 0.21337,-0.0711 0.21337,-0.0711 0,0 0.28449,0 0.2845,-0.0711 0.56899,-0.35562 0.56899,-0.42674 1.4936,-0.21337 0.92461,0.14225 1.70697,0.71124 0.78236,0.56899 0.78236,1.28022 0,0.2845 0.14225,0.49787 0.21337,0.14225 0.21337,0.14225 0.56899,0 0.71124,1.77809 0.21337,1.77809 -0.35562,3.41394 0,1.06686 -0.42674,2.56045 -0.35562,1.4936 -0.64012,2.84495 -0.56899,1.7781 -0.78236,3.12945 -0.21337,1.35135 -0.0711,2.27596 0.14225,0.92461 0.49786,1.4936 0.2845,0.49786 0,1.13798 -0.28449,0.56899 -1.13798,0.56899 z"
       style="font-style:normal;font-variant:normal;font-weight:normal;font-stretch:normal;font-size:71.1237px;font-family:Caveat;-inkscape-font-specification:'Caveat, Normal';font-variant-ligatures:normal;font-variant-caps:normal;font-variant-numeric:normal;font-feature-settings:normal;text-align:end;writing-mode:lr-tb;text-anchor:end;fill:#f450a9;fill-opacity:1;stroke-width:1.77809"
       id="path920" />
    <path
       d="m 580.24797,171.37967 q -2.34708,-0.35562 -3.20056,-1.7781 -0.78237,-1.35135 -0.35562,-4.1963 0.42674,-1.35135 0.49786,-2.4182 0.14225,-1.13798 0.64012,-1.42248 0,0 0.0711,-0.21337 0.14225,-0.21337 -0.0711,-0.42674 0,-0.92461 0.64011,-2.56046 0.14225,-0.42674 0.35562,-0.99573 0.28449,-0.64011 0.28449,-0.64011 -0.35562,-0.56899 0,-0.92461 0.35562,-0.35562 0.71124,-0.64011 0.42674,-0.35562 0.0711,-0.78237 -0.14224,-0.28449 0.35562,-1.28022 0.49787,-1.06686 1.13798,-2.20484 0.64012,-1.13798 0.85349,-1.77809 0,-0.14225 0.35562,-0.99573 0.35562,-0.85349 0.85348,-1.99147 0.49787,-1.13798 0.92461,-2.06259 0.49787,-0.92461 0.64011,-1.2091 0.71124,-0.35562 -0.56899,-0.49787 -1.28022,-0.14224 -2.7027,-0.0711 -2.20483,-0.0711 -3.55618,-0.21337 -1.28023,-0.14225 -2.13372,-0.64011 -0.85348,-0.99574 -0.64011,-1.42248 0.28449,-0.49787 1.70697,-0.56899 0.92461,-0.0711 1.42247,-0.0711 0.56899,0 1.42248,-0.0711 0.92461,-0.14224 2.84495,-0.35562 l 3.62731,-0.28449 0.21337,-1.2091 q 0.56899,-0.92461 0.92461,-1.63585 0.42674,-0.78236 0.71124,-1.56472 0.28449,-0.78236 0.42674,-1.63585 0,0 0.64011,-1.13798 0.64011,-1.2091 0.78236,-2.48933 0.85349,-1.42247 1.4936,-2.56045 0.64011,-1.20911 0.78236,-1.4936 0.78236,-0.64011 1.06686,-0.64011 0.35562,0 1.42247,0.71123 0.64012,0.35562 1.13798,0.85349 0.49787,0.49786 0.64012,1.06685 0.14224,0.49787 -0.42675,0.99574 -0.14224,0.28449 -0.42674,1.06685 -0.28449,0.71124 -0.42674,1.20911 -0.42674,0.49786 -1.06686,1.63584 -0.56899,1.06686 -0.78236,2.20484 -0.56899,1.2091 -1.06685,2.20483 -0.49787,0.92461 -0.78237,0.92461 0.14225,0.71124 0.85349,0.71124 0.71124,-0.0711 2.34708,-0.14225 1.35135,-0.14225 1.84922,-0.28449 0.56899,-0.21337 1.28023,0.14224 0.35562,0.49787 0.56899,1.13798 0.21337,0.64012 0.0711,1.20911 -0.0711,0.49786 -0.56899,0.71123 -0.35562,0 -1.4936,0.42675 -1.06685,0.35562 -2.7027,0.42674 l -3.76956,0.35562 -1.2091,2.4182 q -0.49787,0.92461 -0.85349,1.70697 -0.35561,0.71124 -0.49786,0.85349 0,0.42674 -0.49787,1.28023 -0.42674,0.85348 -0.92461,1.84921 -0.42674,1.20911 -0.99573,2.20484 -0.49787,0.99573 -0.49787,0.99573 -0.28449,0 -0.28449,0.42674 0.35562,0.85349 -0.21337,1.28023 -0.35562,0.21337 -0.64011,0.64011 -0.21338,0.35562 -0.21338,0.35562 0.2845,0.2845 0.0711,0.71124 -0.14225,0.42674 -0.42674,0.92461 0,0.56899 -0.35562,1.63585 -0.2845,1.06685 -0.64012,1.99146 0.0711,1.28023 0.14225,1.63585 0.0711,0.35561 0.35562,0.28449 0.35562,0.0711 0.64011,0 0.2845,-0.0711 0.56899,-0.0711 0.99573,-0.42675 -1.06685,4.97866 -1.13798,1.77809 -1.56473,2.56045 -0.42674,0.85349 -0.78236,0.85349 z"
       style="font-style:normal;font-variant:normal;font-weight:normal;font-stretch:normal;font-size:71.1237px;font-family:Caveat;-inkscape-font-specification:'Caveat, Normal';font-variant-ligatures:normal;font-variant-caps:normal;font-variant-numeric:normal;font-feature-settings:normal;text-align:end;writing-mode:lr-tb;text-anchor:end;fill:#f450a9;fill-opacity:1;stroke-width:1.77809"
       id="path922" />
    <path
       d="m 604.21662,168.03685 q -3.12944,0 -5.1209,-2.34708 -1.99147,-2.41821 -1.92035,-5.9744 0.14225,-2.56045 0.99574,-5.47652 0.92461,-2.9872 2.4182,-5.6899 1.4936,-2.77383 3.2717,-4.83642 1.77809,-2.06258 3.69843,-2.91607 0.71124,-0.35562 1.4936,-0.56899 0.85348,-0.21337 1.70697,-0.21337 0.78236,0 1.63584,0.2845 0.85349,0.21337 1.42248,0.49786 1.2091,0.49787 1.84922,1.20911 0.64011,0.71123 1.13797,2.20483 0.21338,1.35135 0.21338,1.92034 0,0.56899 -0.35562,1.70697 -0.85349,2.56046 -2.20484,4.40967 -1.35135,1.84922 -3.62731,3.12945 -0.56899,0.35562 -1.35135,0.56899 -0.71124,0.14224 -1.4936,0.14224 -1.42247,0 -2.77382,-0.49786 -1.28023,-0.56899 -2.06259,-1.63585 l -0.49787,-0.56899 -0.21337,0.56899 q -0.71124,1.92034 -1.13798,3.55619 -0.35562,1.63585 -0.35562,2.9872 0,0.85348 0.14225,1.63584 0.21337,0.78236 0.56899,1.35135 0.28449,0.42675 0.92461,0.64012 0.71124,0.14224 1.4936,0.14224 0.49786,0 0.99573,0 0.56899,-0.0711 1.06685,-0.28449 1.20911,-0.42674 1.92035,-0.92461 0.78236,-0.49787 1.56472,-1.06686 l 0.28449,-0.14224 h -0.0711 q 0.85348,-0.42675 1.4936,-0.85349 0.71123,-0.42674 0.71123,-0.42674 0.2845,0 0.56899,-0.35562 0.56899,-0.28449 1.42248,0.21337 0.92461,0.49787 0.92461,1.28023 -0.0711,0.35562 -0.64012,1.13798 -0.56899,0.71124 -1.28022,1.35135 -0.64012,0.64011 -1.06686,0.71124 -0.0711,0.0711 -0.49787,0.28449 -0.42674,0.14225 -0.56899,0.2845 h 0.0711 q -0.64011,0.85348 -1.28023,0.85348 h -0.56899 q -0.28449,0.49787 -1.84922,1.13798 -1.56472,0.56899 -3.05832,0.56899 z m 3.20057,-15.64722 q 1.28023,0 2.20484,-0.71124 0.99573,-0.78236 1.70697,-1.70697 1.42247,-1.92034 1.63584,-3.69843 0.2845,-1.84922 -0.42674,-2.56046 -0.42674,-0.21337 -0.78236,-0.21337 -0.2845,-0.0711 -1.2091,0.21337 -0.64012,0.14225 -1.7781,1.06686 -1.13798,0.92461 -2.27596,2.06259 -1.06685,1.13798 -1.63584,1.92034 l -0.92461,1.4936 q 0.56899,-0.21337 1.06686,-0.21337 0.56898,-0.0711 0.64011,0.0711 0,0.64011 0.21337,1.2091 0.28449,0.49787 0.64011,0.78237 0.42675,0.28449 0.92461,0.28449 z"
       style="font-style:normal;font-variant:normal;font-weight:normal;font-stretch:normal;font-size:71.1237px;font-family:Caveat;-inkscape-font-specification:'Caveat, Normal';font-variant-ligatures:normal;font-variant-caps:normal;font-variant-numeric:normal;font-feature-settings:normal;text-align:end;writing-mode:lr-tb;text-anchor:end;fill:#f450a9;fill-opacity:1;stroke-width:1.77809"
       id="path924" />
    <path
       d="m 645.68167,164.55179 q -1.42247,0 -2.34708,-0.56899 -0.92461,-0.64011 -1.56472,-2.06259 -0.2845,-0.99573 -0.49787,-2.20484 -0.14224,-1.28022 -0.14224,-2.34708 0,-1.13798 0.21337,-1.4936 0.28449,-0.28449 0.21337,-0.99573 0,-0.78236 0,-1.63584 -0.0711,-1.42248 -0.71124,-1.56473 -0.56899,-0.21337 -1.70697,0.42675 -1.28023,0.78236 -3.34281,2.13371 -2.06259,1.28022 -4.33855,2.84495 -2.20484,1.56472 -4.1963,3.27169 -1.56472,1.70697 -1.92034,2.63158 -0.2845,0.85348 -0.85349,0.85348 -0.56899,0.2845 -0.99573,0.0711 -0.35562,-0.2845 -1.06686,-0.85349 -0.49786,-0.56899 -0.99573,-1.06686 -0.49786,-0.56899 -0.64011,-0.85348 0,-0.35562 0.21337,-1.4936 0.21337,-1.13798 0.49787,-2.27596 0.35561,-1.13798 0.49786,-1.4936 0.35562,0 0.56899,-0.71123 0.2845,-0.71124 0.85349,-1.56473 0.14224,-0.85348 0.71123,-2.27596 0.64012,-1.49359 1.13798,-2.63157 0.99574,-1.70697 1.35135,-2.84495 0.42675,-1.13798 0.56899,-2.84495 -0.0711,-0.2845 0.14225,-0.49787 0.21337,-0.28449 0.49787,-0.28449 v 0 0 q 0.56899,-0.56899 1.35135,-0.2845 0.78236,0.21337 1.42247,1.06686 1.28023,1.70697 0.99574,3.55618 -0.21338,1.7781 -2.27596,5.12091 -0.49787,1.13798 -0.78236,1.7781 -0.21338,0.56899 -0.21338,0.9246 0,0 0.71124,-0.49786 0.78236,-0.49787 1.70697,-1.13798 0.99573,-0.71124 1.56472,-1.06686 0.35562,-0.35562 1.63585,-1.28022 1.28023,-0.92461 2.7027,-1.7781 1.4936,-0.92461 2.20484,-1.06685 0.56899,-0.2845 1.2091,-0.49787 0.64011,-0.28449 0.92461,-0.28449 0.56899,0 1.42247,0.64011 0.92461,0.56899 1.70697,1.42247 0.78236,0.78236 0.92461,1.35135 0,0.2845 0,0.56899 0.0711,0.2845 0.14225,0.56899 0.28449,0.92461 0.28449,2.48934 0.0711,1.56472 -0.0711,2.84494 -0.14225,1.28023 -0.49787,1.4936 0,0 0,0.21337 0.0711,0.14225 0.35562,0.14225 0,0.2845 0,0.35562 0,0 0,0 -0.35562,0 -0.28449,0.64011 0.0711,0.56899 0.42674,1.28023 0.42674,0.71124 0.85348,1.13798 0.85349,0.85349 0.71124,1.63585 -0.14225,0.71123 -1.28023,0.99573 z"
       style="font-style:normal;font-variant:normal;font-weight:normal;font-stretch:normal;font-size:71.1237px;font-family:Caveat;-inkscape-font-specification:'Caveat, Normal';font-variant-ligatures:normal;font-variant-caps:normal;font-variant-numeric:normal;font-feature-settings:normal;text-align:end;writing-mode:lr-tb;text-anchor:end;fill:#f450a9;fill-opacity:1;stroke-width:1.77809"
       id="path926" />
    <path
       d="m 653.86084,164.33842 q -0.2845,0 -0.71124,-0.14225 -0.35562,-0.21337 -0.35562,-0.21337 0,-0.2845 -0.21337,-0.71124 -0.14225,-0.42674 -0.14225,-0.71124 -0.49786,-0.28449 -0.56899,-0.56899 -0.0711,-0.35561 0.21338,-1.13798 0.42674,-0.71123 1.13798,-2.27595 0.71123,-1.63585 1.49359,-3.48507 0.78237,-1.92034 1.4936,-3.76956 0.71124,-1.84921 1.20911,-3.12944 0.49786,-1.35135 0.56899,-1.63585 0,-0.28449 0.21337,-0.71123 0.21337,-0.42675 0.49786,-0.71124 0.56899,-0.49787 1.20911,-0.0711 0.64011,0.35561 1.06685,1.28022 0.49787,0.85349 0.49787,1.92034 0,0.49787 -0.71124,2.56046 -0.71124,1.99146 -1.92034,4.76529 -1.13798,2.77382 -2.56045,5.61877 -1.06686,2.06259 -1.35135,2.63158 -0.2845,0.49787 -1.06686,0.49787 z m 10.45519,-26.9559 q -0.85349,0 -1.84922,-0.64011 -0.92461,-0.71124 -1.63584,-1.70697 -0.64012,-1.06686 -0.64012,-2.13371 0,-0.35562 0.42674,-0.99573 0.42675,-0.64012 0.85349,-1.28023 0.42674,-0.64012 0.42674,-0.78236 0.56899,0 0.85349,0.0711 0.35561,0 0.85348,0.2845 0.78236,1.77809 1.92034,2.91607 1.20911,1.13798 1.20911,1.92034 0,1.56472 -0.2845,1.99146 -0.28449,0.35562 -2.13371,0.35562 z"
       style="font-style:normal;font-variant:normal;font-weight:normal;font-stretch:normal;font-size:71.1237px;font-family:Caveat;-inkscape-font-specification:'Caveat, Normal';font-variant-ligatures:normal;font-variant-caps:normal;font-variant-numeric:normal;font-feature-settings:normal;text-align:end;writing-mode:lr-tb;text-anchor:end;fill:#f450a9;fill-opacity:1;stroke-width:1.77809"
       id="path928" />
    <path
       d="m 667.80097,165.1919 q -0.21337,-0.28449 -0.42674,-0.71123 -0.14225,-0.42675 -0.14225,-0.71124 0,-0.14225 -0.0711,-0.35562 0,-0.21337 -0.2845,-0.21337 -0.21337,-0.21337 0.2845,-1.63585 0.56899,-1.4936 1.42247,-3.41394 0.92461,-1.92034 1.84922,-3.69843 0.99573,-1.84922 1.63585,-2.91607 0.35561,-0.21338 0.42674,-0.56899 0.14225,-0.42675 0,-0.42675 0,0 0.35562,-0.64011 0.42674,-0.71124 0.64011,-0.92461 0.56899,-0.99573 0.85348,-1.99146 0.2845,-1.06686 0.14225,-1.7781 -0.28449,-0.35562 -0.64011,-0.21337 -0.35562,0.14225 -0.35562,0.14225 -0.28449,0.0711 -0.85348,0.28449 -0.49787,0.14225 -0.92461,0.42675 -1.63585,1.13798 -2.20484,1.06685 -0.56899,-0.14224 -1.28023,-1.84921 -0.28449,-0.78237 -0.21337,-1.13798 0.0711,-0.35562 0.56899,-0.78237 0.56899,-0.49786 1.06686,-0.64011 0.49786,-0.21337 0.78236,-0.42674 0.78236,-0.49787 1.28023,-0.71124 0.56899,-0.21337 0.85348,-0.28449 1.84922,-0.56899 3.12945,-0.21337 1.28022,0.35561 1.92034,1.84921 0.99573,1.20911 0.99573,2.77383 0,1.4936 -0.99573,3.48506 l -0.71124,1.06686 q -0.35562,0.71123 -0.14225,0.71123 0.2845,0 0.64012,-0.49786 0.21337,-0.2845 0.85348,-0.85349 0.64011,-0.56899 0.85348,-0.56899 0,0 0.14225,-0.0711 0.21337,-0.0711 0.21337,-0.56899 0.21337,-0.21337 0.42675,-0.42674 0.28449,-0.21337 0.28449,-0.21337 0.2845,0 1.06686,-0.64012 0.85348,-0.71123 1.99146,-1.63584 0.78236,-0.56899 1.42248,-0.56899 1.63584,-0.49787 2.63157,1.06685 1.06686,1.56473 1.06686,4.05406 l -1.4936,3.84068 2.56046,-3.12945 q 0.42674,-0.56899 0.85348,-0.99573 0.49787,-0.42674 0.85349,-0.71124 0.14224,-0.49786 0.42674,-0.56899 0.28449,-0.0711 0.28449,-0.0711 0,0 0.14225,0 0.14225,-0.0711 0.14225,-0.28449 0.35562,-0.2845 0.78236,-0.49787 0.42674,-0.2845 0.56899,-0.56899 1.2091,-0.49787 2.20483,-0.14225 0.99574,0.2845 1.70697,1.7781 0.49787,0.85348 0.56899,1.49359 0.0711,0.64012 0.0711,1.92034 -0.14225,1.06686 -0.2845,1.70697 -0.0711,0.56899 -0.14224,1.20911 -0.0711,0.64011 -0.21338,1.77809 -0.28449,0.56899 -0.35561,1.2091 0,0.64012 0,1.20911 0,0.92461 0.0711,1.28022 0.0711,0.2845 0.56899,0.2845 0.99573,-0.21337 2.7027,-0.99573 1.77809,-0.85349 2.63158,-1.63585 1.06686,-0.99573 1.84922,-0.99573 0.85348,-0.0711 1.06685,0.78236 0.14225,0.2845 -0.49786,1.28023 -0.56899,0.99573 -1.35135,1.92034 -0.71124,0.92461 -1.06686,0.92461 -0.21337,0 -0.49787,0.42674 -0.28449,0.35562 -0.64011,0.56899 -0.49787,0.49787 -0.99573,0.92461 -0.42675,0.42674 -0.99573,0.42674 -0.2845,0 -0.71124,0.21337 -0.35562,0.14225 -0.85349,0.14225 -0.71123,0.21337 -2.20483,-0.21337 -1.42248,-0.42674 -1.84922,-1.99147 -0.28449,-0.78236 -0.49787,-2.48933 -0.21337,-1.77809 0.0711,-3.55618 0.28449,-1.28023 0.35562,-2.34709 0.0711,-1.06685 0.28449,-1.4936 0,-0.21337 0,-0.99573 0,-0.85348 -0.21337,-0.85348 -0.28449,0 -1.35135,1.06685 -0.99573,0.99574 -2.41821,2.56046 -1.35135,1.56472 -2.7027,3.27169 -1.35135,1.70697 -2.20484,3.05832 -0.64011,0.78236 -1.13798,1.92034 -0.49786,1.13798 -0.71123,1.28023 -0.49787,0.56899 -1.20911,0.14225 -0.64011,-0.42675 -1.2091,-1.35136 -0.21337,-0.42674 -0.28449,-0.71123 -0.0711,-0.35562 0,-0.92461 0.14224,-0.64012 0.49786,-1.84922 0.42674,-1.2091 1.13798,-3.41394 0.78236,-2.4182 1.35135,-4.33855 0.64012,-1.99146 0.64012,-1.99146 0,-0.2845 -1.06686,0.56899 -1.06686,0.78236 -2.48933,1.99146 -0.64011,0.78237 -2.13371,2.34709 -1.4936,1.56472 -3.27169,3.55618 -1.7781,1.99147 -3.41394,4.1963 -2.06259,2.91608 -2.91608,3.55619 -0.78236,0.64011 -1.56472,-0.35562 z"
       style="font-style:normal;font-variant:normal;font-weight:normal;font-stretch:normal;font-size:71.1237px;font-family:Caveat;-inkscape-font-specification:'Caveat, Normal';font-variant-ligatures:normal;font-variant-caps:normal;font-variant-numeric:normal;font-feature-settings:normal;text-align:end;writing-mode:lr-tb;text-anchor:end;fill:#f450a9;fill-opacity:1;stroke-width:1.77809"
       id="path930" />
    <path
       d="m 710.11955,165.54752 q -0.56899,-0.56899 -0.85349,-1.42247 -0.21337,-0.85349 -0.14225,-1.70697 0.0711,-0.85349 0.35562,-1.42248 0,-0.56899 0.14225,-0.85348 0.21337,-0.35562 0.14225,-0.64012 -0.0711,-0.28449 0.14225,-0.99573 0.21337,-0.71124 0.42674,-1.35135 0.49786,-1.13798 1.06685,-2.7027 0.56899,-1.63585 1.06686,-3.20057 0.49787,-1.56472 0.85349,-2.7027 0.35561,-1.13798 0.42674,-1.42248 0,-0.85348 1.13798,-0.9246 0.85348,-0.2845 1.28022,0 0.42675,0.21337 1.13798,1.35135 0.56899,0.56899 0.42675,1.70697 -0.14225,1.13798 -0.92461,2.84495 -0.2845,0.56899 -0.71124,1.63584 -0.35562,1.06686 -0.49787,1.92034 -0.28449,0.56899 -0.71123,1.63585 -0.35562,0.99573 -0.64012,1.92034 -0.14224,0.35562 -0.28449,1.06685 -0.14225,0.64012 -0.35562,1.42248 -0.21337,0.71124 -0.56899,1.28023 -0.64011,2.91607 -1.2091,3.41394 -0.49787,0.49786 -1.70697,-0.85349 z m 6.899,-28.87623 q -0.35562,-0.35562 -0.64011,-0.99574 -0.2845,-0.71123 -0.35562,-1.28022 -0.0711,-0.64012 0.14224,-0.64012 0.56899,-0.0711 1.35136,-1.2091 0.78236,-1.13798 0.64011,-1.99147 0,-0.28449 0.21337,-0.49786 0.21337,-0.2845 0.49787,-0.35562 0.85348,-0.56899 1.63584,-0.14225 0.85349,0.35562 1.56472,1.4936 0.64012,1.35135 0.35562,2.27596 -0.28449,0.85348 -1.56472,2.41821 -1.06686,1.42247 -1.99146,1.56472 -0.85349,0.14225 -1.84922,-0.64011 z"
       style="font-style:normal;font-variant:normal;font-weight:normal;font-stretch:normal;font-size:71.1237px;font-family:Caveat;-inkscape-font-specification:'Caveat, Normal';font-variant-ligatures:normal;font-variant-caps:normal;font-variant-numeric:normal;font-feature-settings:normal;text-align:end;writing-mode:lr-tb;text-anchor:end;fill:#f450a9;fill-opacity:1;stroke-width:1.77809"
       id="path932" />
    <path
       d="m 729.4651,168.03685 q -3.12945,0 -5.12091,-2.34708 -1.99147,-2.41821 -1.92034,-5.9744 0.14225,-2.56045 0.99573,-5.47652 0.92461,-2.9872 2.41821,-5.6899 1.4936,-2.77383 3.27169,-4.83642 1.77809,-2.06258 3.69843,-2.91607 0.71124,-0.35562 1.4936,-0.56899 0.85349,-0.21337 1.70697,-0.21337 0.78236,0 1.63585,0.2845 0.85348,0.21337 1.42247,0.49786 1.20911,0.49787 1.84922,1.20911 0.64011,0.71123 1.13798,2.20483 0.21337,1.35135 0.21337,1.92034 0,0.56899 -0.35562,1.70697 -0.85348,2.56046 -2.20483,4.40967 -1.35136,1.84922 -3.62731,3.12945 -0.56899,0.35562 -1.35136,0.56899 -0.71123,0.14224 -1.49359,0.14224 -1.42248,0 -2.77383,-0.49786 -1.28023,-0.56899 -2.06259,-1.63585 l -0.49786,-0.56899 -0.21338,0.56899 q -0.71123,1.92034 -1.13797,3.55619 -0.35562,1.63585 -0.35562,2.9872 0,0.85348 0.14224,1.63584 0.21338,0.78236 0.56899,1.35135 0.2845,0.42675 0.92461,0.64012 0.71124,0.14224 1.4936,0.14224 0.49787,0 0.99573,0 0.56899,-0.0711 1.06686,-0.28449 1.2091,-0.42674 1.92034,-0.92461 0.78236,-0.49787 1.56472,-1.06686 l 0.2845,-0.14224 h -0.0711 q 0.85349,-0.42675 1.4936,-0.85349 0.71124,-0.42674 0.71124,-0.42674 0.28449,0 0.56899,-0.35562 0.56899,-0.28449 1.42247,0.21337 0.92461,0.49787 0.92461,1.28023 -0.0711,0.35562 -0.64011,1.13798 -0.56899,0.71124 -1.28023,1.35135 -0.64011,0.64011 -1.06685,0.71124 -0.0711,0.0711 -0.49787,0.28449 -0.42674,0.14225 -0.56899,0.2845 h 0.0711 q -0.64011,0.85348 -1.28022,0.85348 h -0.56899 q -0.2845,0.49787 -1.84922,1.13798 -1.56472,0.56899 -3.05832,0.56899 z m 3.20057,-15.64722 q 1.28022,0 2.20483,-0.71124 0.99573,-0.78236 1.70697,-1.70697 1.42248,-1.92034 1.63585,-3.69843 0.28449,-1.84922 -0.42675,-2.56046 -0.42674,-0.21337 -0.78236,-0.21337 -0.28449,-0.0711 -1.2091,0.21337 -0.64011,0.14225 -1.77809,1.06686 -1.13798,0.92461 -2.27596,2.06259 -1.06686,1.13798 -1.63585,1.92034 l -0.92461,1.4936 q 0.56899,-0.21337 1.06686,-0.21337 0.56899,-0.0711 0.64011,0.0711 0,0.64011 0.21337,1.2091 0.2845,0.49787 0.64012,0.78237 0.42674,0.28449 0.92461,0.28449 z"
       style="font-style:normal;font-variant:normal;font-weight:normal;font-stretch:normal;font-size:71.1237px;font-family:Caveat;-inkscape-font-specification:'Caveat, Normal';font-variant-ligatures:normal;font-variant-caps:normal;font-variant-numeric:normal;font-feature-settings:normal;text-align:end;writing-mode:lr-tb;text-anchor:end;fill:#f450a9;fill-opacity:1;stroke-width:1.77809"
       id="path934" />
    <path
       d="m 749.16629,164.69404 q -0.2845,0 -0.85349,-0.35562 -0.49786,-0.42674 -0.78236,-0.71124 -0.49787,-0.56899 -0.64011,-1.13798 -0.0711,-0.56899 -0.0711,-2.56045 0,-2.27596 0.92461,-4.90754 0.92461,-2.7027 3.12945,-7.53912 l 2.34708,-4.97866 q 0.28449,-0.56899 0.49787,-0.85348 0.28449,-0.2845 0.49786,-0.56899 0.2845,0 0.49787,0 0.21337,0 0.21337,0 0.56899,0 1.13798,0.71123 0.56899,0.64012 0.85348,1.42248 0,0.92461 -0.28449,1.92034 -0.21337,0.99573 -1.70697,2.9872 -0.49787,0.78236 -1.35135,2.63157 -0.78236,1.84922 -1.06686,3.20057 -0.0711,0.0711 -0.28449,0.64012 -0.21337,0.49786 -0.49787,1.13798 -0.21337,0.64011 -0.49787,1.2091 l -0.35561,1.56472 4.76529,-4.90754 q 3.34281,-3.34281 5.4054,-4.76529 2.06259,-1.42247 3.27169,-1.2091 1.20911,0.21337 2.06259,1.92034 0.49787,0.78236 0.71124,1.42248 0.28449,0.56899 0.35562,1.56472 0.0711,0.99573 -0.14225,2.98719 v 4.40968 q 1.06685,-0.2845 1.70697,-0.49787 0.64011,-0.28449 1.35135,-0.56899 0.64011,-0.28449 1.4936,-0.49787 0.85348,-0.28449 2.13371,-0.35561 -0.0711,0.9246 -0.64011,1.99146 -0.56899,0.99573 -1.42248,1.92034 -0.85348,0.92461 -1.92034,1.4936 -0.99573,0.56899 -1.99146,0.56899 -0.92461,0 -2.06259,-0.92461 -1.13798,-0.92461 -1.63585,-2.06259 -0.28449,-0.78236 -0.35562,-1.70697 0,-0.92461 0,-3.41394 v -2.63157 q 0,-1.13798 -0.71123,-0.64012 -0.64012,0.42674 -1.06686,0.78236 -1.06686,0.92461 -2.27596,2.13371 -1.13798,1.20911 -2.34708,2.48934 -3.27169,3.41393 -5.47653,5.04978 -2.13371,1.63585 -2.91607,1.63585 z"
       style="font-style:normal;font-variant:normal;font-weight:normal;font-stretch:normal;font-size:71.1237px;font-family:Caveat;-inkscape-font-specification:'Caveat, Normal';font-variant-ligatures:normal;font-variant-caps:normal;font-variant-numeric:normal;font-feature-settings:normal;text-align:end;writing-mode:lr-tb;text-anchor:end;fill:#f450a9;fill-opacity:1;stroke-width:1.77809"
       id="path936" />
    <path
       d="m 783.37671,167.32561 q -0.78236,-0.14224 -1.63585,-0.78236 -0.78236,-0.71123 -1.42247,-1.56472 -0.56899,-0.92461 -0.78236,-1.63584 0,-0.14225 -0.21338,-0.35562 -0.14224,-0.21337 -0.14224,-0.21337 -0.2845,-0.21338 -0.35562,-1.84922 0,-1.70697 0.21337,-3.76956 0.21337,-2.06259 0.49787,-3.27169 0.35561,-1.13798 1.06685,-3.05832 0.71124,-1.99147 1.2091,-3.55619 l 1.92035,-4.12518 -2.84495,-0.78236 q -0.49787,-0.14224 -0.85349,-0.56899 -0.28449,-0.42674 -0.28449,-0.71123 0,-0.56899 0.64011,-1.35135 0.64011,-0.85349 0.92461,-0.85349 0.35562,0.0711 1.28023,0.0711 0.99573,0 1.92034,-0.0711 0.92461,-0.0711 1.13798,-0.14225 0.28449,-0.14224 0.56899,-0.35562 0.28449,-0.28449 0.42674,-0.78236 0.35562,-0.78236 0.64011,-1.42247 0.2845,-0.71124 0.78236,-1.56472 0.49787,-0.92461 0.78236,-1.56473 0.35562,-0.64011 1.06686,-1.77809 0.35562,-0.49786 0.78236,-1.2091 0.42674,-0.71124 1.06686,-1.20911 0.64011,-0.56899 1.28022,-0.49786 0.71124,0 1.7781,0.92461 0.56899,0.71123 0.64011,1.06685 0.0711,0.35562 -0.56899,1.35135 -0.56899,1.20911 -1.35135,2.41821 -0.71124,1.2091 -1.35135,2.41821 -1.13798,1.56472 -0.42674,1.77809 0.71123,0.21337 3.98293,-0.28449 2.06258,-0.35562 2.98719,0.21337 0.92461,0.49786 1.06686,1.70697 0.21337,1.70697 -0.35562,2.06259 -0.56899,0.35561 -3.27169,0.35561 -1.70697,0.2845 -2.91607,0.35562 -1.20911,0 -1.7781,0 -0.92461,0.0711 -1.2091,0.0711 -0.2845,0 -0.85349,0.14224 -0.56899,0.14225 -0.85348,0.49787 -0.21337,0.28449 -0.49787,0.85348 -0.28449,0.2845 -0.85348,1.4936 -0.56899,1.20911 -1.42248,2.63158 -0.99573,2.9872 -1.70697,5.97439 -0.71123,2.91608 -1.13798,5.6899 -0.28449,1.7781 0.0711,2.48933 0.35562,0.64012 1.84922,0.78237 0.78236,0.0711 2.48933,0 1.77809,-0.14225 2.77382,-0.42675 0.78236,-0.35562 1.63585,-0.71123 0.85348,-0.42675 1.56472,-0.85349 0.64011,-0.35562 1.28023,-0.71124 0.64011,-0.42674 0.64011,-0.42674 0.35562,-0.56899 0.78236,-0.35562 0.42674,0.21337 0.71124,1.06686 0,0.85348 -0.35562,1.77809 -0.35562,0.92461 -2.63158,2.20484 -3.20057,1.99146 -5.90327,2.4182 -2.63158,0.35562 -4.48079,0 z"
       style="font-style:normal;font-variant:normal;font-weight:normal;font-stretch:normal;font-size:71.1237px;font-family:Caveat;-inkscape-font-specification:'Caveat, Normal';font-variant-ligatures:normal;font-variant-caps:normal;font-variant-numeric:normal;font-feature-settings:normal;text-align:end;writing-mode:lr-tb;text-anchor:end;fill:#f450a9;fill-opacity:1;stroke-width:1.77809"
       id="path938" />
    <path
       d="m 808.48336,167.39674 q -0.92461,0.0711 -1.4936,-0.14225 -0.56899,-0.28449 -1.42247,-0.78236 -1.56472,-1.2091 -2.34709,-2.41821 -0.71123,-1.28022 -0.64011,-2.48933 0.14225,-0.64011 0,-1.13798 -0.0711,-0.49786 -0.0711,-0.49786 -0.42675,-0.35562 -0.2845,-0.42675 0.14225,-0.14224 0.21337,-0.42674 0.56899,-0.14225 0.14225,-0.78236 -0.21337,-0.56899 0.21337,-2.56045 0.49787,-2.06259 1.28023,-3.84069 0.35562,-0.78236 0.99573,-2.06258 0.71124,-1.28023 1.56472,-2.56046 0.85349,-1.35135 1.56473,-2.13371 1.56472,-1.77809 2.77382,-2.63158 1.28023,-0.92461 2.84495,-1.4936 1.42247,-0.56899 2.06259,-0.64011 0.64011,-0.0711 1.77809,0.85348 1.70697,0.49787 2.56046,1.42248 0.9246,0.85348 1.42247,2.7027 0.56899,2.06259 0.35562,4.90754 -0.14225,2.77382 -2.41821,7.1835 -1.35135,2.77382 -2.7027,4.1963 -1.28023,1.42247 -3.12944,2.98719 -1.35135,1.13798 -2.48933,1.7781 -1.13798,0.64011 -2.77383,0.99573 z m 5.6899,-8.46373 q 1.42247,-2.13371 2.20483,-3.9118 0.85349,-1.84922 1.35136,-4.62304 0.14224,-0.78237 0.0711,-1.92034 -0.0711,-1.20911 -0.35562,-2.20484 -0.21337,-0.99573 -0.64011,-1.06686 -0.92461,-0.35562 -2.06259,0 -1.13798,0.2845 -2.48933,1.70697 -1.20911,1.42248 -2.20484,3.20057 -0.92461,1.77809 -1.70697,3.91181 -0.78236,2.13371 -1.4936,4.55192 -0.71123,2.7027 0.0711,4.12517 0.85348,1.42248 2.77382,0.71124 1.92034,-0.78236 4.4808,-4.4808 z"
       style="font-style:normal;font-variant:normal;font-weight:normal;font-stretch:normal;font-size:71.1237px;font-family:Caveat;-inkscape-font-specification:'Caveat, Normal';font-variant-ligatures:normal;font-variant-caps:normal;font-variant-numeric:normal;font-feature-settings:normal;text-align:end;writing-mode:lr-tb;text-anchor:end;fill:#f450a9;fill-opacity:1;stroke-width:1.77809"
       id="path940" />
  </g>
</svg>
