<?xml version="1.0" encoding="UTF-8" standalone="no"?>
<svg
   id="fe80fb2b-bcaf-407e-919b-306adc32f78b"
   data-name="Layer 1"
   width="1032"
   height="741.75278"
   viewBox="0 0 1032 741.75278"
   version="1.1"
   sodipodi:docname="profile.svg"
   inkscape:version="1.1.1 (3bf5ae0d25, 2021-09-20)"
   xmlns:inkscape="http://www.inkscape.org/namespaces/inkscape"
   xmlns:sodipodi="http://sodipodi.sourceforge.net/DTD/sodipodi-0.dtd"
   xmlns="http://www.w3.org/2000/svg"
   xmlns:svg="http://www.w3.org/2000/svg">
  <defs
     id="defs87" />
  <sodipodi:namedview
     id="namedview85"
     pagecolor="#ffffff"
     bordercolor="#666666"
     borderopacity="1.0"
     inkscape:pageshadow="2"
     inkscape:pageopacity="0.0"
     inkscape:pagecheckerboard="0"
     showgrid="false"
     inkscape:zoom="0.51230005"
     inkscape:cx="516.29899"
     inkscape:cy="371.85239"
     inkscape:window-width="1366"
     inkscape:window-height="704"
     inkscape:window-x="0"
     inkscape:window-y="0"
     inkscape:window-maximized="1"
     inkscape:current-layer="fe80fb2b-bcaf-407e-919b-306adc32f78b" />
  <title
     id="title2">profile</title>
  <line
     y1="625.8205"
     x2="317.21182"
     y2="625.8205"
     fill="none"
     stroke="#3f3d56"
     stroke-miterlimit="10"
     id="line4"
     x1="199.78831"
     style="stroke-width:0.70737" />
  <rect
     x="371.67932"
     y="191.84868"
     width="521.33203"
     height="352.97787"
     rx="13.721318"
     fill="#f2f2f2"
     id="rect6"
     style="stroke-width:0.70737" />
  <rect
     x="355.76349"
     y="169.56651"
     width="521.33203"
     height="352.97787"
     rx="13.721318"
     fill="none"
     stroke="#3f3d56"
     stroke-miterlimit="10"
     id="rect8"
     style="stroke-width:0.70737" />
  <line
     x1="355.76349"
     y1="203.40727"
     x2="877.09558"
     y2="203.40727"
     fill="none"
     stroke="#3f3d56"
     stroke-miterlimit="10"
     id="line10"
     style="stroke-width:0.70737" />
  <rect
     x="667.36023"
     y="282.74579"
     width="142.18147"
     height="21.928484"
     rx="5.0170393"
     fill="#f450a9"
     opacity="0.3"
     id="rect12"
     style="stroke-width:0.70737" />
  <rect
     x="640.12646"
     y="343.57965"
     width="196.64899"
     height="17.684261"
     rx="5.0170393"
     fill="#f450a9"
     opacity="0.3"
     id="rect14"
     style="stroke-width:0.70737" />
  <rect
     x="640.12646"
     y="391.68082"
     width="196.64899"
     height="17.684261"
     rx="5.0170393"
     fill="#f450a9"
     opacity="0.3"
     id="rect16"
     style="stroke-width:0.70737" />
  <rect
     x="640.12646"
     y="439.78201"
     width="196.64899"
     height="17.684261"
     rx="5.0170393"
     fill="#f450a9"
     opacity="0.3"
     id="rect18"
     style="stroke-width:0.70737" />
  <rect
     x="674.4339"
     y="275.67206"
     width="142.18147"
     height="21.928484"
     rx="5.0170393"
     fill="none"
     stroke="#3f3d56"
     stroke-miterlimit="10"
     id="rect20"
     style="stroke-width:0.70737" />
  <rect
     x="647.20013"
     y="336.50592"
     width="196.64899"
     height="17.684261"
     rx="5.0170393"
     fill="none"
     stroke="#3f3d56"
     stroke-miterlimit="10"
     id="rect22"
     style="stroke-width:0.70737" />
  <rect
     x="647.20013"
     y="384.60712"
     width="196.64899"
     height="17.684261"
     rx="5.0170393"
     fill="none"
     stroke="#3f3d56"
     stroke-miterlimit="10"
     id="rect24"
     style="stroke-width:0.70737" />
  <rect
     x="647.20013"
     y="432.70834"
     width="196.64899"
     height="17.684261"
     rx="5.0170393"
     fill="none"
     stroke="#3f3d56"
     stroke-miterlimit="10"
     id="rect26"
     style="stroke-width:0.70737" />
  <circle
     cx="395.37625"
     cy="190.78764"
     r="10.610558"
     fill="#f450a9"
     opacity="0.3"
     id="circle28"
     style="stroke-width:0.70737" />
  <circle
     cx="425.08582"
     cy="190.78764"
     r="10.610558"
     fill="#f450a9"
     opacity="0.3"
     id="circle30"
     style="stroke-width:0.70737" />
  <circle
     cx="454.79535"
     cy="190.78764"
     r="10.610558"
     fill="#f450a9"
     opacity="0.3"
     id="circle32"
     style="stroke-width:0.70737" />
  <circle
     cx="399.62045"
     cy="186.54341"
     r="10.610558"
     fill="none"
     stroke="#3f3d56"
     stroke-miterlimit="10"
     id="circle34"
     style="stroke-width:0.70737" />
  <circle
     cx="429.33002"
     cy="186.54341"
     r="10.610558"
     fill="none"
     stroke="#3f3d56"
     stroke-miterlimit="10"
     id="circle36"
     style="stroke-width:0.70737" />
  <circle
     cx="459.03958"
     cy="186.54341"
     r="10.610558"
     fill="none"
     stroke="#3f3d56"
     stroke-miterlimit="10"
     id="circle38"
     style="stroke-width:0.70737" />
  <path
     d="m 520.47755,507.6896 c -1.77646,-8.18321 -2.24749,-19.36025 -1.64996,-27.13507 0,0 -8.98245,-39.46168 -16.05019,-43.14346 l -0.002,0.002 c -0.10823,0.13919 -3.53823,4.63598 -3.97334,18.55039 -0.44177,14.13527 -5.44655,23.41152 -5.44655,23.41152 0,0 1.61956,17.61894 0.69355,28.31446 z"
     fill="#f450a9"
     id="path40"
     style="stroke-width:0.70737" />
  <path
     d="M 585.82038,256.57308 H 422.80222 a 16.815392,16.815392 0 0 0 -16.81542,16.81537 v 217.48578 a 16.815385,16.815385 0 0 0 16.81542,16.81537 h 57.19444 c -1.91004,-7.92209 -4.28454,-20.29494 -1.87973,-28.89779 l -0.001,-0.006 0.002,0.004 c 0.11226,-0.40148 0.23151,-0.79747 0.36509,-1.18164 a 44.916236,44.916236 0 0 0 1.62111,-17.22735 35.799666,35.799666 0 0 0 0,-15.01871 c -1.76687,-8.24486 -3.00373,-16.34395 -3.00373,-16.34395 0,0 -0.97405,-10.89516 -0.12365,-17.57408 0.0188,-0.14671 0.0408,-0.28578 0.0613,-0.42825 -0.30016,-0.0683 -0.46853,-0.10772 -0.46853,-0.10772 0,0 2.50325,-11.33766 3.3866,-18.55255 0.20862,-1.70323 0.48313,-3.86247 0.78033,-6.16458 a 14.812288,14.812288 0 0 1 -2.39989,-0.60858 c -7.95109,-2.79758 -10.45423,-28.12329 -10.45423,-28.12329 v -8.02472 c 0,0 -2.6504,-12.29475 6.6259,-17.74268 8.93262,-5.24617 12.49901,-6.68194 12.75115,-6.78116 0.068,-0.0487 0.13453,-0.0929 0.20396,-0.14661 a 7.8244158,7.8244158 0 0 0 2.32701,-2.9948 q 0.0185,-0.30328 0.009,-0.60276 c -0.15085,-2.87663 -2.15337,-5.49278 -4.05356,-7.7756 q -2.4309,-2.92042 -4.86205,-5.84094 a 5.709852,5.709852 0 0 1 -1.25224,-2.02652 4.6714746,4.6714746 0 0 1 -0.13227,-1.27602 q -0.002,-0.23832 0.003,-0.47606 0.0396,-2.17754 0.11831,-4.35418 c 0.0456,-1.26778 0.36473,-2.86735 1.60626,-3.12787 0.64571,-0.13552 1.50039,0.10077 1.84173,-0.46386 a 1.1072753,1.1072753 0 0 0 0.0826,-0.7502 c -0.004,0.0188 -0.005,0.0385 -0.0106,0.0569 -0.004,-0.0236 -0.008,-0.0473 -0.0126,-0.0706 a 15.87096,15.87096 0 0 1 -0.46015,-3.10278 4.1325078,4.1325078 0 0 1 0.19948,-1.3934 c 0.7192,-2.10455 3.19577,-2.96813 5.38403,-3.36516 2.18843,-0.39707 4.64497,-0.73867 6.01852,-2.48788 a 19.064059,19.064059 0 0 1 1.19464,-1.67919 4.6897177,4.6897177 0 0 1 2.23945,-1.12948 12.377512,12.377512 0 0 1 8.13917,0.72235 c 1.05855,0.48303 2.12185,1.13355 3.28308,1.05993 1.20611,-0.0764 2.23643,-0.92531 3.42727,-1.13186 1.92342,-0.33356 3.76231,1.10751 4.71016,2.81411 a 6.9683632,6.9683632 0 0 1 0.87204,3.55322 4.8893447,4.8893447 0 0 1 -1.24791,3.35371 c -0.82775,0.87816 -2.06288,1.48136 -2.40655,2.63817 -0.14006,0.47086 -0.10752,0.97799 -0.23125,1.45334 -0.0154,0.0594 -0.0406,0.11488 -0.0609,0.17235 0.0227,0.0295 0.0475,0.0574 0.0699,0.087 a 15.018183,15.018183 0 0 1 -7.30865,23.35686 c -0.006,0.14896 -0.0115,0.29804 -0.0107,0.44781 a 6.4887094,6.4887094 0 0 0 2.00864,4.99736 l 13.11977,5.38026 c 0,0 7.89826,-0.95736 10.74846,10.82954 a 20.390859,20.390859 0 0 1 0.48796,5.98256 c -0.10353,1.77727 0.13799,4.90613 2.16261,8.95531 3.23929,6.47867 2.50308,21.35011 -4.12282,22.82254 -6.27601,1.39466 -8.71735,0.80874 -8.95801,0.7429 l -0.0143,0.26038 c 0.10337,2.7905 1.09663,26.85815 4.70231,29.7704 0.99707,0.80533 0.80658,1.34933 -0.0116,1.71592 l 0.002,0.002 c 0,0 0.007,0.1546 0.022,0.43291 0.10829,1.76026 0.66489,8.46349 3.07886,12.27783 2.79836,4.41723 2.50464,29.89163 2.50464,29.89163 l 1.91263,15.01876 c 0,0 -1.1772,9.27625 0,10.8952 0.66886,0.91806 1.47881,15.14021 2.05491,27.28302 h 49.18366 a 16.815385,16.815385 0 0 0 16.81538,-16.81527 V 273.38845 a 16.815392,16.815392 0 0 0 -16.81542,-16.81537 z"
     fill="#f450a9"
     id="path42"
     style="stroke-width:0.70737" />
  <rect
     x="389.00992"
     y="237.47408"
     width="196.64899"
     height="251.11652"
     rx="16.815363"
     fill="none"
     stroke="#3f3d56"
     stroke-miterlimit="10"
     id="rect44"
     style="stroke-width:0.70737" />
  <path
     d="m 271.10837,328.99214 c 0,0 -6.59566,-1.95022 -8.0104,0.17189 -1.41474,2.12211 1.92878,17.50579 1.92878,17.50579 l 14.53356,0.88322 -5.07201,-12.80803 z"
     fill="#2f2e41"
     id="path46"
     style="stroke-width:0.70737" />
  <path
     d="m 220.26256,455.3215 c 0,0 13.22405,29.03212 3.04001,28.12009 -10.18404,-0.91202 -14.13605,-28.12009 -14.13605,-28.12009 z"
     fill="#a0616a"
     id="path48"
     style="stroke-width:0.70737" />
  <path
     d="m 306.75071,452.29691 c 0,0 -5.80136,31.37012 3.85886,28.01949 9.66022,-3.35062 6.90703,-30.70606 6.90703,-30.70606 z"
     fill="#a0616a"
     id="path50"
     style="stroke-width:0.70737" />
  <path
     d="m 268.29477,321.71292 c 0,0 -0.152,14.59206 5.47202,15.35206 5.62403,0.76 -3.19201,8.51204 -3.19201,8.51204 l -10.03204,1.97601 -14.44005,-1.064 -6.38402,-8.20804 c 0,0 11.24805,-5.32002 6.38402,-21.88809 z"
     fill="#a0616a"
     id="path52"
     style="stroke-width:0.70737" />
  <path
     d="m 268.29477,321.71292 c 0,0 -0.152,14.59206 5.47202,15.35206 5.62403,0.76 -3.19201,8.51204 -3.19201,8.51204 l -10.03204,1.97601 -14.44005,-1.064 -6.38402,-8.20804 c 0,0 11.24805,-5.32002 6.38402,-21.88809 z"
     opacity="0.1"
     id="path54"
     style="stroke-width:0.70737" />
  <path
     d="m 294.13488,445.13745 c 0,0 7.14402,15.35207 1.52,63.53628 0,0 1.67201,17.02407 0.30401,20.21608 -1.36801,3.19201 -12.61606,46.5122 -12.61606,46.5122 0,0 -14.44006,3.19201 -16.41607,-6.38402 0,0 1.97601,-13.68005 1.82401,-15.80806 -0.15201,-2.12801 3.19201,-25.38411 3.19201,-25.38411 l -6.84003,-44.99219 -5.16805,40.58417 c 0,0 0,11.70405 -1.672,14.28806 -1.67201,2.58402 0,54.56823 0,54.56823 0,0 4.71202,7.90404 -2.43201,8.05604 -7.14404,0.152 -13.52806,-0.152 -14.1361,-5.16805 -0.60803,-5.01605 -0.912,-10.03204 -2.43201,-13.07206 -1.52,-3.04001 -3.49601,-37.84816 -3.04001,-50.00821 0.45601,-12.16005 -10.03204,-74.63232 -6.68803,-81.16835 3.34401,-6.53603 64.60034,-5.77601 64.60034,-5.77601 z"
     fill="#2f2e41"
     id="path56"
     style="stroke-width:0.70737" />
  <circle
     cx="260.54272"
     cy="308.94485"
     r="18.240078"
     fill="#a0616a"
     id="circle58"
     style="stroke-width:0.70737" />
  <path
     d="m 242.30266,338.58499 c 0,0 11.09604,8.20804 27.20811,1.67202 0,0 5.32002,-2.58403 4.86402,-6.53604 -0.456,-3.952 11.09605,31.76814 11.09605,31.76814 l 11.70405,62.16826 -0.608,25.38411 c 0,0 -5.16805,-2.58402 -21.28009,3.19202 -16.11204,5.77604 -42.40818,-6.53603 -42.40818,-6.53603 l 0.912,-65.20828 0.912,-38.00016 2.43201,-8.36003 c 0,0 1.21598,-2.28002 5.16803,0.45599 z"
     fill="#f2f2f2"
     id="path60"
     style="stroke-width:0.70737" />
  <path
     d="m 268.80167,328.38113 c 0,0 2.68511,-0.43618 5.26912,3.66784 2.58401,4.10401 8.66404,6.68802 8.66404,6.68802 0,0 14.74406,0.91201 16.87207,8.81605 2.12801,7.90403 7.44803,18.69607 10.03204,38.60816 2.58401,19.91208 7.75203,51.68022 8.51204,54.26423 0.76,2.58401 -1.06401,10.48804 1.064,12.92005 2.12801,2.43201 -15.04807,2.43201 -15.04807,2.43201 0,0 -1.52,-12.46405 -2.58402,-12.46405 -1.06402,0 -0.76,8.36004 0.30401,14.44007 1.064,6.08002 -7.75204,0 -7.75204,0 0,0 -6.84002,-27.81612 -13.37606,-52.89623 -6.53603,-25.0801 -10.33601,-38.91216 -9.12004,-44.53619 1.21597,-5.62403 4.56002,-21.73608 2.12801,-23.2561 -2.43201,-1.52002 -4.9651,-8.68386 -4.9651,-8.68386 z"
     fill="#2f2e41"
     id="path62"
     style="stroke-width:0.70737" />
  <path
     d="m 246.88186,328.36773 c 0,0 -3.97118,2.16123 -14.00324,9.30527 -10.03207,7.14403 -16.87208,12.61605 -16.87208,12.61605 0,0 -3.95201,3.04001 -6.38402,21.12809 -2.432,18.08807 -7.90404,64.90427 -5.77602,70.8323 2.12802,5.92802 2.88801,9.42404 2.12801,12.92006 -0.76001,3.49601 15.96007,3.34401 16.26406,2.58402 0.304,-0.75999 -0.45599,-14.59206 0.30401,-14.89606 0.76001,-0.304 4.86402,8.20803 5.62402,15.35206 0.76001,7.14402 9.57604,12.76804 11.55207,12.76804 1.97602,0 12.16005,-41.19218 12.31205,-69.3123 0.152,-28.12012 -3.34402,-51.83222 -5.92803,-55.17624 -2.58401,-3.34401 0.77917,-18.12129 0.77917,-18.12129 z"
     fill="#2f2e41"
     id="path64"
     style="stroke-width:0.70737" />
  <path
     d="m 273.61479,576.77002 c 0,0 1.216,-3.34402 5.47202,-2.28001 4.25603,1.064 7.14404,-2.73601 7.14404,-2.73601 0,0 2.28001,-0.30401 0.75999,2.58402 -1.52001,2.88803 -2.73601,4.86402 -2.73601,4.86402 0,0 9.12005,20.82409 3.19202,25.84011 -5.92803,5.01602 -12.76804,1.97601 -12.76804,1.97601 0,0 -6.68802,-4.71202 -6.38402,-17.17608 0,0 -0.30399,-3.95201 -3.95201,-10.33604 -3.64802,-6.38402 -6.38402,-16.11207 -1.97601,-17.93608 4.40801,-1.82402 5.54257,-1.89177 5.54257,-1.89177 0,0 -2.06269,9.43435 3.26539,12.73109 z"
     fill="#3f3d56"
     id="path66"
     style="stroke-width:0.70737" />
  <path
     d="m 245.34267,600.33012 c 0,0 -3.64802,-6.84004 2.43201,-7.60003 6.08002,-0.76 12.61606,-1.21601 12.31205,1.976 -0.30401,3.19201 -1.06401,8.05604 -1.06401,8.05604 l 1.06401,3.49601 c 0,0 0.30401,8.66404 1.368,9.72804 1.064,1.06401 6.84004,10.18402 -5.47202,10.18402 -12.31205,0 -15.96006,-1.36801 -14.89606,-4.25602 1.06401,-2.88801 1.36801,-17.17607 1.36801,-17.17607 z"
     fill="#3f3d56"
     id="path68"
     style="stroke-width:0.70737" />
  <path
     d="m 254.76671,294.35281 c 0,0 8.51204,2.28001 12.92006,3.19201 4.40802,0.91201 3.95201,-1.67201 3.95201,-1.67201 0,0 5.77603,0.76001 5.47202,0.152 -0.304,-0.608 2.43201,-3.79999 -0.76,-7.44803 -3.19201,-3.64804 -2.28001,-6.38402 -2.28001,-6.38402 h -2.73601 l -0.76,-1.064 h -4.25602 c 0,0 -3.19201,-1.21601 -11.55207,0 -8.36006,1.216 -19.76008,1.52 -20.67209,6.53603 -0.91201,5.01603 -5.62403,11.24805 -3.95202,14.13606 1.67202,2.88801 11.24805,14.74406 12.16006,19.76008 0.912,5.01602 5.1704,6.13049 5.01721,2.98924 -0.15319,-3.14125 -4.40921,-14.08529 -0.7612,-14.54129 3.64802,-0.456 9.88006,-9.72805 8.20806,-15.65607 z"
     fill="#2f2e41"
     id="path70"
     style="stroke-width:0.70737" />
  <path
     d="m 861.09528,106.75527 a 16.256788,16.256788 0 0 0 -14.01297,9.79779 c -3.50396,8.46993 1.00765,18.41911 7.78037,24.59547 6.77273,6.17635 15.47273,9.70671 23.3774,14.34713 10.61729,6.23284 20.1578,14.88507 25.47023,25.99152 5.31243,11.10645 5.87745,24.86413 -0.36707,35.47456 -5.79598,9.8483 -16.33498,15.74246 -26.38646,21.17846"
     fill="none"
     stroke="#3f3d56"
     stroke-miterlimit="10"
     id="path72"
     style="stroke-width:0.70737" />
  <ellipse
     cx="870.02185"
     cy="107.4928"
     rx="12.378983"
     ry="6.0126491"
     fill="#f450a9"
     id="ellipse74"
     style="stroke-width:0.70737" />
  <ellipse
     cx="879.92505"
     cy="147.10555"
     rx="12.378983"
     ry="6.0126491"
     fill="#f450a9"
     id="ellipse76"
     style="stroke-width:0.70737" />
  <ellipse
     cx="857.28918"
     cy="153.47188"
     rx="12.378983"
     ry="6.0126491"
     fill="#f450a9"
     id="ellipse78"
     style="stroke-width:0.70737" />
  <ellipse
     cx="892.65771"
     cy="186.71828"
     rx="12.378983"
     ry="6.0126491"
     fill="#f450a9"
     id="ellipse80"
     style="stroke-width:0.70737" />
  <ellipse
     cx="917.41565"
     cy="186.71828"
     rx="12.378983"
     ry="6.0126491"
     fill="#f450a9"
     id="ellipse82"
     style="stroke-width:0.70737" />
</svg>
